G04*
G04 #@! TF.GenerationSoftware,Altium Limited,Altium Designer,22.7.1 (60)*
G04*
G04 Layer_Color=8421504*
%FSLAX25Y25*%
%MOIN*%
G70*
G04*
G04 #@! TF.SameCoordinates,6E36C335-AD95-4225-A29B-AEAE8FB35011*
G04*
G04*
G04 #@! TF.FilePolarity,Positive*
G04*
G01*
G75*
%ADD21R,0.03900X0.01500*%
%ADD22R,0.03900X0.03900*%
%ADD23R,0.03937X0.05315*%
%ADD24R,0.05315X0.03937*%
%ADD25R,0.07480X0.09449*%
%ADD26R,0.07378X0.02197*%
%ADD27R,0.06004X0.02559*%
%ADD28R,0.02756X0.06102*%
%ADD29R,0.06890X0.12598*%
%ADD30R,0.06890X0.03740*%
G04:AMPARAMS|DCode=31|XSize=11.81mil|YSize=57.09mil|CornerRadius=0mil|HoleSize=0mil|Usage=FLASHONLY|Rotation=225.000|XOffset=0mil|YOffset=0mil|HoleType=Round|Shape=Round|*
%AMOVALD31*
21,1,0.04528,0.01181,0.00000,0.00000,315.0*
1,1,0.01181,-0.01601,0.01601*
1,1,0.01181,0.01601,-0.01601*
%
%ADD31OVALD31*%

G04:AMPARAMS|DCode=32|XSize=11.81mil|YSize=57.09mil|CornerRadius=0mil|HoleSize=0mil|Usage=FLASHONLY|Rotation=315.000|XOffset=0mil|YOffset=0mil|HoleType=Round|Shape=Round|*
%AMOVALD32*
21,1,0.04528,0.01181,0.00000,0.00000,45.0*
1,1,0.01181,-0.01601,-0.01601*
1,1,0.01181,0.01601,0.01601*
%
%ADD32OVALD32*%

%ADD33R,0.08268X0.05512*%
%ADD34R,0.03347X0.02756*%
%ADD35R,0.04528X0.05315*%
%ADD36R,0.03740X0.03740*%
%ADD37R,0.03740X0.03740*%
G54D21*
X176900Y350800D02*
D03*
Y343200D02*
D03*
X167100D02*
D03*
G54D22*
Y350000D02*
D03*
G54D23*
X268858Y284500D02*
D03*
X276142D02*
D03*
X229811Y282500D02*
D03*
X237094D02*
D03*
X288358Y226000D02*
D03*
X295642D02*
D03*
G54D24*
X288500Y257358D02*
D03*
Y264642D02*
D03*
G54D25*
X272071Y355500D02*
D03*
X255929D02*
D03*
G54D26*
X114722Y297500D02*
D03*
Y292500D02*
D03*
Y287500D02*
D03*
Y282500D02*
D03*
Y277500D02*
D03*
Y272500D02*
D03*
Y267500D02*
D03*
Y262500D02*
D03*
X152000D02*
D03*
Y267500D02*
D03*
Y272500D02*
D03*
Y277500D02*
D03*
Y282500D02*
D03*
Y287500D02*
D03*
Y297500D02*
D03*
Y292500D02*
D03*
G54D27*
X178323Y277500D02*
D03*
Y282500D02*
D03*
Y287500D02*
D03*
Y292500D02*
D03*
X199677D02*
D03*
Y287500D02*
D03*
Y282500D02*
D03*
Y277500D02*
D03*
G54D28*
X251500Y206728D02*
D03*
X246500D02*
D03*
X241500D02*
D03*
X236500D02*
D03*
Y185272D02*
D03*
X241500D02*
D03*
X246500D02*
D03*
X251500D02*
D03*
G54D29*
X236313Y265000D02*
D03*
G54D30*
X261116Y274055D02*
D03*
Y265000D02*
D03*
Y255945D02*
D03*
G54D31*
X249918Y329394D02*
D03*
X248526Y328002D02*
D03*
X247134Y326610D02*
D03*
X245742Y325218D02*
D03*
X244350Y323826D02*
D03*
X242958Y322434D02*
D03*
X241566Y321042D02*
D03*
X240174Y319650D02*
D03*
X238782Y318258D02*
D03*
X237390Y316866D02*
D03*
X235998Y315474D02*
D03*
X234606Y314082D02*
D03*
X211082Y337606D02*
D03*
X212474Y338998D02*
D03*
X213866Y340390D02*
D03*
X215258Y341782D02*
D03*
X216650Y343174D02*
D03*
X218042Y344566D02*
D03*
X219434Y345958D02*
D03*
X220826Y347350D02*
D03*
X222218Y348742D02*
D03*
X223610Y350134D02*
D03*
X225002Y351526D02*
D03*
X226394Y352918D02*
D03*
G54D32*
Y314082D02*
D03*
X225002Y315474D02*
D03*
X223610Y316866D02*
D03*
X222218Y318258D02*
D03*
X220826Y319650D02*
D03*
X219434Y321042D02*
D03*
X218042Y322434D02*
D03*
X216650Y323826D02*
D03*
X215258Y325218D02*
D03*
X213866Y326610D02*
D03*
X212474Y328002D02*
D03*
X211082Y329394D02*
D03*
X234606Y352918D02*
D03*
X235998Y351526D02*
D03*
X237390Y350134D02*
D03*
X238782Y348742D02*
D03*
X240174Y347350D02*
D03*
X241566Y345958D02*
D03*
X242958Y344566D02*
D03*
X244350Y343174D02*
D03*
X245742Y341782D02*
D03*
X247134Y340390D02*
D03*
X248526Y338998D02*
D03*
X249918Y337606D02*
D03*
G54D33*
X174413Y383858D02*
D03*
X138587D02*
D03*
X174413Y366142D02*
D03*
X138587D02*
D03*
G54D34*
X140425Y232524D02*
D03*
Y239020D02*
D03*
X134925Y232524D02*
D03*
Y239020D02*
D03*
X129425Y232524D02*
D03*
Y239020D02*
D03*
X201500Y321827D02*
D03*
Y328323D02*
D03*
X195500Y321827D02*
D03*
Y328323D02*
D03*
X123925Y232524D02*
D03*
Y239020D02*
D03*
X118425Y232524D02*
D03*
Y239020D02*
D03*
G54D35*
X192465Y211251D02*
D03*
Y218731D02*
D03*
X172340Y211251D02*
D03*
Y218731D02*
D03*
X152215Y211251D02*
D03*
Y218731D02*
D03*
X132160Y218749D02*
D03*
Y211269D02*
D03*
X112035Y218749D02*
D03*
Y211269D02*
D03*
G54D36*
X151953Y306500D02*
D03*
X146047D02*
D03*
X241047Y215272D02*
D03*
X246953D02*
D03*
X225905Y303000D02*
D03*
X220000D02*
D03*
G54D37*
X178000Y264047D02*
D03*
Y269953D02*
D03*
X228500Y193047D02*
D03*
Y198953D02*
D03*
X254059Y365547D02*
D03*
Y371453D02*
D03*
X273941Y365547D02*
D03*
Y371453D02*
D03*
X201500Y339500D02*
D03*
Y345406D02*
D03*
X260000Y325500D02*
D03*
Y319595D02*
D03*
X201500Y351000D02*
D03*
Y356906D02*
D03*
X207750Y351000D02*
D03*
Y356906D02*
D03*
X158500Y344047D02*
D03*
Y349953D02*
D03*
X184500Y351547D02*
D03*
Y357453D02*
D03*
M02*
