G04*
G04 #@! TF.GenerationSoftware,Altium Limited,Altium Designer,22.4.2 (48)*
G04*
G04 Layer_Color=32768*
%FSLAX25Y25*%
%MOIN*%
G70*
G04*
G04 #@! TF.SameCoordinates,FF2FCFC6-B216-42DF-8982-F8550F838FBC*
G04*
G04*
G04 #@! TF.FilePolarity,Positive*
G04*
G01*
G75*
%ADD11C,0.00394*%
%ADD17C,0.00600*%
%ADD86C,0.00197*%
%ADD87C,0.00236*%
%ADD88C,0.00200*%
D11*
X270532Y284500D02*
X274468D01*
X272500Y282531D02*
Y286469D01*
X231484Y282500D02*
X235421D01*
X233453Y280532D02*
Y284469D01*
X288500Y259032D02*
Y262968D01*
X286531Y261000D02*
X290469D01*
X290032Y226000D02*
X293969D01*
X292000Y224031D02*
Y227969D01*
X299632Y227228D02*
X331128D01*
Y280772D01*
X299632D02*
X331128D01*
X299632Y227228D02*
Y280772D01*
X229108Y334892D02*
X231892Y332108D01*
X229108Y332108D02*
X231892Y334892D01*
X140425Y234197D02*
Y237347D01*
X138850Y235772D02*
X142000D01*
X134925Y234197D02*
Y237347D01*
X133350Y235772D02*
X136500D01*
X129425Y234197D02*
Y237347D01*
X127850Y235772D02*
X131000D01*
X201500Y323500D02*
Y326650D01*
X199925Y325075D02*
X203075D01*
X195500Y323500D02*
Y326650D01*
X193925Y325075D02*
X197075D01*
X140228Y353728D02*
Y356878D01*
X138654Y355303D02*
X141803D01*
X123925Y234197D02*
Y237347D01*
X122350Y235772D02*
X125500D01*
X118425Y234197D02*
Y237347D01*
X116850Y235772D02*
X120000D01*
X260425Y181250D02*
X263575D01*
X262000Y179675D02*
Y182825D01*
X260425Y175500D02*
X263575D01*
X262000Y173925D02*
Y177075D01*
X227449Y175500D02*
X230598D01*
X229024Y173925D02*
Y177075D01*
X227425Y181250D02*
X230575D01*
X229000Y179675D02*
Y182825D01*
X169500Y114425D02*
Y117575D01*
X167925Y116000D02*
X171075D01*
X190497Y214991D02*
X194433D01*
X192465Y213023D02*
Y216960D01*
X170371Y214991D02*
X174309D01*
X172340Y213023D02*
Y216960D01*
X150247Y214991D02*
X154183D01*
X152215Y213023D02*
Y216960D01*
X130192Y215009D02*
X134128D01*
X132160Y213040D02*
Y216977D01*
X110066Y215009D02*
X114004D01*
X112035Y213040D02*
Y216977D01*
X252795Y166449D02*
X334095D01*
Y96567D02*
Y166449D01*
X252795Y96567D02*
X334095D01*
X252795D02*
Y166449D01*
X167295D02*
X248594D01*
Y96567D02*
Y166449D01*
X167295Y96567D02*
X248594D01*
X167295D02*
Y166449D01*
X149000Y304925D02*
Y308075D01*
X147425Y306500D02*
X150575D01*
X176425Y267000D02*
X179575D01*
X178000Y265425D02*
Y268575D01*
X226925Y196000D02*
X230075D01*
X228500Y194425D02*
Y197575D01*
X244000Y213697D02*
Y216846D01*
X242425Y215272D02*
X245575D01*
X252484Y368500D02*
X255634D01*
X254059Y366925D02*
Y370075D01*
X272366Y368500D02*
X275516D01*
X273941Y366925D02*
Y370075D01*
X199925Y342453D02*
X203075D01*
X201500Y340878D02*
Y344028D01*
X222953Y301425D02*
Y304575D01*
X221378Y303000D02*
X224528D01*
X258425Y322547D02*
X261575D01*
X260000Y320972D02*
Y324122D01*
X199925Y353953D02*
X203075D01*
X201500Y352378D02*
Y355528D01*
X206175Y353953D02*
X209325D01*
X207750Y352378D02*
Y355528D01*
X129425Y375000D02*
X132575D01*
X131000Y373425D02*
Y376575D01*
X144425Y355500D02*
X147575D01*
X146000Y353925D02*
Y357075D01*
X182925Y350500D02*
X186075D01*
X184500Y348925D02*
Y352075D01*
D17*
X110361Y258350D02*
X117411D01*
X149311D01*
X156361D01*
Y301650D01*
X149311D02*
X156361D01*
X117411D02*
X149311D01*
X110361D02*
X117411D01*
X110361Y258350D02*
Y301650D01*
D86*
X266398Y281350D02*
Y287650D01*
X278602Y281350D02*
Y287650D01*
X266398D02*
X278602D01*
X266398Y281350D02*
X278602D01*
X227350Y279350D02*
Y285650D01*
X239555Y279350D02*
Y285650D01*
X227350D02*
X239555D01*
X227350Y279350D02*
X239555D01*
X285350Y254898D02*
X291650D01*
X285350Y267102D02*
X291650D01*
X285350Y254898D02*
Y267102D01*
X291650Y254898D02*
Y267102D01*
X285898Y222850D02*
Y229150D01*
X298102Y222850D02*
Y229150D01*
X285898D02*
X298102D01*
X285898Y222850D02*
X298102D01*
X262819Y355500D02*
X265181D01*
X264000Y354319D02*
Y356681D01*
X251795Y349201D02*
Y359043D01*
Y349201D02*
X276205D01*
Y361799D01*
X251795D02*
X276205D01*
X251795Y359043D02*
Y361799D01*
X203665Y274173D02*
Y295827D01*
X174335D02*
X203665D01*
X174335Y274173D02*
Y295827D01*
Y274173D02*
X203665D01*
X254827Y181827D02*
Y210173D01*
X234000Y181827D02*
X254827D01*
X234000D02*
Y210173D01*
X254827D01*
X265053Y252000D02*
Y278000D01*
X232376D02*
X265053D01*
X232215Y252000D02*
X232376Y278000D01*
X232215Y252000D02*
X265053D01*
X201548Y333500D02*
X230500Y362452D01*
Y304548D02*
X259452Y333500D01*
X201548D02*
X230500Y304548D01*
Y362452D02*
X259452Y333500D01*
X163634Y354087D02*
X180366D01*
Y339913D02*
Y354087D01*
X163634Y339913D02*
X180366D01*
X163634D02*
Y354087D01*
X157819Y375000D02*
X160181D01*
X159000Y373425D02*
Y376575D01*
X136559Y362992D02*
X181441D01*
X136559D02*
Y387008D01*
X181441D01*
Y362992D02*
Y387008D01*
X138260Y230654D02*
X142591D01*
X138260Y240890D02*
X142591D01*
X138260Y230654D02*
Y240890D01*
X142591Y230654D02*
Y240890D01*
X132760Y230654D02*
X137091D01*
X132760Y240890D02*
X137091D01*
X132760Y230654D02*
Y240890D01*
X137091Y230654D02*
Y240890D01*
X127260Y230654D02*
X131591D01*
X127260Y240890D02*
X131591D01*
X127260Y230654D02*
Y240890D01*
X131591Y230654D02*
Y240890D01*
X199335Y319957D02*
X203665D01*
X199335Y330193D02*
X203665D01*
X199335Y319957D02*
Y330193D01*
X203665Y319957D02*
Y330193D01*
X193335Y319957D02*
X197665D01*
X193335Y330193D02*
X197665D01*
X193335Y319957D02*
Y330193D01*
X197665Y319957D02*
Y330193D01*
X138063Y360421D02*
X142394D01*
X138063Y350185D02*
X142394D01*
Y360421D01*
X138063Y350185D02*
Y360421D01*
X121760Y230654D02*
X126091D01*
X121760Y240890D02*
X126091D01*
X121760Y230654D02*
Y240890D01*
X126091Y230654D02*
Y240890D01*
X116260Y230654D02*
X120591D01*
X116260Y240890D02*
X120591D01*
X116260Y230654D02*
Y240890D01*
X120591Y230654D02*
Y240890D01*
X256882Y179085D02*
Y183415D01*
X267118Y179085D02*
Y183415D01*
X256882Y179085D02*
X267118D01*
X256882Y183415D02*
X267118D01*
X256882Y173335D02*
Y177665D01*
X267118Y173335D02*
Y177665D01*
X256882Y173335D02*
X267118D01*
X256882Y177665D02*
X267118D01*
X234142Y173335D02*
Y177665D01*
X223905Y173335D02*
Y177665D01*
X234142D01*
X223905Y173335D02*
X234142D01*
X234118Y179085D02*
Y183415D01*
X223882Y179085D02*
Y183415D01*
X234118D01*
X223882Y179085D02*
X234118D01*
X167335Y110882D02*
X171665D01*
X167335Y121118D02*
X171665D01*
Y110882D02*
Y121118D01*
X167335Y110882D02*
Y121118D01*
X188725Y207708D02*
Y222275D01*
X196205Y207708D02*
Y222275D01*
X188725Y207708D02*
X196205D01*
X188725Y222275D02*
X196205D01*
X168600Y207708D02*
Y222275D01*
X176080Y207708D02*
Y222275D01*
X168600Y207708D02*
X176080D01*
X168600Y222275D02*
X176080D01*
X148475Y207708D02*
Y222275D01*
X155955Y207708D02*
Y222275D01*
X148475Y207708D02*
X155955D01*
X148475Y222275D02*
X155955D01*
X135900Y207725D02*
Y222292D01*
X128420Y207725D02*
Y222292D01*
X135900D01*
X128420Y207725D02*
X135900D01*
X115775D02*
Y222292D01*
X108295Y207725D02*
Y222292D01*
X115775D01*
X108295Y207725D02*
X115775D01*
X143685Y304138D02*
X154315D01*
X143685Y308862D02*
X154315D01*
Y304138D02*
Y308862D01*
X143685Y304138D02*
Y308862D01*
X175638Y261685D02*
Y272315D01*
X180362Y261685D02*
Y272315D01*
X175638Y261685D02*
X180362D01*
X175638Y272315D02*
X180362D01*
X226138Y190685D02*
Y201315D01*
X230862Y190685D02*
Y201315D01*
X226138Y190685D02*
X230862D01*
X226138Y201315D02*
X230862D01*
X238685Y217634D02*
X249315D01*
X238685Y212910D02*
X249315D01*
X238685D02*
Y217634D01*
X249315Y212910D02*
Y217634D01*
X251697Y363185D02*
Y373815D01*
X256421Y363185D02*
Y373815D01*
X251697Y363185D02*
X256421D01*
X251697Y373815D02*
X256421D01*
X271579Y363185D02*
Y373815D01*
X276303Y363185D02*
Y373815D01*
X271579Y363185D02*
X276303D01*
X271579Y373815D02*
X276303D01*
X199138Y337138D02*
Y347768D01*
X203862Y337138D02*
Y347768D01*
X199138Y337138D02*
X203862D01*
X199138Y347768D02*
X203862D01*
X217638Y300638D02*
X228268D01*
X217638Y305362D02*
X228268D01*
Y300638D02*
Y305362D01*
X217638Y300638D02*
Y305362D01*
X262362Y317232D02*
Y327862D01*
X257638Y317232D02*
Y327862D01*
X262362D01*
X257638Y317232D02*
X262362D01*
X199138Y348638D02*
Y359268D01*
X203862Y348638D02*
Y359268D01*
X199138Y348638D02*
X203862D01*
X199138Y359268D02*
X203862D01*
X205388Y348638D02*
Y359268D01*
X210112Y348638D02*
Y359268D01*
X205388Y348638D02*
X210112D01*
X205388Y359268D02*
X210112D01*
X128638Y369685D02*
Y380315D01*
X133362Y369685D02*
Y380315D01*
X128638Y369685D02*
X133362D01*
X128638Y380315D02*
X133362D01*
X143638Y350185D02*
Y360815D01*
X148362Y350185D02*
Y360815D01*
X143638Y350185D02*
X148362D01*
X143638Y360815D02*
X148362D01*
X182138Y345185D02*
Y355815D01*
X186862Y345185D02*
Y355815D01*
X182138Y345185D02*
X186862D01*
X182138Y355815D02*
X186862D01*
D87*
X104000Y410000D02*
Y430000D01*
Y410000D02*
X144500D01*
X164500D01*
Y430000D01*
X104000D02*
X164500D01*
D88*
X179500Y410000D02*
Y430000D01*
X329500Y410000D02*
Y430000D01*
X179500D02*
X329500D01*
X179500Y410000D02*
X329500D01*
M02*
