G04*
G04 #@! TF.GenerationSoftware,Altium Limited,Altium Designer,22.4.2 (48)*
G04*
G04 Layer_Color=32896*
%FSLAX25Y25*%
%MOIN*%
G70*
G04*
G04 #@! TF.SameCoordinates,486E1BA3-CE48-4A1D-B67F-52F2D9AC8645*
G04*
G04*
G04 #@! TF.FilePolarity,Positive*
G04*
G01*
G75*
%ADD16C,0.00787*%
%ADD19C,0.01000*%
D16*
X261606Y179971D02*
X262394D01*
X261606Y182529D02*
X262394D01*
X261606Y174221D02*
X262394D01*
X261606Y176779D02*
X262394D01*
X228630D02*
X229417D01*
X228630Y174221D02*
X229417D01*
X228606Y182529D02*
X229394D01*
X228606Y179971D02*
X229394D01*
X170780Y115606D02*
Y116394D01*
X168220Y115606D02*
Y116394D01*
D19*
X242832Y179501D02*
Y183499D01*
X240833D01*
X240166Y182833D01*
Y181500D01*
X240833Y180833D01*
X242832D01*
X241499D02*
X240166Y179501D01*
X236168D02*
X238833D01*
X236168Y182167D01*
Y182833D01*
X236834Y183499D01*
X238167D01*
X238833Y182833D01*
X254832Y179501D02*
Y183499D01*
X252833D01*
X252166Y182833D01*
Y181500D01*
X252833Y180833D01*
X254832D01*
X253499D02*
X252166Y179501D01*
X248168Y183499D02*
X250834D01*
Y181500D01*
X249501Y182167D01*
X248834D01*
X248168Y181500D01*
Y180167D01*
X248834Y179501D01*
X250167D01*
X250834Y180167D01*
X254832Y173501D02*
Y177499D01*
X252833D01*
X252166Y176833D01*
Y175500D01*
X252833Y174834D01*
X254832D01*
X253499D02*
X252166Y173501D01*
X248834D02*
Y177499D01*
X250834Y175500D01*
X248168D01*
X242832Y173501D02*
Y177499D01*
X240833D01*
X240166Y176833D01*
Y175500D01*
X240833Y174834D01*
X242832D01*
X241499D02*
X240166Y173501D01*
X238833Y176833D02*
X238167Y177499D01*
X236834D01*
X236168Y176833D01*
Y176166D01*
X236834Y175500D01*
X237501D01*
X236834D01*
X236168Y174834D01*
Y174167D01*
X236834Y173501D01*
X238167D01*
X238833Y174167D01*
X165166Y116501D02*
Y120499D01*
X163166D01*
X162500Y119833D01*
Y118500D01*
X163166Y117833D01*
X165166D01*
X163833D02*
X162500Y116501D01*
X161167D02*
X159834D01*
X160501D01*
Y120499D01*
X161167Y119833D01*
M02*
