M48
;Layer_Color=9474304
;FILE_FORMAT=2:5
INCH,TZ
;TYPE=PLATED
T1F00S00C0.01378
T2F00S00C0.02362
T3F00S00C0.03000
T4F00S00C0.03543
T5F00S00C0.03937
T6F00S00C0.04016
T7F00S00C0.06299
T8F00S00C0.07087
T9F00S00C0.12598
T10F00S00C0.17717
;TYPE=NON_PLATED
T11F00S00C0.12598
%
T01
X178500Y111500
X178440Y210945
X158440
X198440
X199000Y248000
X183500Y264000
X172500Y270000
X161000Y254500
X192500Y282500
X229500Y288500
X228500Y298000
X220000Y308000
X263000Y283000
X268000Y256000
X288500Y252500
X283500Y225000
X246500Y220500
X250940Y191945
X138500Y211000
X118500
X146000Y239000
X122000Y267500
Y272500
Y277500
X106500Y262500
Y292500
X140500Y306500
X152000Y311500
X151440Y358898
X144940Y389945
X166500Y356000
X167000Y338500
X177500Y342500
X184500
X196000Y341280
X196500Y351000
Y357000
X189500Y353000
X190500Y328000
X217260Y333198
X221000Y336000
X224000Y331000
X227000Y327500
X229500Y323500
X233000Y326000
X236000Y329000
X239000Y332500
X242192Y335808
X260000Y330500
X255000Y320500
X252000Y317500
X248000Y316000
X244000Y314500
X265000Y319500
X264440Y371445
X206500Y344000
T02
X211500Y200000
X220926Y241101
X245000Y296500
X251214
X257429
Y304500
X251214
X245000
T03
X314356Y303500
X324356
Y313500
X314356
Y323500
X324356
Y333500
X314356
Y343500
X324356
T04
X197906Y132000
X205937
X213968
X222000
X217984Y139008
X209953
X201921
X193890
X279390
X287421
X295453
X303484
X307500Y132000
X299468
X291437
X283405
X320453Y157984
X311437
X275453
X266437
X234953
X225937
X189953
X180937
X278000Y274000
X288000
X112000Y337000
Y347000
Y357000
T05
X321285Y244000
Y254000
Y264000
T06
X109500Y415000
Y425000
X119500
X129500
X139500
X149500
Y415000
X139500
X129500
X119500
X159500
Y425000
X184500
X194500
X204500
X214500
X224500
X234500
X244500
X254500
X264500
X274500
X284500
X294500
X304500
Y415000
X294500
X284500
X274500
X264500
X254500
X244500
X234500
X224500
X214500
X204500
X194500
X184500
X314500
Y425000
X324500
Y415000
T07
X175957Y135504
X239933
X261457
X325433
T08
X273606Y206500
X295260
T09
X324000Y206500
T10
X115500Y115417
T11
X182945Y122000
X232945
X268445
X318445
M30
