G04*
G04 #@! TF.GenerationSoftware,Altium Limited,Altium Designer,22.4.2 (48)*
G04*
G04 Layer_Color=255*
%FSLAX25Y25*%
%MOIN*%
G70*
G04*
G04 #@! TF.SameCoordinates,486E1BA3-CE48-4A1D-B67F-52F2D9AC8645*
G04*
G04*
G04 #@! TF.FilePolarity,Positive*
G04*
G01*
G75*
%ADD34R,0.03347X0.02756*%
%ADD71C,0.06299*%
%ADD72C,0.09449*%
%ADD73C,0.05512*%
%ADD74C,0.09843*%
%ADD75C,0.05906*%
%ADD76R,0.05906X0.05906*%
%ADD77R,0.05906X0.05906*%
%ADD78C,0.06000*%
%ADD83R,0.02756X0.03347*%
D34*
X169500Y112752D02*
D03*
Y119248D02*
D03*
D71*
X268445Y122000D02*
D03*
X318445D02*
D03*
X232945D02*
D03*
X182945D02*
D03*
D72*
X261457Y135504D02*
D03*
X325433D02*
D03*
X239933D02*
D03*
X175957D02*
D03*
D73*
X266437Y157984D02*
D03*
X275453D02*
D03*
X311437D02*
D03*
X320453D02*
D03*
X279390Y139008D02*
D03*
X283405Y132000D02*
D03*
X287421Y139008D02*
D03*
X291437Y132000D02*
D03*
X295453Y139008D02*
D03*
X299468Y132000D02*
D03*
X303484Y139008D02*
D03*
X307500Y132000D02*
D03*
X222000D02*
D03*
X217984Y139008D02*
D03*
X213968Y132000D02*
D03*
X209953Y139008D02*
D03*
X205937Y132000D02*
D03*
X201921Y139008D02*
D03*
X197906Y132000D02*
D03*
X193890Y139008D02*
D03*
X234953Y157984D02*
D03*
X225937D02*
D03*
X189953D02*
D03*
X180937D02*
D03*
D74*
X295260Y206500D02*
D03*
X273606D02*
D03*
X324000D02*
D03*
D75*
X321285Y264000D02*
D03*
Y254000D02*
D03*
Y244000D02*
D03*
X288000Y274000D02*
D03*
X314356Y303500D02*
D03*
X324356D02*
D03*
X314356Y313500D02*
D03*
X324356D02*
D03*
Y323500D02*
D03*
X314356Y333500D02*
D03*
X324356D02*
D03*
X314356Y323500D02*
D03*
X112000Y347000D02*
D03*
Y337000D02*
D03*
D76*
X278000Y274000D02*
D03*
D77*
X314356Y343500D02*
D03*
X324356D02*
D03*
X112000Y357000D02*
D03*
D78*
X109500Y425000D02*
D03*
X119500D02*
D03*
X129500D02*
D03*
X139500D02*
D03*
X149500D02*
D03*
X159500D02*
D03*
Y415000D02*
D03*
X149500D02*
D03*
X109500D02*
D03*
X119500D02*
D03*
X129500D02*
D03*
X139500D02*
D03*
X234500Y425000D02*
D03*
X244500D02*
D03*
X254500D02*
D03*
X264500D02*
D03*
X274500D02*
D03*
X284500D02*
D03*
X294500D02*
D03*
X304500D02*
D03*
X314500D02*
D03*
X324500D02*
D03*
Y415000D02*
D03*
X314500D02*
D03*
X304500D02*
D03*
X294500D02*
D03*
X284500D02*
D03*
X274500D02*
D03*
X264500D02*
D03*
X254500D02*
D03*
X244500D02*
D03*
X234500D02*
D03*
X224500Y425000D02*
D03*
X214500D02*
D03*
X204500D02*
D03*
X194500D02*
D03*
X184500D02*
D03*
X224500Y415000D02*
D03*
X214500D02*
D03*
X204500D02*
D03*
X194500D02*
D03*
X184500D02*
D03*
X115500Y115417D02*
D03*
D83*
X258752Y181250D02*
D03*
X265248D02*
D03*
X258752Y175500D02*
D03*
X265248D02*
D03*
X232272D02*
D03*
X225776D02*
D03*
X232248Y181250D02*
D03*
X225752D02*
D03*
M02*
