G04*
G04 #@! TF.GenerationSoftware,Altium Limited,Altium Designer,22.4.2 (48)*
G04*
G04 Layer_Color=8421504*
%FSLAX25Y25*%
%MOIN*%
G70*
G04*
G04 #@! TF.SameCoordinates,FE8C8ECF-970F-4C2D-9C15-E43E087C2527*
G04*
G04*
G04 #@! TF.FilePolarity,Positive*
G04*
G01*
G75*
%ADD21R,0.03937X0.05315*%
%ADD22R,0.05315X0.03937*%
%ADD23R,0.07480X0.09449*%
%ADD24R,0.07378X0.02197*%
%ADD25R,0.06004X0.02559*%
%ADD26R,0.02756X0.06102*%
%ADD27R,0.06890X0.12598*%
%ADD28R,0.06890X0.03740*%
G04:AMPARAMS|DCode=29|XSize=11.81mil|YSize=57.09mil|CornerRadius=0mil|HoleSize=0mil|Usage=FLASHONLY|Rotation=225.000|XOffset=0mil|YOffset=0mil|HoleType=Round|Shape=Round|*
%AMOVALD29*
21,1,0.04528,0.01181,0.00000,0.00000,315.0*
1,1,0.01181,-0.01601,0.01601*
1,1,0.01181,0.01601,-0.01601*
%
%ADD29OVALD29*%

G04:AMPARAMS|DCode=30|XSize=11.81mil|YSize=57.09mil|CornerRadius=0mil|HoleSize=0mil|Usage=FLASHONLY|Rotation=315.000|XOffset=0mil|YOffset=0mil|HoleType=Round|Shape=Round|*
%AMOVALD30*
21,1,0.04528,0.01181,0.00000,0.00000,45.0*
1,1,0.01181,-0.01601,-0.01601*
1,1,0.01181,0.01601,0.01601*
%
%ADD30OVALD30*%

%ADD31R,0.04528X0.02362*%
%ADD32R,0.08268X0.05512*%
%ADD33R,0.03347X0.02756*%
%ADD34R,0.04528X0.05315*%
%ADD35R,0.03740X0.03740*%
%ADD36R,0.03740X0.03740*%
D21*
X268858Y283000D02*
D03*
X276142D02*
D03*
X229811Y282500D02*
D03*
X237094D02*
D03*
X288709Y222575D02*
D03*
X295992D02*
D03*
D22*
X288500Y257906D02*
D03*
Y265189D02*
D03*
D23*
X272071Y355500D02*
D03*
X255929D02*
D03*
D24*
X114722Y297500D02*
D03*
Y292500D02*
D03*
Y287500D02*
D03*
Y282500D02*
D03*
Y277500D02*
D03*
Y272500D02*
D03*
Y267500D02*
D03*
Y262500D02*
D03*
X152000D02*
D03*
Y267500D02*
D03*
Y272500D02*
D03*
Y277500D02*
D03*
Y282500D02*
D03*
Y287500D02*
D03*
Y297500D02*
D03*
Y292500D02*
D03*
D25*
X178323Y277500D02*
D03*
Y282500D02*
D03*
Y287500D02*
D03*
Y292500D02*
D03*
X199677D02*
D03*
Y287500D02*
D03*
Y282500D02*
D03*
Y277500D02*
D03*
D26*
X251500Y206728D02*
D03*
X246500D02*
D03*
X241500D02*
D03*
X236500D02*
D03*
Y185272D02*
D03*
X241500D02*
D03*
X246500D02*
D03*
X251500D02*
D03*
D27*
X236313Y265000D02*
D03*
D28*
X261116Y274055D02*
D03*
Y265000D02*
D03*
Y255945D02*
D03*
D29*
X249918Y329394D02*
D03*
X248526Y328002D02*
D03*
X247134Y326610D02*
D03*
X245742Y325218D02*
D03*
X244350Y323826D02*
D03*
X242958Y322434D02*
D03*
X241566Y321042D02*
D03*
X240174Y319650D02*
D03*
X238782Y318258D02*
D03*
X237390Y316866D02*
D03*
X235998Y315474D02*
D03*
X234606Y314082D02*
D03*
X211082Y337606D02*
D03*
X212474Y338998D02*
D03*
X213866Y340390D02*
D03*
X215258Y341782D02*
D03*
X216650Y343174D02*
D03*
X218042Y344566D02*
D03*
X219434Y345958D02*
D03*
X220826Y347350D02*
D03*
X222218Y348742D02*
D03*
X223610Y350134D02*
D03*
X225002Y351526D02*
D03*
X226394Y352918D02*
D03*
D30*
Y314082D02*
D03*
X225002Y315474D02*
D03*
X223610Y316866D02*
D03*
X222218Y318258D02*
D03*
X220826Y319650D02*
D03*
X219434Y321042D02*
D03*
X218042Y322434D02*
D03*
X216650Y323826D02*
D03*
X215258Y325218D02*
D03*
X213866Y326610D02*
D03*
X212474Y328002D02*
D03*
X211082Y329394D02*
D03*
X234606Y352918D02*
D03*
X235998Y351526D02*
D03*
X237390Y350134D02*
D03*
X238782Y348742D02*
D03*
X240174Y347350D02*
D03*
X241566Y345958D02*
D03*
X242958Y344566D02*
D03*
X244350Y343174D02*
D03*
X245742Y341782D02*
D03*
X247134Y340390D02*
D03*
X248526Y338998D02*
D03*
X249918Y337606D02*
D03*
D31*
X166882Y350740D02*
D03*
Y343260D02*
D03*
X177118Y347000D02*
D03*
D32*
X176913Y383858D02*
D03*
X141087D02*
D03*
X176913Y366142D02*
D03*
X141087D02*
D03*
D33*
X140425Y232524D02*
D03*
Y239020D02*
D03*
X134925Y232524D02*
D03*
Y239020D02*
D03*
X129425Y232524D02*
D03*
Y239020D02*
D03*
X201500Y321827D02*
D03*
Y328323D02*
D03*
X195500Y321827D02*
D03*
Y328323D02*
D03*
X140228Y358551D02*
D03*
Y352055D02*
D03*
X123925Y232524D02*
D03*
Y239020D02*
D03*
X118425Y232524D02*
D03*
Y239020D02*
D03*
D34*
X192465Y211251D02*
D03*
Y218731D02*
D03*
X172340Y211251D02*
D03*
Y218731D02*
D03*
X152215Y211251D02*
D03*
Y218731D02*
D03*
X132160Y218749D02*
D03*
Y211269D02*
D03*
X112035Y218749D02*
D03*
Y211269D02*
D03*
D35*
X151953Y306500D02*
D03*
X146047D02*
D03*
X241047Y215272D02*
D03*
X246953D02*
D03*
X225905Y303000D02*
D03*
X220000D02*
D03*
D36*
X178000Y264047D02*
D03*
Y269953D02*
D03*
X228500Y193047D02*
D03*
Y198953D02*
D03*
X254059Y365547D02*
D03*
Y371453D02*
D03*
X273941Y365547D02*
D03*
Y371453D02*
D03*
X201500Y339500D02*
D03*
Y345406D02*
D03*
X260000Y325500D02*
D03*
Y319595D02*
D03*
X201500Y351000D02*
D03*
Y356906D02*
D03*
X207750Y351000D02*
D03*
Y356906D02*
D03*
X131000Y372047D02*
D03*
Y377953D02*
D03*
X146000Y352547D02*
D03*
Y358453D02*
D03*
X184500Y347547D02*
D03*
Y353453D02*
D03*
M02*
