G04*
G04 #@! TF.GenerationSoftware,Altium Limited,Altium Designer,22.7.1 (60)*
G04*
G04 Layer_Color=8388736*
%FSLAX25Y25*%
%MOIN*%
G70*
G04*
G04 #@! TF.SameCoordinates,6E36C335-AD95-4225-A29B-AEAE8FB35011*
G04*
G04*
G04 #@! TF.FilePolarity,Negative*
G04*
G01*
G75*
%ADD21R,0.03900X0.01500*%
%ADD22R,0.03900X0.03900*%
%ADD38R,0.04737X0.06115*%
%ADD39R,0.06115X0.04737*%
%ADD40R,0.08280X0.10249*%
%ADD41R,0.08181X0.03000*%
%ADD42R,0.06804X0.03359*%
%ADD43R,0.06807X0.03362*%
%ADD44R,0.03556X0.06902*%
%ADD45R,0.07690X0.13398*%
%ADD46R,0.07690X0.04540*%
G04:AMPARAMS|DCode=47|XSize=19.81mil|YSize=65.09mil|CornerRadius=0mil|HoleSize=0mil|Usage=FLASHONLY|Rotation=225.000|XOffset=0mil|YOffset=0mil|HoleType=Round|Shape=Round|*
%AMOVALD47*
21,1,0.04528,0.01981,0.00000,0.00000,315.0*
1,1,0.01981,-0.01601,0.01601*
1,1,0.01981,0.01601,-0.01601*
%
%ADD47OVALD47*%

G04:AMPARAMS|DCode=48|XSize=19.81mil|YSize=65.09mil|CornerRadius=0mil|HoleSize=0mil|Usage=FLASHONLY|Rotation=315.000|XOffset=0mil|YOffset=0mil|HoleType=Round|Shape=Round|*
%AMOVALD48*
21,1,0.04528,0.01981,0.00000,0.00000,45.0*
1,1,0.01981,-0.01601,-0.01601*
1,1,0.01981,0.01601,0.01601*
%
%ADD48OVALD48*%

%ADD49R,0.09068X0.06312*%
%ADD50R,0.04147X0.03556*%
%ADD51R,0.05328X0.06115*%
%ADD52R,0.04540X0.04540*%
%ADD53R,0.04540X0.04540*%
%ADD54C,0.07099*%
%ADD55C,0.10249*%
%ADD56C,0.06312*%
%ADD57C,0.10642*%
%ADD58C,0.06706*%
%ADD59R,0.06706X0.06706*%
%ADD60R,0.06706X0.06706*%
%ADD61C,0.06800*%
%ADD62C,0.03556*%
%ADD63C,0.03359*%
%ADD64C,0.04737*%
%ADD65C,0.03162*%
G54D21*
X176900Y350800D02*
D03*
Y343200D02*
D03*
X167100D02*
D03*
G54D22*
Y350000D02*
D03*
G54D38*
X268858Y284500D02*
D03*
X276142D02*
D03*
X229811Y282500D02*
D03*
X237094D02*
D03*
X288358Y226000D02*
D03*
X295642D02*
D03*
G54D39*
X288500Y257358D02*
D03*
Y264642D02*
D03*
G54D40*
X272071Y355500D02*
D03*
X255929D02*
D03*
G54D41*
X114722Y297500D02*
D03*
Y292500D02*
D03*
Y287500D02*
D03*
Y282500D02*
D03*
Y277500D02*
D03*
Y272500D02*
D03*
Y267500D02*
D03*
Y262500D02*
D03*
X152000D02*
D03*
Y267500D02*
D03*
Y272500D02*
D03*
Y277500D02*
D03*
Y282500D02*
D03*
Y287500D02*
D03*
Y297500D02*
D03*
Y292500D02*
D03*
G54D42*
X178323Y277500D02*
D03*
Y282500D02*
D03*
Y287500D02*
D03*
Y292500D02*
D03*
X199677D02*
D03*
Y287500D02*
D03*
Y277500D02*
D03*
G54D43*
Y282500D02*
D03*
G54D44*
X251500Y206728D02*
D03*
X246500D02*
D03*
X241500D02*
D03*
X236500D02*
D03*
Y185272D02*
D03*
X241500D02*
D03*
X246500D02*
D03*
X251500D02*
D03*
G54D45*
X236313Y265000D02*
D03*
G54D46*
X261116Y274055D02*
D03*
Y265000D02*
D03*
Y255945D02*
D03*
G54D47*
X249918Y329394D02*
D03*
X248526Y328002D02*
D03*
X247134Y326610D02*
D03*
X245742Y325218D02*
D03*
X244350Y323826D02*
D03*
X242958Y322434D02*
D03*
X241566Y321042D02*
D03*
X240174Y319650D02*
D03*
X238782Y318258D02*
D03*
X237390Y316866D02*
D03*
X235998Y315474D02*
D03*
X234606Y314082D02*
D03*
X211082Y337606D02*
D03*
X212474Y338998D02*
D03*
X213866Y340390D02*
D03*
X215258Y341782D02*
D03*
X216650Y343174D02*
D03*
X218042Y344566D02*
D03*
X219434Y345958D02*
D03*
X220826Y347350D02*
D03*
X222218Y348742D02*
D03*
X223610Y350134D02*
D03*
X225002Y351526D02*
D03*
X226394Y352918D02*
D03*
G54D48*
Y314082D02*
D03*
X225002Y315474D02*
D03*
X223610Y316866D02*
D03*
X222218Y318258D02*
D03*
X220826Y319650D02*
D03*
X219434Y321042D02*
D03*
X218042Y322434D02*
D03*
X216650Y323826D02*
D03*
X215258Y325218D02*
D03*
X213866Y326610D02*
D03*
X212474Y328002D02*
D03*
X211082Y329394D02*
D03*
X234606Y352918D02*
D03*
X235998Y351526D02*
D03*
X237390Y350134D02*
D03*
X238782Y348742D02*
D03*
X240174Y347350D02*
D03*
X241566Y345958D02*
D03*
X242958Y344566D02*
D03*
X244350Y343174D02*
D03*
X245742Y341782D02*
D03*
X247134Y340390D02*
D03*
X248526Y338998D02*
D03*
X249918Y337606D02*
D03*
G54D49*
X174413Y383858D02*
D03*
X138587D02*
D03*
X174413Y366142D02*
D03*
X138587D02*
D03*
G54D50*
X140425Y232524D02*
D03*
Y239020D02*
D03*
X134925Y232524D02*
D03*
Y239020D02*
D03*
X129425Y232524D02*
D03*
Y239020D02*
D03*
X201500Y321827D02*
D03*
Y328323D02*
D03*
X195500Y321827D02*
D03*
Y328323D02*
D03*
X123925Y232524D02*
D03*
Y239020D02*
D03*
X118425Y232524D02*
D03*
Y239020D02*
D03*
G54D51*
X192465Y211251D02*
D03*
Y218731D02*
D03*
X172340Y211251D02*
D03*
Y218731D02*
D03*
X152215Y211251D02*
D03*
Y218731D02*
D03*
X132160Y218749D02*
D03*
Y211269D02*
D03*
X112035Y218749D02*
D03*
Y211269D02*
D03*
G54D52*
X151953Y306500D02*
D03*
X146047D02*
D03*
X241047Y215272D02*
D03*
X246953D02*
D03*
X225905Y303000D02*
D03*
X220000D02*
D03*
G54D53*
X178000Y264047D02*
D03*
Y269953D02*
D03*
X228500Y193047D02*
D03*
Y198953D02*
D03*
X254059Y365547D02*
D03*
Y371453D02*
D03*
X273941Y365547D02*
D03*
Y371453D02*
D03*
X201500Y339500D02*
D03*
Y345406D02*
D03*
X260000Y325500D02*
D03*
Y319595D02*
D03*
X201500Y351000D02*
D03*
Y356906D02*
D03*
X207750Y351000D02*
D03*
Y356906D02*
D03*
X158500Y344047D02*
D03*
Y349953D02*
D03*
X184500Y351547D02*
D03*
Y357453D02*
D03*
G54D54*
X268445Y122000D02*
D03*
X318445D02*
D03*
X232945D02*
D03*
X182945D02*
D03*
G54D55*
X261457Y135504D02*
D03*
X325433D02*
D03*
X239933D02*
D03*
X175957D02*
D03*
G54D56*
X266437Y157984D02*
D03*
X275453D02*
D03*
X311437D02*
D03*
X320453D02*
D03*
X279390Y139008D02*
D03*
X283405Y132000D02*
D03*
X287421Y139008D02*
D03*
X291437Y132000D02*
D03*
X295453Y139008D02*
D03*
X299468Y132000D02*
D03*
X303484Y139008D02*
D03*
X307500Y132000D02*
D03*
X222000D02*
D03*
X217984Y139008D02*
D03*
X213968Y132000D02*
D03*
X209953Y139008D02*
D03*
X205937Y132000D02*
D03*
X201921Y139008D02*
D03*
X197906Y132000D02*
D03*
X193890Y139008D02*
D03*
X234953Y157984D02*
D03*
X225937D02*
D03*
X189953D02*
D03*
X180937D02*
D03*
G54D57*
X295260Y206500D02*
D03*
X273606D02*
D03*
X324000D02*
D03*
G54D58*
X321285Y264000D02*
D03*
Y254000D02*
D03*
Y244000D02*
D03*
X288000Y274000D02*
D03*
X314356Y303500D02*
D03*
X324356D02*
D03*
X314356Y313500D02*
D03*
X324356D02*
D03*
Y323500D02*
D03*
X314356Y333500D02*
D03*
X324356D02*
D03*
X314356Y323500D02*
D03*
X112000Y347000D02*
D03*
Y337000D02*
D03*
G54D59*
X278000Y274000D02*
D03*
G54D60*
X314356Y343500D02*
D03*
X324356D02*
D03*
X112000Y357000D02*
D03*
G54D61*
X109500Y425000D02*
D03*
X119500D02*
D03*
X129500D02*
D03*
X139500D02*
D03*
X149500D02*
D03*
X159500D02*
D03*
Y415000D02*
D03*
X149500D02*
D03*
X109500D02*
D03*
X119500D02*
D03*
X129500D02*
D03*
X139500D02*
D03*
X234500Y425000D02*
D03*
X244500D02*
D03*
X254500D02*
D03*
X264500D02*
D03*
X274500D02*
D03*
X284500D02*
D03*
X294500D02*
D03*
X304500D02*
D03*
X314500D02*
D03*
X324500D02*
D03*
Y415000D02*
D03*
X314500D02*
D03*
X304500D02*
D03*
X294500D02*
D03*
X284500D02*
D03*
X274500D02*
D03*
X264500D02*
D03*
X254500D02*
D03*
X244500D02*
D03*
X234500D02*
D03*
X224500Y425000D02*
D03*
X214500D02*
D03*
X204500D02*
D03*
X194500D02*
D03*
X184500D02*
D03*
X224500Y415000D02*
D03*
X214500D02*
D03*
X204500D02*
D03*
X194500D02*
D03*
X184500D02*
D03*
X115500Y115417D02*
D03*
G54D62*
X167575Y337350D02*
D03*
X242192Y335808D02*
D03*
G54D63*
X166500Y355000D02*
D03*
X182000Y381500D02*
D03*
X179000Y357500D02*
D03*
X263000Y284500D02*
D03*
X229500Y288500D02*
D03*
X288500Y251953D02*
D03*
X199000Y248000D02*
D03*
X268000Y256000D02*
D03*
X138500Y211000D02*
D03*
X118500D02*
D03*
X158440Y210945D02*
D03*
X178500Y111500D02*
D03*
X146000Y239000D02*
D03*
X198440Y210945D02*
D03*
X283150Y228425D02*
D03*
X184500Y346500D02*
D03*
X220000Y308000D02*
D03*
X196000Y341280D02*
D03*
X190500Y328000D02*
D03*
X260000Y330500D02*
D03*
X246500Y220500D02*
D03*
X250940Y191945D02*
D03*
X178440Y210945D02*
D03*
X264440Y371445D02*
D03*
X196500Y357000D02*
D03*
X265000Y319500D02*
D03*
X122000Y277500D02*
D03*
Y272500D02*
D03*
Y267500D02*
D03*
X161000Y254500D02*
D03*
X153000Y350000D02*
D03*
X152000Y311500D02*
D03*
X183500Y264000D02*
D03*
X140500Y306500D02*
D03*
X172500Y270000D02*
D03*
X228500Y298000D02*
D03*
X192500Y282500D02*
D03*
X106500Y262500D02*
D03*
Y292500D02*
D03*
X206500Y344000D02*
D03*
X196500Y351000D02*
D03*
G54D64*
X211500Y200000D02*
D03*
X257429Y296500D02*
D03*
X245000Y304500D02*
D03*
X245000Y296500D02*
D03*
X251214D02*
D03*
X220926Y241101D02*
D03*
X257429Y304500D02*
D03*
X251214D02*
D03*
G54D65*
X255000Y320500D02*
D03*
X248000Y316000D02*
D03*
X252000Y317500D02*
D03*
X244000Y314500D02*
D03*
X236000Y329000D02*
D03*
X239000Y332500D02*
D03*
X233000Y326000D02*
D03*
X221000Y336000D02*
D03*
X229500Y323500D02*
D03*
X227000Y327500D02*
D03*
X224000Y331000D02*
D03*
X217260Y333198D02*
D03*
M02*
