G04*
G04 #@! TF.GenerationSoftware,Altium Limited,Altium Designer,22.4.2 (48)*
G04*
G04 Layer_Color=255*
%FSLAX25Y25*%
%MOIN*%
G70*
G04*
G04 #@! TF.SameCoordinates,D4827CC2-CCBD-4F76-BBD4-9D2AE6A5A8F2*
G04*
G04*
G04 #@! TF.FilePolarity,Positive*
G04*
G01*
G75*
%ADD21R,0.07480X0.09449*%
%ADD22R,0.07378X0.02197*%
%ADD23R,0.06004X0.02559*%
%ADD24R,0.02756X0.06102*%
%ADD25R,0.06890X0.12598*%
%ADD26R,0.06890X0.03740*%
G04:AMPARAMS|DCode=27|XSize=11.81mil|YSize=57.09mil|CornerRadius=0mil|HoleSize=0mil|Usage=FLASHONLY|Rotation=225.000|XOffset=0mil|YOffset=0mil|HoleType=Round|Shape=Round|*
%AMOVALD27*
21,1,0.04528,0.01181,0.00000,0.00000,315.0*
1,1,0.01181,-0.01601,0.01601*
1,1,0.01181,0.01601,-0.01601*
%
%ADD27OVALD27*%

G04:AMPARAMS|DCode=28|XSize=11.81mil|YSize=57.09mil|CornerRadius=0mil|HoleSize=0mil|Usage=FLASHONLY|Rotation=315.000|XOffset=0mil|YOffset=0mil|HoleType=Round|Shape=Round|*
%AMOVALD28*
21,1,0.04528,0.01181,0.00000,0.00000,45.0*
1,1,0.01181,-0.01601,-0.01601*
1,1,0.01181,0.01601,0.01601*
%
%ADD28OVALD28*%

%ADD29R,0.04528X0.02362*%
%ADD30R,0.08268X0.05512*%
%ADD31R,0.03347X0.02756*%
%ADD32R,0.04528X0.05315*%
%ADD33R,0.03740X0.03740*%
%ADD34R,0.03740X0.03740*%
%ADD65C,0.09843*%
%ADD66C,0.05906*%
%ADD67R,0.05906X0.05906*%
%ADD68R,0.05906X0.05906*%
%ADD69C,0.06000*%
%ADD70C,0.05512*%
%ADD71C,0.09449*%
%ADD72C,0.06299*%
D21*
X272071Y355500D02*
D03*
X255929D02*
D03*
D22*
X114722Y297500D02*
D03*
Y292500D02*
D03*
Y287500D02*
D03*
Y282500D02*
D03*
Y277500D02*
D03*
Y272500D02*
D03*
Y267500D02*
D03*
Y262500D02*
D03*
X152000D02*
D03*
Y267500D02*
D03*
Y272500D02*
D03*
Y277500D02*
D03*
Y282500D02*
D03*
Y287500D02*
D03*
Y297500D02*
D03*
Y292500D02*
D03*
D23*
X178323Y277500D02*
D03*
Y282500D02*
D03*
Y287500D02*
D03*
Y292500D02*
D03*
X199677D02*
D03*
Y287500D02*
D03*
Y282500D02*
D03*
Y277500D02*
D03*
D24*
X251500Y206728D02*
D03*
X246500D02*
D03*
X241500D02*
D03*
X236500D02*
D03*
Y185272D02*
D03*
X241500D02*
D03*
X246500D02*
D03*
X251500D02*
D03*
D25*
X236313Y265000D02*
D03*
D26*
X261116Y274055D02*
D03*
Y265000D02*
D03*
Y255945D02*
D03*
D27*
X249918Y329394D02*
D03*
X248526Y328002D02*
D03*
X247134Y326610D02*
D03*
X245742Y325218D02*
D03*
X244350Y323826D02*
D03*
X242958Y322434D02*
D03*
X241566Y321042D02*
D03*
X240174Y319650D02*
D03*
X238782Y318258D02*
D03*
X237390Y316866D02*
D03*
X235998Y315474D02*
D03*
X234606Y314082D02*
D03*
X211082Y337606D02*
D03*
X212474Y338998D02*
D03*
X213866Y340390D02*
D03*
X215258Y341782D02*
D03*
X216650Y343174D02*
D03*
X218042Y344566D02*
D03*
X219434Y345958D02*
D03*
X220826Y347350D02*
D03*
X222218Y348742D02*
D03*
X223610Y350134D02*
D03*
X225002Y351526D02*
D03*
X226394Y352918D02*
D03*
D28*
Y314082D02*
D03*
X225002Y315474D02*
D03*
X223610Y316866D02*
D03*
X222218Y318258D02*
D03*
X220826Y319650D02*
D03*
X219434Y321042D02*
D03*
X218042Y322434D02*
D03*
X216650Y323826D02*
D03*
X215258Y325218D02*
D03*
X213866Y326610D02*
D03*
X212474Y328002D02*
D03*
X211082Y329394D02*
D03*
X234606Y352918D02*
D03*
X235998Y351526D02*
D03*
X237390Y350134D02*
D03*
X238782Y348742D02*
D03*
X240174Y347350D02*
D03*
X241566Y345958D02*
D03*
X242958Y344566D02*
D03*
X244350Y343174D02*
D03*
X245742Y341782D02*
D03*
X247134Y340390D02*
D03*
X248526Y338998D02*
D03*
X249918Y337606D02*
D03*
D29*
X166882Y350740D02*
D03*
Y343260D02*
D03*
X177118Y347000D02*
D03*
D30*
X176913Y383858D02*
D03*
X141087D02*
D03*
X176913Y366142D02*
D03*
X141087D02*
D03*
D31*
X140425Y232524D02*
D03*
Y239020D02*
D03*
X134925Y232524D02*
D03*
Y239020D02*
D03*
X129425Y232524D02*
D03*
Y239020D02*
D03*
X201500Y321827D02*
D03*
Y328323D02*
D03*
X195500Y321827D02*
D03*
Y328323D02*
D03*
X140228Y358551D02*
D03*
Y352055D02*
D03*
X123925Y232524D02*
D03*
Y239020D02*
D03*
X118425Y232524D02*
D03*
Y239020D02*
D03*
D32*
X192465Y211251D02*
D03*
Y218731D02*
D03*
X172340Y211251D02*
D03*
Y218731D02*
D03*
X152215Y211251D02*
D03*
Y218731D02*
D03*
X132160Y218749D02*
D03*
Y211269D02*
D03*
X112035Y218749D02*
D03*
Y211269D02*
D03*
D33*
X151953Y306500D02*
D03*
X146047D02*
D03*
X241047Y215272D02*
D03*
X246953D02*
D03*
X275453Y283000D02*
D03*
X269547D02*
D03*
X236405Y282500D02*
D03*
X230500D02*
D03*
X295303Y222575D02*
D03*
X289398D02*
D03*
X225905Y303000D02*
D03*
X220000D02*
D03*
D34*
X178000Y264047D02*
D03*
Y269953D02*
D03*
X228500Y193047D02*
D03*
Y198953D02*
D03*
X288500Y264500D02*
D03*
Y258594D02*
D03*
X254059Y365547D02*
D03*
Y371453D02*
D03*
X273941Y365547D02*
D03*
Y371453D02*
D03*
X201500Y339500D02*
D03*
Y345406D02*
D03*
X260000Y325500D02*
D03*
Y319595D02*
D03*
X201500Y351000D02*
D03*
Y356906D02*
D03*
X207750Y351000D02*
D03*
Y356906D02*
D03*
X131000Y372047D02*
D03*
Y377953D02*
D03*
X146000Y352547D02*
D03*
Y358453D02*
D03*
X184500Y347547D02*
D03*
Y353453D02*
D03*
D65*
X295260Y206500D02*
D03*
X273606D02*
D03*
X324000D02*
D03*
D66*
X321285Y264000D02*
D03*
Y254000D02*
D03*
Y244000D02*
D03*
X288000Y274000D02*
D03*
X314356Y303500D02*
D03*
X324356D02*
D03*
X314356Y313500D02*
D03*
X324356D02*
D03*
Y323500D02*
D03*
X314356Y333500D02*
D03*
X324356D02*
D03*
X314356Y323500D02*
D03*
X112000Y347000D02*
D03*
Y337000D02*
D03*
D67*
X278000Y274000D02*
D03*
D68*
X314356Y343500D02*
D03*
X324356D02*
D03*
X112000Y357000D02*
D03*
D69*
X109500Y425000D02*
D03*
X119500D02*
D03*
X129500D02*
D03*
X139500D02*
D03*
X149500D02*
D03*
X159500D02*
D03*
Y415000D02*
D03*
X149500D02*
D03*
X109500D02*
D03*
X119500D02*
D03*
X129500D02*
D03*
X139500D02*
D03*
X234500Y425000D02*
D03*
X244500D02*
D03*
X254500D02*
D03*
X264500D02*
D03*
X274500D02*
D03*
X284500D02*
D03*
X294500D02*
D03*
X304500D02*
D03*
X314500D02*
D03*
X324500D02*
D03*
Y415000D02*
D03*
X314500D02*
D03*
X304500D02*
D03*
X294500D02*
D03*
X284500D02*
D03*
X274500D02*
D03*
X264500D02*
D03*
X254500D02*
D03*
X244500D02*
D03*
X234500D02*
D03*
X224500Y425000D02*
D03*
X214500D02*
D03*
X204500D02*
D03*
X194500D02*
D03*
X184500D02*
D03*
X224500Y415000D02*
D03*
X214500D02*
D03*
X204500D02*
D03*
X194500D02*
D03*
X184500D02*
D03*
X115500Y115417D02*
D03*
D70*
X307500Y132000D02*
D03*
X303484Y139008D02*
D03*
X299468Y132000D02*
D03*
X295453Y139008D02*
D03*
X291437Y132000D02*
D03*
X287421Y139008D02*
D03*
X283405Y132000D02*
D03*
X279390Y139008D02*
D03*
X320453Y157984D02*
D03*
X311437D02*
D03*
X275453D02*
D03*
X266437D02*
D03*
X222000Y132000D02*
D03*
X217984Y139008D02*
D03*
X213968Y132000D02*
D03*
X209953Y139008D02*
D03*
X205937Y132000D02*
D03*
X201921Y139008D02*
D03*
X197906Y132000D02*
D03*
X193890Y139008D02*
D03*
X234953Y157984D02*
D03*
X225937D02*
D03*
X189953D02*
D03*
X180937D02*
D03*
D71*
X325433Y135504D02*
D03*
X261457D02*
D03*
X239933D02*
D03*
X175957D02*
D03*
D72*
X318445Y122000D02*
D03*
X268445D02*
D03*
X232945D02*
D03*
X182945D02*
D03*
M02*
