G04*
G04 #@! TF.GenerationSoftware,Altium Limited,Altium Designer,22.7.1 (60)*
G04*
G04 Layer_Color=16711935*
%FSLAX25Y25*%
%MOIN*%
G70*
G04*
G04 #@! TF.SameCoordinates,6E36C335-AD95-4225-A29B-AEAE8FB35011*
G04*
G04*
G04 #@! TF.FilePolarity,Positive*
G04*
G01*
G75*
%ADD16C,0.00787*%
G36*
X173980Y348107D02*
Y348103D01*
Y348088D01*
Y348070D01*
Y348045D01*
X173977Y348012D01*
Y347975D01*
X173973Y347932D01*
X173969Y347888D01*
X173958Y347790D01*
X173944Y347688D01*
X173922Y347590D01*
X173907Y347542D01*
X173893Y347499D01*
Y347495D01*
X173889Y347488D01*
X173882Y347477D01*
X173874Y347462D01*
X173853Y347422D01*
X173820Y347371D01*
X173776Y347313D01*
X173725Y347255D01*
X173660Y347193D01*
X173580Y347138D01*
X173576D01*
X173569Y347131D01*
X173558Y347127D01*
X173540Y347116D01*
X173518Y347106D01*
X173489Y347095D01*
X173460Y347084D01*
X173423Y347069D01*
X173383Y347055D01*
X173339Y347044D01*
X173292Y347033D01*
X173238Y347022D01*
X173183Y347014D01*
X173125Y347007D01*
X172994Y347000D01*
X172961D01*
X172935Y347004D01*
X172906D01*
X172870Y347007D01*
X172830Y347011D01*
X172790Y347014D01*
X172699Y347029D01*
X172600Y347051D01*
X172506Y347080D01*
X172415Y347120D01*
X172411D01*
X172404Y347127D01*
X172393Y347135D01*
X172379Y347142D01*
X172338Y347171D01*
X172291Y347211D01*
X172237Y347262D01*
X172186Y347320D01*
X172135Y347393D01*
X172095Y347473D01*
Y347477D01*
X172091Y347484D01*
X172087Y347499D01*
X172080Y347517D01*
X172073Y347539D01*
X172065Y347568D01*
X172055Y347601D01*
X172047Y347641D01*
X172040Y347684D01*
X172029Y347732D01*
X172022Y347782D01*
X172014Y347837D01*
X172007Y347899D01*
X172004Y347965D01*
X172000Y348034D01*
Y348107D01*
Y349563D01*
X172335D01*
Y348107D01*
Y348103D01*
Y348092D01*
Y348074D01*
Y348052D01*
X172338Y348026D01*
Y347994D01*
X172342Y347924D01*
X172349Y347844D01*
X172360Y347764D01*
X172375Y347688D01*
X172382Y347655D01*
X172393Y347622D01*
X172397Y347615D01*
X172404Y347597D01*
X172422Y347571D01*
X172444Y347535D01*
X172469Y347499D01*
X172506Y347459D01*
X172550Y347419D01*
X172600Y347386D01*
X172608Y347382D01*
X172626Y347371D01*
X172659Y347360D01*
X172703Y347346D01*
X172753Y347328D01*
X172819Y347317D01*
X172888Y347306D01*
X172965Y347302D01*
X173001D01*
X173023Y347306D01*
X173056D01*
X173088Y347309D01*
X173168Y347324D01*
X173256Y347342D01*
X173339Y347371D01*
X173420Y347411D01*
X173456Y347437D01*
X173489Y347466D01*
X173492Y347469D01*
X173496Y347473D01*
X173503Y347484D01*
X173514Y347499D01*
X173525Y347520D01*
X173540Y347542D01*
X173554Y347575D01*
X173569Y347608D01*
X173583Y347648D01*
X173594Y347695D01*
X173609Y347750D01*
X173620Y347808D01*
X173631Y347873D01*
X173638Y347943D01*
X173645Y348023D01*
Y348107D01*
Y349563D01*
X173980D01*
Y348107D01*
D02*
G37*
G36*
X175574Y347044D02*
X175265D01*
Y349013D01*
X175261Y349009D01*
X175243Y348995D01*
X175221Y348973D01*
X175185Y348947D01*
X175145Y348915D01*
X175094Y348878D01*
X175036Y348838D01*
X174970Y348798D01*
X174967D01*
X174963Y348795D01*
X174941Y348780D01*
X174905Y348762D01*
X174861Y348740D01*
X174810Y348714D01*
X174755Y348689D01*
X174701Y348663D01*
X174646Y348642D01*
Y348940D01*
X174650D01*
X174657Y348947D01*
X174672Y348951D01*
X174690Y348962D01*
X174712Y348973D01*
X174737Y348987D01*
X174799Y349024D01*
X174872Y349064D01*
X174945Y349115D01*
X175021Y349173D01*
X175098Y349235D01*
X175101Y349238D01*
X175105Y349242D01*
X175116Y349253D01*
X175130Y349264D01*
X175163Y349300D01*
X175207Y349344D01*
X175250Y349395D01*
X175298Y349453D01*
X175338Y349512D01*
X175374Y349573D01*
X175574D01*
Y347044D01*
D02*
G37*
G54D16*
X164756Y340622D02*
Y353378D01*
Y340622D02*
X179244D01*
Y353378D01*
X164756D02*
X179244D01*
M02*
