G04*
G04 #@! TF.GenerationSoftware,Altium Limited,Altium Designer,22.4.2 (48)*
G04*
G04 Layer_Color=2752767*
%FSLAX25Y25*%
%MOIN*%
G70*
G04*
G04 #@! TF.SameCoordinates,D4827CC2-CCBD-4F76-BBD4-9D2AE6A5A8F2*
G04*
G04*
G04 #@! TF.FilePolarity,Positive*
G04*
G01*
G75*
%ADD84C,0.00200*%
%ADD85C,0.00267*%
%ADD86C,0.00133*%
D84*
X294460Y205700D02*
Y207300D01*
X296060D01*
Y205700D01*
X294460D01*
X272806D02*
Y207300D01*
X274406D01*
Y205700D01*
X272806D01*
X321285Y263200D02*
X320485Y264800D01*
X322085D01*
X321285Y263200D01*
Y253200D02*
X320485Y254800D01*
X322085D01*
X321285Y253200D01*
Y243200D02*
X320485Y244800D01*
X322085D01*
X321285Y243200D01*
X288000Y273200D02*
X288400Y273600D01*
X288800D01*
X288400Y274000D01*
X288800Y274400D01*
X288400D01*
X288000Y274800D01*
X287600Y274400D01*
X287200D01*
X287600Y274000D01*
X287200Y273600D01*
X287600D01*
X288000Y273200D01*
X278000D02*
X278400Y273600D01*
X278800D01*
X278400Y274000D01*
X278800Y274400D01*
X278400D01*
X278000Y274800D01*
X277600Y274400D01*
X277200D01*
X277600Y274000D01*
X277200Y273600D01*
X277600D01*
X278000Y273200D01*
X313556Y302700D02*
X313956Y303500D01*
X313556Y304300D01*
X314356Y303900D01*
X315156Y304300D01*
X314756Y303500D01*
X315156Y302700D01*
X314356Y303100D01*
X313556Y302700D01*
X323556D02*
X323956Y303500D01*
X323556Y304300D01*
X324356Y303900D01*
X325156Y304300D01*
X324756Y303500D01*
X325156Y302700D01*
X324356Y303100D01*
X323556Y302700D01*
X313556Y312700D02*
X313956Y313500D01*
X313556Y314300D01*
X314356Y313900D01*
X315156Y314300D01*
X314756Y313500D01*
X315156Y312700D01*
X314356Y313100D01*
X313556Y312700D01*
X323556D02*
X323956Y313500D01*
X323556Y314300D01*
X324356Y313900D01*
X325156Y314300D01*
X324756Y313500D01*
X325156Y312700D01*
X324356Y313100D01*
X323556Y312700D01*
Y322700D02*
X323956Y323500D01*
X323556Y324300D01*
X324356Y323900D01*
X325156Y324300D01*
X324756Y323500D01*
X325156Y322700D01*
X324356Y323100D01*
X323556Y322700D01*
X313556Y332700D02*
X313956Y333500D01*
X313556Y334300D01*
X314356Y333900D01*
X315156Y334300D01*
X314756Y333500D01*
X315156Y332700D01*
X314356Y333100D01*
X313556Y332700D01*
X323556D02*
X323956Y333500D01*
X323556Y334300D01*
X324356Y333900D01*
X325156Y334300D01*
X324756Y333500D01*
X325156Y332700D01*
X324356Y333100D01*
X323556Y332700D01*
X313556Y342700D02*
X313956Y343500D01*
X313556Y344300D01*
X314356Y343900D01*
X315156Y344300D01*
X314756Y343500D01*
X315156Y342700D01*
X314356Y343100D01*
X313556Y342700D01*
X323556D02*
X323956Y343500D01*
X323556Y344300D01*
X324356Y343900D01*
X325156Y344300D01*
X324756Y343500D01*
X325156Y342700D01*
X324356Y343100D01*
X323556Y342700D01*
X313556Y322700D02*
X313956Y323500D01*
X313556Y324300D01*
X314356Y323900D01*
X315156Y324300D01*
X314756Y323500D01*
X315156Y322700D01*
X314356Y323100D01*
X313556Y322700D01*
X112000Y356200D02*
X112400Y356600D01*
X112800D01*
X112400Y357000D01*
X112800Y357400D01*
X112400D01*
X112000Y357800D01*
X111600Y357400D01*
X111200D01*
X111600Y357000D01*
X111200Y356600D01*
X111600D01*
X112000Y356200D01*
Y346200D02*
X112400Y346600D01*
X112800D01*
X112400Y347000D01*
X112800Y347400D01*
X112400D01*
X112000Y347800D01*
X111600Y347400D01*
X111200D01*
X111600Y347000D01*
X111200Y346600D01*
X111600D01*
X112000Y346200D01*
Y336200D02*
X112400Y336600D01*
X112800D01*
X112400Y337000D01*
X112800Y337400D01*
X112400D01*
X112000Y337800D01*
X111600Y337400D01*
X111200D01*
X111600Y337000D01*
X111200Y336600D01*
X111600D01*
X112000Y336200D01*
X109100Y424600D02*
Y424200D01*
X109900D01*
Y424600D01*
X110300D01*
Y425400D01*
X109900D01*
Y425800D01*
X109100D01*
Y425400D01*
X108700D01*
Y424600D01*
X109100D01*
X119100D02*
Y424200D01*
X119900D01*
Y424600D01*
X120300D01*
Y425400D01*
X119900D01*
Y425800D01*
X119100D01*
Y425400D01*
X118700D01*
Y424600D01*
X119100D01*
X129100D02*
Y424200D01*
X129900D01*
Y424600D01*
X130300D01*
Y425400D01*
X129900D01*
Y425800D01*
X129100D01*
Y425400D01*
X128700D01*
Y424600D01*
X129100D01*
X139100D02*
Y424200D01*
X139900D01*
Y424600D01*
X140300D01*
Y425400D01*
X139900D01*
Y425800D01*
X139100D01*
Y425400D01*
X138700D01*
Y424600D01*
X139100D01*
X149100D02*
Y424200D01*
X149900D01*
Y424600D01*
X150300D01*
Y425400D01*
X149900D01*
Y425800D01*
X149100D01*
Y425400D01*
X148700D01*
Y424600D01*
X149100D01*
X159100D02*
Y424200D01*
X159900D01*
Y424600D01*
X160300D01*
Y425400D01*
X159900D01*
Y425800D01*
X159100D01*
Y425400D01*
X158700D01*
Y424600D01*
X159100D01*
Y414600D02*
Y414200D01*
X159900D01*
Y414600D01*
X160300D01*
Y415400D01*
X159900D01*
Y415800D01*
X159100D01*
Y415400D01*
X158700D01*
Y414600D01*
X159100D01*
X149100D02*
Y414200D01*
X149900D01*
Y414600D01*
X150300D01*
Y415400D01*
X149900D01*
Y415800D01*
X149100D01*
Y415400D01*
X148700D01*
Y414600D01*
X149100D01*
X109100D02*
Y414200D01*
X109900D01*
Y414600D01*
X110300D01*
Y415400D01*
X109900D01*
Y415800D01*
X109100D01*
Y415400D01*
X108700D01*
Y414600D01*
X109100D01*
X119100D02*
Y414200D01*
X119900D01*
Y414600D01*
X120300D01*
Y415400D01*
X119900D01*
Y415800D01*
X119100D01*
Y415400D01*
X118700D01*
Y414600D01*
X119100D01*
X129100D02*
Y414200D01*
X129900D01*
Y414600D01*
X130300D01*
Y415400D01*
X129900D01*
Y415800D01*
X129100D01*
Y415400D01*
X128700D01*
Y414600D01*
X129100D01*
X139100D02*
Y414200D01*
X139900D01*
Y414600D01*
X140300D01*
Y415400D01*
X139900D01*
Y415800D01*
X139100D01*
Y415400D01*
X138700D01*
Y414600D01*
X139100D01*
X307500Y131200D02*
X307900Y131600D01*
X308300D01*
X307900Y132000D01*
X308300Y132400D01*
X307900D01*
X307500Y132800D01*
X307100Y132400D01*
X306700D01*
X307100Y132000D01*
X306700Y131600D01*
X307100D01*
X307500Y131200D01*
X303484Y138208D02*
X303884Y138608D01*
X304284D01*
X303884Y139008D01*
X304284Y139408D01*
X303884D01*
X303484Y139808D01*
X303084Y139408D01*
X302684D01*
X303084Y139008D01*
X302684Y138608D01*
X303084D01*
X303484Y138208D01*
X299468Y131200D02*
X299868Y131600D01*
X300269D01*
X299868Y132000D01*
X300269Y132400D01*
X299868D01*
X299468Y132800D01*
X299068Y132400D01*
X298669D01*
X299068Y132000D01*
X298669Y131600D01*
X299068D01*
X299468Y131200D01*
X295453Y138208D02*
X295853Y138608D01*
X296253D01*
X295853Y139008D01*
X296253Y139408D01*
X295853D01*
X295453Y139808D01*
X295053Y139408D01*
X294653D01*
X295053Y139008D01*
X294653Y138608D01*
X295053D01*
X295453Y138208D01*
X291437Y131200D02*
X291837Y131600D01*
X292237D01*
X291837Y132000D01*
X292237Y132400D01*
X291837D01*
X291437Y132800D01*
X291037Y132400D01*
X290637D01*
X291037Y132000D01*
X290637Y131600D01*
X291037D01*
X291437Y131200D01*
X287421Y138208D02*
X287821Y138608D01*
X288221D01*
X287821Y139008D01*
X288221Y139408D01*
X287821D01*
X287421Y139808D01*
X287021Y139408D01*
X286621D01*
X287021Y139008D01*
X286621Y138608D01*
X287021D01*
X287421Y138208D01*
X283405Y131200D02*
X283805Y131600D01*
X284206D01*
X283805Y132000D01*
X284206Y132400D01*
X283805D01*
X283405Y132800D01*
X283005Y132400D01*
X282606D01*
X283005Y132000D01*
X282606Y131600D01*
X283005D01*
X283405Y131200D01*
X279390Y138208D02*
X279790Y138608D01*
X280190D01*
X279790Y139008D01*
X280190Y139408D01*
X279790D01*
X279390Y139808D01*
X278990Y139408D01*
X278590D01*
X278990Y139008D01*
X278590Y138608D01*
X278990D01*
X279390Y138208D01*
X320453Y157184D02*
X320853Y157584D01*
X321253D01*
X320853Y157984D01*
X321253Y158384D01*
X320853D01*
X320453Y158784D01*
X320053Y158384D01*
X319653D01*
X320053Y157984D01*
X319653Y157584D01*
X320053D01*
X320453Y157184D01*
X311437D02*
X311837Y157584D01*
X312237D01*
X311837Y157984D01*
X312237Y158384D01*
X311837D01*
X311437Y158784D01*
X311037Y158384D01*
X310637D01*
X311037Y157984D01*
X310637Y157584D01*
X311037D01*
X311437Y157184D01*
X275453D02*
X275853Y157584D01*
X276253D01*
X275853Y157984D01*
X276253Y158384D01*
X275853D01*
X275453Y158784D01*
X275053Y158384D01*
X274653D01*
X275053Y157984D01*
X274653Y157584D01*
X275053D01*
X275453Y157184D01*
X266437D02*
X266837Y157584D01*
X267237D01*
X266837Y157984D01*
X267237Y158384D01*
X266837D01*
X266437Y158784D01*
X266037Y158384D01*
X265637D01*
X266037Y157984D01*
X265637Y157584D01*
X266037D01*
X266437Y157184D01*
X324633Y134704D02*
X325033D01*
X325433Y135104D01*
X325833Y134704D01*
X326233D01*
Y135104D01*
X325833Y135504D01*
X326233Y135904D01*
Y136304D01*
X325833D01*
X325433Y135904D01*
X325033Y136304D01*
X324633D01*
Y135904D01*
X325033Y135504D01*
X324633Y135104D01*
Y134704D01*
X260657D02*
X261057D01*
X261457Y135104D01*
X261857Y134704D01*
X262257D01*
Y135104D01*
X261857Y135504D01*
X262257Y135904D01*
Y136304D01*
X261857D01*
X261457Y135904D01*
X261057Y136304D01*
X260657D01*
Y135904D01*
X261057Y135504D01*
X260657Y135104D01*
Y134704D01*
X317645Y122000D02*
X318445Y122800D01*
X319245Y122000D01*
X318445Y121200D01*
X317645Y122000D01*
X267645D02*
X268445Y122800D01*
X269245Y122000D01*
X268445Y121200D01*
X267645Y122000D01*
X222000Y131200D02*
X222400Y131600D01*
X222800D01*
X222400Y132000D01*
X222800Y132400D01*
X222400D01*
X222000Y132800D01*
X221600Y132400D01*
X221200D01*
X221600Y132000D01*
X221200Y131600D01*
X221600D01*
X222000Y131200D01*
X217984Y138208D02*
X218384Y138608D01*
X218784D01*
X218384Y139008D01*
X218784Y139408D01*
X218384D01*
X217984Y139808D01*
X217584Y139408D01*
X217184D01*
X217584Y139008D01*
X217184Y138608D01*
X217584D01*
X217984Y138208D01*
X213968Y131200D02*
X214369Y131600D01*
X214769D01*
X214369Y132000D01*
X214769Y132400D01*
X214369D01*
X213968Y132800D01*
X213568Y132400D01*
X213169D01*
X213568Y132000D01*
X213169Y131600D01*
X213568D01*
X213968Y131200D01*
X209953Y138208D02*
X210353Y138608D01*
X210753D01*
X210353Y139008D01*
X210753Y139408D01*
X210353D01*
X209953Y139808D01*
X209553Y139408D01*
X209153D01*
X209553Y139008D01*
X209153Y138608D01*
X209553D01*
X209953Y138208D01*
X205937Y131200D02*
X206337Y131600D01*
X206737D01*
X206337Y132000D01*
X206737Y132400D01*
X206337D01*
X205937Y132800D01*
X205537Y132400D01*
X205137D01*
X205537Y132000D01*
X205137Y131600D01*
X205537D01*
X205937Y131200D01*
X201921Y138208D02*
X202321Y138608D01*
X202721D01*
X202321Y139008D01*
X202721Y139408D01*
X202321D01*
X201921Y139808D01*
X201521Y139408D01*
X201121D01*
X201521Y139008D01*
X201121Y138608D01*
X201521D01*
X201921Y138208D01*
X197906Y131200D02*
X198305Y131600D01*
X198705D01*
X198305Y132000D01*
X198705Y132400D01*
X198305D01*
X197906Y132800D01*
X197505Y132400D01*
X197106D01*
X197505Y132000D01*
X197106Y131600D01*
X197505D01*
X197906Y131200D01*
X193890Y138208D02*
X194290Y138608D01*
X194690D01*
X194290Y139008D01*
X194690Y139408D01*
X194290D01*
X193890Y139808D01*
X193490Y139408D01*
X193090D01*
X193490Y139008D01*
X193090Y138608D01*
X193490D01*
X193890Y138208D01*
X234953Y157184D02*
X235353Y157584D01*
X235753D01*
X235353Y157984D01*
X235753Y158384D01*
X235353D01*
X234953Y158784D01*
X234553Y158384D01*
X234153D01*
X234553Y157984D01*
X234153Y157584D01*
X234553D01*
X234953Y157184D01*
X225937D02*
X226337Y157584D01*
X226737D01*
X226337Y157984D01*
X226737Y158384D01*
X226337D01*
X225937Y158784D01*
X225537Y158384D01*
X225137D01*
X225537Y157984D01*
X225137Y157584D01*
X225537D01*
X225937Y157184D01*
X189953D02*
X190353Y157584D01*
X190753D01*
X190353Y157984D01*
X190753Y158384D01*
X190353D01*
X189953Y158784D01*
X189553Y158384D01*
X189153D01*
X189553Y157984D01*
X189153Y157584D01*
X189553D01*
X189953Y157184D01*
X180937D02*
X181337Y157584D01*
X181737D01*
X181337Y157984D01*
X181737Y158384D01*
X181337D01*
X180937Y158784D01*
X180537Y158384D01*
X180137D01*
X180537Y157984D01*
X180137Y157584D01*
X180537D01*
X180937Y157184D01*
X239133Y134704D02*
X239533D01*
X239933Y135104D01*
X240333Y134704D01*
X240733D01*
Y135104D01*
X240333Y135504D01*
X240733Y135904D01*
Y136304D01*
X240333D01*
X239933Y135904D01*
X239533Y136304D01*
X239133D01*
Y135904D01*
X239533Y135504D01*
X239133Y135104D01*
Y134704D01*
X175157D02*
X175557D01*
X175957Y135104D01*
X176357Y134704D01*
X176757D01*
Y135104D01*
X176357Y135504D01*
X176757Y135904D01*
Y136304D01*
X176357D01*
X175957Y135904D01*
X175557Y136304D01*
X175157D01*
Y135904D01*
X175557Y135504D01*
X175157Y135104D01*
Y134704D01*
X232145Y122000D02*
X232945Y122800D01*
X233745Y122000D01*
X232945Y121200D01*
X232145Y122000D01*
X182145D02*
X182945Y122800D01*
X183745Y122000D01*
X182945Y121200D01*
X182145Y122000D01*
X234100Y424600D02*
Y424200D01*
X234900D01*
Y424600D01*
X235300D01*
Y425400D01*
X234900D01*
Y425800D01*
X234100D01*
Y425400D01*
X233700D01*
Y424600D01*
X234100D01*
X244100D02*
Y424200D01*
X244900D01*
Y424600D01*
X245300D01*
Y425400D01*
X244900D01*
Y425800D01*
X244100D01*
Y425400D01*
X243700D01*
Y424600D01*
X244100D01*
X254100D02*
Y424200D01*
X254900D01*
Y424600D01*
X255300D01*
Y425400D01*
X254900D01*
Y425800D01*
X254100D01*
Y425400D01*
X253700D01*
Y424600D01*
X254100D01*
X264100D02*
Y424200D01*
X264900D01*
Y424600D01*
X265300D01*
Y425400D01*
X264900D01*
Y425800D01*
X264100D01*
Y425400D01*
X263700D01*
Y424600D01*
X264100D01*
X274100D02*
Y424200D01*
X274900D01*
Y424600D01*
X275300D01*
Y425400D01*
X274900D01*
Y425800D01*
X274100D01*
Y425400D01*
X273700D01*
Y424600D01*
X274100D01*
X284100D02*
Y424200D01*
X284900D01*
Y424600D01*
X285300D01*
Y425400D01*
X284900D01*
Y425800D01*
X284100D01*
Y425400D01*
X283700D01*
Y424600D01*
X284100D01*
X294100D02*
Y424200D01*
X294900D01*
Y424600D01*
X295300D01*
Y425400D01*
X294900D01*
Y425800D01*
X294100D01*
Y425400D01*
X293700D01*
Y424600D01*
X294100D01*
X304100D02*
Y424200D01*
X304900D01*
Y424600D01*
X305300D01*
Y425400D01*
X304900D01*
Y425800D01*
X304100D01*
Y425400D01*
X303700D01*
Y424600D01*
X304100D01*
X314100D02*
Y424200D01*
X314900D01*
Y424600D01*
X315300D01*
Y425400D01*
X314900D01*
Y425800D01*
X314100D01*
Y425400D01*
X313700D01*
Y424600D01*
X314100D01*
X324100D02*
Y424200D01*
X324900D01*
Y424600D01*
X325300D01*
Y425400D01*
X324900D01*
Y425800D01*
X324100D01*
Y425400D01*
X323700D01*
Y424600D01*
X324100D01*
Y414600D02*
Y414200D01*
X324900D01*
Y414600D01*
X325300D01*
Y415400D01*
X324900D01*
Y415800D01*
X324100D01*
Y415400D01*
X323700D01*
Y414600D01*
X324100D01*
X314100D02*
Y414200D01*
X314900D01*
Y414600D01*
X315300D01*
Y415400D01*
X314900D01*
Y415800D01*
X314100D01*
Y415400D01*
X313700D01*
Y414600D01*
X314100D01*
X304100D02*
Y414200D01*
X304900D01*
Y414600D01*
X305300D01*
Y415400D01*
X304900D01*
Y415800D01*
X304100D01*
Y415400D01*
X303700D01*
Y414600D01*
X304100D01*
X294100D02*
Y414200D01*
X294900D01*
Y414600D01*
X295300D01*
Y415400D01*
X294900D01*
Y415800D01*
X294100D01*
Y415400D01*
X293700D01*
Y414600D01*
X294100D01*
X284100D02*
Y414200D01*
X284900D01*
Y414600D01*
X285300D01*
Y415400D01*
X284900D01*
Y415800D01*
X284100D01*
Y415400D01*
X283700D01*
Y414600D01*
X284100D01*
X274100D02*
Y414200D01*
X274900D01*
Y414600D01*
X275300D01*
Y415400D01*
X274900D01*
Y415800D01*
X274100D01*
Y415400D01*
X273700D01*
Y414600D01*
X274100D01*
X264100D02*
Y414200D01*
X264900D01*
Y414600D01*
X265300D01*
Y415400D01*
X264900D01*
Y415800D01*
X264100D01*
Y415400D01*
X263700D01*
Y414600D01*
X264100D01*
X254100D02*
Y414200D01*
X254900D01*
Y414600D01*
X255300D01*
Y415400D01*
X254900D01*
Y415800D01*
X254100D01*
Y415400D01*
X253700D01*
Y414600D01*
X254100D01*
X244100D02*
Y414200D01*
X244900D01*
Y414600D01*
X245300D01*
Y415400D01*
X244900D01*
Y415800D01*
X244100D01*
Y415400D01*
X243700D01*
Y414600D01*
X244100D01*
X234100D02*
Y414200D01*
X234900D01*
Y414600D01*
X235300D01*
Y415400D01*
X234900D01*
Y415800D01*
X234100D01*
Y415400D01*
X233700D01*
Y414600D01*
X234100D01*
X224100Y424600D02*
Y424200D01*
X224900D01*
Y424600D01*
X225300D01*
Y425400D01*
X224900D01*
Y425800D01*
X224100D01*
Y425400D01*
X223700D01*
Y424600D01*
X224100D01*
X214100D02*
Y424200D01*
X214900D01*
Y424600D01*
X215300D01*
Y425400D01*
X214900D01*
Y425800D01*
X214100D01*
Y425400D01*
X213700D01*
Y424600D01*
X214100D01*
X204100D02*
Y424200D01*
X204900D01*
Y424600D01*
X205300D01*
Y425400D01*
X204900D01*
Y425800D01*
X204100D01*
Y425400D01*
X203700D01*
Y424600D01*
X204100D01*
X194100D02*
Y424200D01*
X194900D01*
Y424600D01*
X195300D01*
Y425400D01*
X194900D01*
Y425800D01*
X194100D01*
Y425400D01*
X193700D01*
Y424600D01*
X194100D01*
X184100D02*
Y424200D01*
X184900D01*
Y424600D01*
X185300D01*
Y425400D01*
X184900D01*
Y425800D01*
X184100D01*
Y425400D01*
X183700D01*
Y424600D01*
X184100D01*
X224100Y414600D02*
Y414200D01*
X224900D01*
Y414600D01*
X225300D01*
Y415400D01*
X224900D01*
Y415800D01*
X224100D01*
Y415400D01*
X223700D01*
Y414600D01*
X224100D01*
X214100D02*
Y414200D01*
X214900D01*
Y414600D01*
X215300D01*
Y415400D01*
X214900D01*
Y415800D01*
X214100D01*
Y415400D01*
X213700D01*
Y414600D01*
X214100D01*
X204100D02*
Y414200D01*
X204900D01*
Y414600D01*
X205300D01*
Y415400D01*
X204900D01*
Y415800D01*
X204100D01*
Y415400D01*
X203700D01*
Y414600D01*
X204100D01*
X194100D02*
Y414200D01*
X194900D01*
Y414600D01*
X195300D01*
Y415400D01*
X194900D01*
Y415800D01*
X194100D01*
Y415400D01*
X193700D01*
Y414600D01*
X194100D01*
X184100D02*
Y414200D01*
X184900D01*
Y414600D01*
X185300D01*
Y415400D01*
X184900D01*
Y415800D01*
X184100D01*
Y415400D01*
X183700D01*
Y414600D01*
X184100D01*
X114700Y114617D02*
Y116217D01*
X116300D01*
Y114617D01*
X114700D01*
X115100Y115017D02*
Y115817D01*
X115900D01*
Y115017D01*
X115100D01*
X211500Y199200D02*
X210700Y200800D01*
X212300D01*
X211500Y199200D01*
Y199600D02*
X211100Y200400D01*
X211900D01*
X211500Y199600D01*
X257429Y295700D02*
X256628Y297300D01*
X258228D01*
X257429Y295700D01*
Y296100D02*
X257029Y296900D01*
X257828D01*
X257429Y296100D01*
X245000Y303700D02*
X244200Y305300D01*
X245800D01*
X245000Y303700D01*
Y304100D02*
X244600Y304900D01*
X245400D01*
X245000Y304100D01*
X245000Y295700D02*
X244200Y297300D01*
X245800D01*
X245000Y295700D01*
Y296100D02*
X244600Y296900D01*
X245400D01*
X245000Y296100D01*
X251214Y295700D02*
X250414Y297300D01*
X252014D01*
X251214Y295700D01*
Y296100D02*
X250814Y296900D01*
X251614D01*
X251214Y296100D01*
X220926Y240301D02*
X220126Y241901D01*
X221726D01*
X220926Y240301D01*
Y240701D02*
X220526Y241501D01*
X221326D01*
X220926Y240701D01*
X257429Y303700D02*
X256628Y305300D01*
X258228D01*
X257429Y303700D01*
Y304100D02*
X257029Y304900D01*
X257828D01*
X257429Y304100D01*
X251214Y303700D02*
X250414Y305300D01*
X252014D01*
X251214Y303700D01*
Y304100D02*
X250814Y304900D01*
X251614D01*
X251214Y304100D01*
D85*
X324800Y206500D02*
X324247Y207261D01*
X323353Y206970D01*
Y206030D01*
X324247Y205739D01*
X324800Y206500D01*
X190300Y353000D02*
X189747Y353761D01*
X188853Y353470D01*
Y352530D01*
X189747Y352239D01*
X190300Y353000D01*
X199800Y248000D02*
X199247Y248761D01*
X198353Y248470D01*
Y247530D01*
X199247Y247239D01*
X199800Y248000D01*
X268800Y256000D02*
X268247Y256761D01*
X267353Y256470D01*
Y255530D01*
X268247Y255239D01*
X268800Y256000D01*
X139300Y211000D02*
X138747Y211761D01*
X137853Y211470D01*
Y210530D01*
X138747Y210239D01*
X139300Y211000D01*
X119300D02*
X118747Y211761D01*
X117853Y211470D01*
Y210530D01*
X118747Y210239D01*
X119300Y211000D01*
X159240Y210945D02*
X158687Y211706D01*
X157792Y211415D01*
Y210475D01*
X158687Y210184D01*
X159240Y210945D01*
X179300Y111500D02*
X178747Y112261D01*
X177853Y111970D01*
Y111030D01*
X178747Y110739D01*
X179300Y111500D01*
X146800Y239000D02*
X146247Y239761D01*
X145353Y239470D01*
Y238530D01*
X146247Y238239D01*
X146800Y239000D01*
X199240Y210945D02*
X198687Y211706D01*
X197792Y211415D01*
Y210475D01*
X198687Y210184D01*
X199240Y210945D01*
X284300Y225000D02*
X283747Y225761D01*
X282853Y225470D01*
Y224530D01*
X283747Y224239D01*
X284300Y225000D01*
X185300Y342500D02*
X184747Y343261D01*
X183853Y342970D01*
Y342030D01*
X184747Y341739D01*
X185300Y342500D01*
X220800Y308000D02*
X220247Y308761D01*
X219353Y308470D01*
Y307530D01*
X220247Y307239D01*
X220800Y308000D01*
X196800Y341280D02*
X196247Y342040D01*
X195353Y341750D01*
Y340809D01*
X196247Y340519D01*
X196800Y341280D01*
X191300Y328000D02*
X190747Y328761D01*
X189853Y328470D01*
Y327530D01*
X190747Y327239D01*
X191300Y328000D01*
X167800Y338500D02*
X167247Y339261D01*
X166353Y338970D01*
Y338030D01*
X167247Y337739D01*
X167800Y338500D01*
X167300Y356000D02*
X166747Y356761D01*
X165853Y356470D01*
Y355530D01*
X166747Y355239D01*
X167300Y356000D01*
X260800Y330500D02*
X260247Y331261D01*
X259353Y330970D01*
Y330030D01*
X260247Y329739D01*
X260800Y330500D01*
X255800Y320500D02*
X255247Y321261D01*
X254353Y320970D01*
Y320030D01*
X255247Y319739D01*
X255800Y320500D01*
X248800Y316000D02*
X248247Y316761D01*
X247353Y316470D01*
Y315530D01*
X248247Y315239D01*
X248800Y316000D01*
X252800Y317500D02*
X252247Y318261D01*
X251353Y317970D01*
Y317030D01*
X252247Y316739D01*
X252800Y317500D01*
X244800Y314500D02*
X244247Y315261D01*
X243353Y314970D01*
Y314030D01*
X244247Y313739D01*
X244800Y314500D01*
X236800Y329000D02*
X236247Y329761D01*
X235353Y329470D01*
Y328530D01*
X236247Y328239D01*
X236800Y329000D01*
X239800Y332500D02*
X239247Y333261D01*
X238353Y332970D01*
Y332030D01*
X239247Y331739D01*
X239800Y332500D01*
X233800Y326000D02*
X233247Y326761D01*
X232353Y326470D01*
Y325530D01*
X233247Y325239D01*
X233800Y326000D01*
X221800Y336000D02*
X221247Y336761D01*
X220353Y336470D01*
Y335530D01*
X221247Y335239D01*
X221800Y336000D01*
X230300Y323500D02*
X229747Y324261D01*
X228853Y323970D01*
Y323030D01*
X229747Y322739D01*
X230300Y323500D01*
X227800Y327500D02*
X227247Y328261D01*
X226353Y327970D01*
Y327030D01*
X227247Y326739D01*
X227800Y327500D01*
X224800Y331000D02*
X224247Y331761D01*
X223353Y331470D01*
Y330530D01*
X224247Y330239D01*
X224800Y331000D01*
X218060Y333198D02*
X217507Y333959D01*
X216612Y333668D01*
Y332727D01*
X217507Y332437D01*
X218060Y333198D01*
X247300Y220500D02*
X246747Y221261D01*
X245853Y220970D01*
Y220030D01*
X246747Y219739D01*
X247300Y220500D01*
X178300Y342500D02*
X177747Y343261D01*
X176853Y342970D01*
Y342030D01*
X177747Y341739D01*
X178300Y342500D01*
X289300Y253500D02*
X288747Y254261D01*
X287853Y253970D01*
Y253030D01*
X288747Y252739D01*
X289300Y253500D01*
X251740Y191945D02*
X251187Y192706D01*
X250292Y192415D01*
Y191475D01*
X251187Y191184D01*
X251740Y191945D01*
X265240Y282945D02*
X264687Y283706D01*
X263792Y283415D01*
Y282475D01*
X264687Y282184D01*
X265240Y282945D01*
X179240Y210945D02*
X178687Y211706D01*
X177793Y211415D01*
Y210475D01*
X178687Y210184D01*
X179240Y210945D01*
X265240Y371445D02*
X264687Y372206D01*
X263792Y371915D01*
Y370975D01*
X264687Y370684D01*
X265240Y371445D01*
X197300Y357000D02*
X196747Y357761D01*
X195853Y357470D01*
Y356530D01*
X196747Y356239D01*
X197300Y357000D01*
X242992Y335808D02*
X242440Y336568D01*
X241545Y336278D01*
Y335337D01*
X242440Y335047D01*
X242992Y335808D01*
X265800Y319500D02*
X265247Y320261D01*
X264353Y319970D01*
Y319030D01*
X265247Y318739D01*
X265800Y319500D01*
X122800Y277500D02*
X122247Y278261D01*
X121353Y277970D01*
Y277030D01*
X122247Y276739D01*
X122800Y277500D01*
Y272500D02*
X122247Y273261D01*
X121353Y272970D01*
Y272030D01*
X122247Y271739D01*
X122800Y272500D01*
Y267500D02*
X122247Y268261D01*
X121353Y267970D01*
Y267030D01*
X122247Y266739D01*
X122800Y267500D01*
X161800Y254500D02*
X161247Y255261D01*
X160353Y254970D01*
Y254030D01*
X161247Y253739D01*
X161800Y254500D01*
X152240Y358898D02*
X151687Y359659D01*
X150793Y359368D01*
Y358428D01*
X151687Y358137D01*
X152240Y358898D01*
X145740Y389945D02*
X145187Y390706D01*
X144292Y390415D01*
Y389475D01*
X145187Y389184D01*
X145740Y389945D01*
X152800Y311500D02*
X152247Y312261D01*
X151353Y311970D01*
Y311030D01*
X152247Y310739D01*
X152800Y311500D01*
X184300Y264000D02*
X183747Y264761D01*
X182853Y264470D01*
Y263530D01*
X183747Y263239D01*
X184300Y264000D01*
X141300Y306500D02*
X140747Y307261D01*
X139853Y306970D01*
Y306030D01*
X140747Y305739D01*
X141300Y306500D01*
X173300Y270000D02*
X172747Y270761D01*
X171853Y270470D01*
Y269530D01*
X172747Y269239D01*
X173300Y270000D01*
X231300Y287500D02*
X230747Y288261D01*
X229853Y287970D01*
Y287030D01*
X230747Y286739D01*
X231300Y287500D01*
X229300Y298000D02*
X228747Y298761D01*
X227853Y298470D01*
Y297530D01*
X228747Y297239D01*
X229300Y298000D01*
X193300Y282500D02*
X192747Y283261D01*
X191853Y282970D01*
Y282030D01*
X192747Y281739D01*
X193300Y282500D01*
X107300Y262500D02*
X106747Y263261D01*
X105853Y262970D01*
Y262030D01*
X106747Y261739D01*
X107300Y262500D01*
Y292500D02*
X106747Y293261D01*
X105853Y292970D01*
Y292030D01*
X106747Y291739D01*
X107300Y292500D01*
X207300Y344000D02*
X206747Y344761D01*
X205853Y344470D01*
Y343530D01*
X206747Y343239D01*
X207300Y344000D01*
X197300Y351000D02*
X196747Y351761D01*
X195853Y351470D01*
Y350530D01*
X196747Y350239D01*
X197300Y351000D01*
D86*
X189900Y353000D02*
X189300Y353346D01*
Y352654D01*
X189900Y353000D01*
X199400Y248000D02*
X198800Y248346D01*
Y247654D01*
X199400Y248000D01*
X268400Y256000D02*
X267800Y256346D01*
Y255654D01*
X268400Y256000D01*
X138900Y211000D02*
X138300Y211346D01*
Y210654D01*
X138900Y211000D01*
X118900D02*
X118300Y211346D01*
Y210654D01*
X118900Y211000D01*
X158840Y210945D02*
X158240Y211292D01*
Y210599D01*
X158840Y210945D01*
X178900Y111500D02*
X178300Y111846D01*
Y111154D01*
X178900Y111500D01*
X146400Y239000D02*
X145800Y239346D01*
Y238654D01*
X146400Y239000D01*
X198840Y210945D02*
X198240Y211292D01*
Y210599D01*
X198840Y210945D01*
X283900Y225000D02*
X283300Y225346D01*
Y224654D01*
X283900Y225000D01*
X184900Y342500D02*
X184300Y342846D01*
Y342154D01*
X184900Y342500D01*
X220400Y308000D02*
X219800Y308346D01*
Y307654D01*
X220400Y308000D01*
X196400Y341280D02*
X195800Y341626D01*
Y340933D01*
X196400Y341280D01*
X190900Y328000D02*
X190300Y328346D01*
Y327654D01*
X190900Y328000D01*
X167400Y338500D02*
X166800Y338846D01*
Y338154D01*
X167400Y338500D01*
X166900Y356000D02*
X166300Y356346D01*
Y355654D01*
X166900Y356000D01*
X260400Y330500D02*
X259800Y330846D01*
Y330154D01*
X260400Y330500D01*
X255400Y320500D02*
X254800Y320846D01*
Y320154D01*
X255400Y320500D01*
X248400Y316000D02*
X247800Y316346D01*
Y315654D01*
X248400Y316000D01*
X252400Y317500D02*
X251800Y317846D01*
Y317154D01*
X252400Y317500D01*
X244400Y314500D02*
X243800Y314846D01*
Y314154D01*
X244400Y314500D01*
X236400Y329000D02*
X235800Y329346D01*
Y328654D01*
X236400Y329000D01*
X239400Y332500D02*
X238800Y332846D01*
Y332154D01*
X239400Y332500D01*
X233400Y326000D02*
X232800Y326346D01*
Y325654D01*
X233400Y326000D01*
X221400Y336000D02*
X220800Y336346D01*
Y335654D01*
X221400Y336000D01*
X229900Y323500D02*
X229300Y323846D01*
Y323154D01*
X229900Y323500D01*
X227400Y327500D02*
X226800Y327846D01*
Y327154D01*
X227400Y327500D01*
X224400Y331000D02*
X223800Y331346D01*
Y330654D01*
X224400Y331000D01*
X217660Y333198D02*
X217060Y333544D01*
Y332851D01*
X217660Y333198D01*
X246900Y220500D02*
X246300Y220846D01*
Y220154D01*
X246900Y220500D01*
X177900Y342500D02*
X177300Y342846D01*
Y342154D01*
X177900Y342500D01*
X288900Y253500D02*
X288300Y253846D01*
Y253154D01*
X288900Y253500D01*
X251340Y191945D02*
X250740Y192291D01*
Y191599D01*
X251340Y191945D01*
X264840Y282945D02*
X264240Y283292D01*
Y282599D01*
X264840Y282945D01*
X178840Y210945D02*
X178240Y211292D01*
Y210599D01*
X178840Y210945D01*
X264840Y371445D02*
X264240Y371792D01*
Y371099D01*
X264840Y371445D01*
X196900Y357000D02*
X196300Y357346D01*
Y356654D01*
X196900Y357000D01*
X242592Y335808D02*
X241992Y336154D01*
Y335461D01*
X242592Y335808D01*
X265400Y319500D02*
X264800Y319846D01*
Y319154D01*
X265400Y319500D01*
X122400Y277500D02*
X121800Y277846D01*
Y277154D01*
X122400Y277500D01*
Y272500D02*
X121800Y272846D01*
Y272154D01*
X122400Y272500D01*
Y267500D02*
X121800Y267846D01*
Y267154D01*
X122400Y267500D01*
X161400Y254500D02*
X160800Y254846D01*
Y254154D01*
X161400Y254500D01*
X151840Y358898D02*
X151240Y359244D01*
Y358551D01*
X151840Y358898D01*
X145340Y389945D02*
X144740Y390292D01*
Y389599D01*
X145340Y389945D01*
X152400Y311500D02*
X151800Y311846D01*
Y311154D01*
X152400Y311500D01*
X183900Y264000D02*
X183300Y264346D01*
Y263654D01*
X183900Y264000D01*
X140900Y306500D02*
X140300Y306846D01*
Y306154D01*
X140900Y306500D01*
X172900Y270000D02*
X172300Y270346D01*
Y269654D01*
X172900Y270000D01*
X230900Y287500D02*
X230300Y287846D01*
Y287154D01*
X230900Y287500D01*
X228900Y298000D02*
X228300Y298346D01*
Y297654D01*
X228900Y298000D01*
X192900Y282500D02*
X192300Y282846D01*
Y282154D01*
X192900Y282500D01*
X106900Y262500D02*
X106300Y262846D01*
Y262154D01*
X106900Y262500D01*
Y292500D02*
X106300Y292846D01*
Y292154D01*
X106900Y292500D01*
X206900Y344000D02*
X206300Y344346D01*
Y343654D01*
X206900Y344000D01*
X196900Y351000D02*
X196300Y351346D01*
Y350654D01*
X196900Y351000D01*
M02*
