G04*
G04 #@! TF.GenerationSoftware,Altium Limited,Altium Designer,22.4.2 (48)*
G04*
G04 Layer_Color=16711935*
%FSLAX25Y25*%
%MOIN*%
G70*
G04*
G04 #@! TF.SameCoordinates,FE8C8ECF-970F-4C2D-9C15-E43E087C2527*
G04*
G04*
G04 #@! TF.FilePolarity,Positive*
G04*
G01*
G75*
%ADD11C,0.00394*%
%ADD16C,0.00787*%
%ADD83C,0.00000*%
%ADD84C,0.00100*%
%ADD85R,0.05512X0.01139*%
D11*
X246945Y333500D02*
X246681Y334484D01*
X245960Y335205D01*
X244976Y335469D01*
X243992Y335205D01*
X243271Y334484D01*
X243008Y333500D01*
X243271Y332516D01*
X243992Y331795D01*
X244976Y331532D01*
X245960Y331795D01*
X246681Y332516D01*
X246945Y333500D01*
X268563Y280638D02*
Y285362D01*
X276437Y280638D02*
Y285362D01*
X268563D02*
X276437D01*
X268563Y280638D02*
X276437D01*
X229516Y280138D02*
Y284862D01*
X237390Y280138D02*
Y284862D01*
X229516D02*
X237390D01*
X229516Y280138D02*
X237390D01*
X286138Y257610D02*
X290862D01*
X286138Y265484D02*
X290862D01*
X286138Y257610D02*
Y265484D01*
X290862Y257610D02*
Y265484D01*
X288413Y220213D02*
Y224937D01*
X296287Y220213D02*
Y224937D01*
X288413D02*
X296287D01*
X288413Y220213D02*
X296287D01*
X253646Y188323D02*
Y203677D01*
X234354Y188323D02*
X253646D01*
X234354D02*
Y203677D01*
X253646D01*
X248646D02*
X253646Y198677D01*
X246549Y252205D02*
X255604Y261260D01*
Y252205D02*
Y277795D01*
X241825D02*
X255604D01*
X241825Y252205D02*
Y277795D01*
Y252205D02*
X255604D01*
X303569Y231165D02*
X327191D01*
Y276835D01*
X303569D02*
X327191D01*
X303569Y231165D02*
Y276835D01*
X211013Y333500D02*
X230500Y352987D01*
Y314013D02*
X249987Y333500D01*
X211013D02*
X230500Y314013D01*
Y352987D02*
X249987Y333500D01*
X138850Y232622D02*
X142000D01*
X138850Y238921D02*
X142000D01*
X138850Y232622D02*
Y238921D01*
X142000Y232622D02*
Y238921D01*
X133350Y232622D02*
X136500D01*
X133350Y238921D02*
X136500D01*
X133350Y232622D02*
Y238921D01*
X136500Y232622D02*
Y238921D01*
X127850Y232622D02*
X131000D01*
X127850Y238921D02*
X131000D01*
X127850Y232622D02*
Y238921D01*
X131000Y232622D02*
Y238921D01*
X199925Y321925D02*
X203075D01*
X199925Y328224D02*
X203075D01*
X199925Y321925D02*
Y328224D01*
X203075Y321925D02*
Y328224D01*
X193925Y321925D02*
X197075D01*
X193925Y328224D02*
X197075D01*
X193925Y321925D02*
Y328224D01*
X197075Y321925D02*
Y328224D01*
X138654Y358453D02*
X141803D01*
X138654Y352153D02*
X141803D01*
Y358453D01*
X138654Y352153D02*
Y358453D01*
X122350Y232622D02*
X125500D01*
X122350Y238921D02*
X125500D01*
X122350Y232622D02*
Y238921D01*
X125500Y232622D02*
Y238921D01*
X116850Y232622D02*
X120000D01*
X116850Y238921D02*
X120000D01*
X116850Y232622D02*
Y238921D01*
X120000Y232622D02*
Y238921D01*
X258850Y179675D02*
Y182825D01*
X265150Y179675D02*
Y182825D01*
X258850Y179675D02*
X265150D01*
X258850Y182825D02*
X265150D01*
X258850Y173925D02*
Y177075D01*
X265150Y173925D02*
Y177075D01*
X258850Y173925D02*
X265150D01*
X258850Y177075D02*
X265150D01*
X232173Y173925D02*
Y177075D01*
X225874Y173925D02*
Y177075D01*
X232173D01*
X225874Y173925D02*
X232173D01*
X232150Y179675D02*
Y182825D01*
X225850Y179675D02*
Y182825D01*
X232150D01*
X225850Y179675D02*
X232150D01*
X167925Y112850D02*
X171075D01*
X167925Y119150D02*
X171075D01*
Y112850D02*
Y119150D01*
X167925Y112850D02*
Y119150D01*
X189709Y210759D02*
Y219223D01*
X195221Y210759D02*
Y219223D01*
X189709Y210759D02*
X195221D01*
X189709Y219223D02*
X195221D01*
X169584Y210759D02*
Y219223D01*
X175096Y210759D02*
Y219223D01*
X169584Y210759D02*
X175096D01*
X169584Y219223D02*
X175096D01*
X149459Y210759D02*
Y219223D01*
X154971Y210759D02*
Y219223D01*
X149459Y210759D02*
X154971D01*
X149459Y219223D02*
X154971D01*
X134916Y210776D02*
Y219241D01*
X129404Y210776D02*
Y219241D01*
X134916D01*
X129404Y210776D02*
X134916D01*
X114791D02*
Y219241D01*
X109279Y210776D02*
Y219241D01*
X114791D01*
X109279Y210776D02*
X114791D01*
X145850Y304925D02*
X152150D01*
X145850Y308075D02*
X152150D01*
Y304925D02*
Y308075D01*
X145850Y304925D02*
Y308075D01*
X176425Y263850D02*
Y270150D01*
X179575Y263850D02*
Y270150D01*
X176425Y263850D02*
X179575D01*
X176425Y270150D02*
X179575D01*
X226925Y192850D02*
Y199150D01*
X230075Y192850D02*
Y199150D01*
X226925Y192850D02*
X230075D01*
X226925Y199150D02*
X230075D01*
X240850Y216846D02*
X247150D01*
X240850Y213697D02*
X247150D01*
X240850D02*
Y216846D01*
X247150Y213697D02*
Y216846D01*
X252484Y365350D02*
Y371650D01*
X255634Y365350D02*
Y371650D01*
X252484Y365350D02*
X255634D01*
X252484Y371650D02*
X255634D01*
X272366Y365350D02*
Y371650D01*
X275516Y365350D02*
Y371650D01*
X272366Y365350D02*
X275516D01*
X272366Y371650D02*
X275516D01*
X199925Y339303D02*
Y345602D01*
X203075Y339303D02*
Y345602D01*
X199925Y339303D02*
X203075D01*
X199925Y345602D02*
X203075D01*
X219803Y301425D02*
X226102D01*
X219803Y304575D02*
X226102D01*
Y301425D02*
Y304575D01*
X219803Y301425D02*
Y304575D01*
X261575Y319398D02*
Y325697D01*
X258425Y319398D02*
Y325697D01*
X261575D01*
X258425Y319398D02*
X261575D01*
X199925Y350803D02*
Y357102D01*
X203075Y350803D02*
Y357102D01*
X199925Y350803D02*
X203075D01*
X199925Y357102D02*
X203075D01*
X206175Y350803D02*
Y357102D01*
X209325Y350803D02*
Y357102D01*
X206175Y350803D02*
X209325D01*
X206175Y357102D02*
X209325D01*
X129425Y371850D02*
Y378150D01*
X132575Y371850D02*
Y378150D01*
X129425Y371850D02*
X132575D01*
X129425Y378150D02*
X132575D01*
X144425Y352350D02*
Y358650D01*
X147575Y352350D02*
Y358650D01*
X144425Y352350D02*
X147575D01*
X144425Y358650D02*
X147575D01*
X182925Y347350D02*
Y353650D01*
X186075Y347350D02*
Y353650D01*
X182925Y347350D02*
X186075D01*
X182925Y353650D02*
X186075D01*
D16*
X260965Y100504D02*
X325925D01*
Y162512D01*
X260965D02*
X325925D01*
X260965Y100504D02*
Y162512D01*
X175465Y100504D02*
X240425D01*
Y162512D01*
X175465D02*
X240425D01*
X175465Y100504D02*
Y162512D01*
D83*
X132161Y300650D02*
X132512Y299801D01*
X133361Y299450D01*
X134210Y299801D01*
X134561Y300650D01*
D84*
X118411Y259350D02*
Y300650D01*
X148311D01*
Y259350D02*
Y300650D01*
X118411Y259350D02*
X148311D01*
Y298500D02*
X154311D01*
Y296500D02*
Y298500D01*
X148311Y296500D02*
X154311D01*
X148311D02*
Y298500D01*
Y293500D02*
X154311D01*
Y291500D02*
Y293500D01*
X148311Y291500D02*
X154311D01*
X148311D02*
Y293500D01*
Y288500D02*
X154311D01*
Y286500D02*
Y288500D01*
X148311Y286500D02*
X154311D01*
X148311D02*
Y288500D01*
Y283500D02*
X154311D01*
Y281500D02*
Y283500D01*
X148311Y281500D02*
X154311D01*
X148311D02*
Y283500D01*
Y278500D02*
X154311D01*
Y276500D02*
Y278500D01*
X148311Y276500D02*
X154311D01*
X148311D02*
Y278500D01*
Y273500D02*
X154311D01*
Y271500D02*
Y273500D01*
X148311Y271500D02*
X154311D01*
X148311D02*
Y273500D01*
Y268500D02*
X154311D01*
Y266500D02*
Y268500D01*
X148311Y266500D02*
X154311D01*
X148311D02*
Y268500D01*
Y263500D02*
X154311D01*
Y261500D02*
Y263500D01*
X148311Y261500D02*
X154311D01*
X148311D02*
Y263500D01*
X112411Y261500D02*
X118411D01*
X112411D02*
Y263500D01*
X118411D01*
Y261500D02*
Y263500D01*
X112411Y266500D02*
X118411D01*
X112411D02*
Y268500D01*
X118411D01*
Y266500D02*
Y268500D01*
X112411Y271500D02*
X118411D01*
X112411D02*
Y273500D01*
X118411D01*
Y271500D02*
Y273500D01*
X112411Y276500D02*
X118411D01*
X112411D02*
Y278500D01*
X118411D01*
Y276500D02*
Y278500D01*
X112411Y281500D02*
X118411D01*
X112411D02*
Y283500D01*
X118411D01*
Y281500D02*
Y283500D01*
X112411Y286500D02*
X118411D01*
X112411D02*
Y288500D01*
X118411D01*
Y286500D02*
Y288500D01*
X112411Y291500D02*
X118411D01*
X112411D02*
Y293500D01*
X118411D01*
Y291500D02*
Y293500D01*
X112411Y296500D02*
X118411D01*
X112411D02*
Y298500D01*
X118411D01*
Y296500D02*
Y298500D01*
D85*
X192465Y218654D02*
D03*
X172340D02*
D03*
X152215D02*
D03*
X132160Y211346D02*
D03*
X112035D02*
D03*
M02*
