G04*
G04 #@! TF.GenerationSoftware,Altium Limited,Altium Designer,22.7.1 (60)*
G04*
G04 Layer_Physical_Order=1*
G04 Layer_Color=255*
%FSLAX25Y25*%
%MOIN*%
G70*
G04*
G04 #@! TF.SameCoordinates,6E36C335-AD95-4225-A29B-AEAE8FB35011*
G04*
G04*
G04 #@! TF.FilePolarity,Positive*
G04*
G01*
G75*
%ADD11C,0.02000*%
%ADD19C,0.01000*%
%ADD21R,0.03900X0.01500*%
%ADD22R,0.03900X0.03900*%
%ADD23R,0.03937X0.05315*%
%ADD24R,0.05315X0.03937*%
%ADD25R,0.07480X0.09449*%
%ADD26R,0.07378X0.02197*%
%ADD27R,0.06004X0.02559*%
%ADD28R,0.02756X0.06102*%
%ADD29R,0.06890X0.12598*%
%ADD30R,0.06890X0.03740*%
G04:AMPARAMS|DCode=31|XSize=11.81mil|YSize=57.09mil|CornerRadius=0mil|HoleSize=0mil|Usage=FLASHONLY|Rotation=225.000|XOffset=0mil|YOffset=0mil|HoleType=Round|Shape=Round|*
%AMOVALD31*
21,1,0.04528,0.01181,0.00000,0.00000,315.0*
1,1,0.01181,-0.01601,0.01601*
1,1,0.01181,0.01601,-0.01601*
%
%ADD31OVALD31*%

G04:AMPARAMS|DCode=32|XSize=11.81mil|YSize=57.09mil|CornerRadius=0mil|HoleSize=0mil|Usage=FLASHONLY|Rotation=315.000|XOffset=0mil|YOffset=0mil|HoleType=Round|Shape=Round|*
%AMOVALD32*
21,1,0.04528,0.01181,0.00000,0.00000,45.0*
1,1,0.01181,-0.01601,-0.01601*
1,1,0.01181,0.01601,0.01601*
%
%ADD32OVALD32*%

%ADD33R,0.08268X0.05512*%
%ADD34R,0.03347X0.02756*%
%ADD35R,0.04528X0.05315*%
%ADD36R,0.03740X0.03740*%
%ADD37R,0.03740X0.03740*%
%ADD66C,0.00512*%
%ADD67C,0.02500*%
%ADD68C,0.01200*%
%ADD69C,0.04000*%
%ADD70C,0.03000*%
%ADD71C,0.06299*%
%ADD72C,0.09449*%
%ADD73C,0.05512*%
%ADD74C,0.09843*%
%ADD75C,0.05906*%
%ADD76R,0.05906X0.05906*%
%ADD77R,0.05906X0.05906*%
%ADD78C,0.06000*%
%ADD79C,0.02756*%
%ADD80C,0.02559*%
%ADD81C,0.03937*%
%ADD82C,0.02362*%
G36*
X262500Y292500D02*
X240000D01*
Y308500D01*
X262500D01*
Y292500D01*
D02*
G37*
%LPC*%
G36*
X256928Y307439D02*
X256283Y307266D01*
X255606Y306875D01*
X255053Y306323D01*
X254662Y305646D01*
X254580Y305339D01*
X254063D01*
X253980Y305646D01*
X253590Y306323D01*
X253037Y306875D01*
X252360Y307266D01*
X251714Y307439D01*
Y304500D01*
Y301561D01*
X252360Y301734D01*
X253037Y302125D01*
X253590Y302677D01*
X253980Y303354D01*
X254063Y303661D01*
X254580D01*
X254662Y303354D01*
X255053Y302677D01*
X255606Y302125D01*
X256283Y301734D01*
X256928Y301561D01*
Y304500D01*
Y307439D01*
D02*
G37*
G36*
X250714D02*
X250068Y307266D01*
X249392Y306875D01*
X248839Y306323D01*
X248448Y305646D01*
X248366Y305339D01*
X247848D01*
X247766Y305646D01*
X247375Y306323D01*
X246823Y306875D01*
X246146Y307266D01*
X245500Y307439D01*
Y304500D01*
Y301561D01*
X246146Y301734D01*
X246823Y302125D01*
X247375Y302677D01*
X247766Y303354D01*
X247848Y303661D01*
X248366D01*
X248448Y303354D01*
X248839Y302677D01*
X249392Y302125D01*
X250068Y301734D01*
X250714Y301561D01*
Y304500D01*
Y307439D01*
D02*
G37*
G36*
X257928D02*
Y305000D01*
X260368D01*
X260195Y305646D01*
X259804Y306323D01*
X259251Y306875D01*
X258574Y307266D01*
X257928Y307439D01*
D02*
G37*
G36*
X244500D02*
X243854Y307266D01*
X243177Y306875D01*
X242625Y306323D01*
X242234Y305646D01*
X242061Y305000D01*
X244500D01*
Y307439D01*
D02*
G37*
G36*
X260368Y304000D02*
X257928D01*
Y301561D01*
X258574Y301734D01*
X259251Y302125D01*
X259804Y302677D01*
X260195Y303354D01*
X260368Y304000D01*
D02*
G37*
G36*
X244500D02*
X242061D01*
X242234Y303354D01*
X242625Y302677D01*
X243177Y302125D01*
X243854Y301734D01*
X244500Y301561D01*
Y304000D01*
D02*
G37*
G36*
X256928Y299439D02*
X256283Y299266D01*
X255606Y298875D01*
X255053Y298323D01*
X254662Y297646D01*
X254580Y297339D01*
X254063D01*
X253980Y297646D01*
X253590Y298323D01*
X253037Y298875D01*
X252360Y299266D01*
X251714Y299439D01*
Y296500D01*
Y293561D01*
X252360Y293734D01*
X253037Y294125D01*
X253590Y294677D01*
X253980Y295354D01*
X254063Y295661D01*
X254580D01*
X254662Y295354D01*
X255053Y294677D01*
X255606Y294125D01*
X256283Y293734D01*
X256928Y293561D01*
Y296500D01*
Y299439D01*
D02*
G37*
G36*
X250714D02*
X250068Y299266D01*
X249392Y298875D01*
X248839Y298323D01*
X248448Y297646D01*
X248366Y297339D01*
X247848D01*
X247766Y297646D01*
X247375Y298323D01*
X246823Y298875D01*
X246146Y299266D01*
X245500Y299439D01*
Y296500D01*
Y293561D01*
X246146Y293734D01*
X246823Y294125D01*
X247375Y294677D01*
X247766Y295354D01*
X247848Y295661D01*
X248366D01*
X248448Y295354D01*
X248839Y294677D01*
X249392Y294125D01*
X250068Y293734D01*
X250714Y293561D01*
Y296500D01*
Y299439D01*
D02*
G37*
G36*
X257928D02*
Y297000D01*
X260368D01*
X260195Y297646D01*
X259804Y298323D01*
X259251Y298875D01*
X258574Y299266D01*
X257928Y299439D01*
D02*
G37*
G36*
X244500D02*
X243854Y299266D01*
X243177Y298875D01*
X242625Y298323D01*
X242234Y297646D01*
X242061Y297000D01*
X244500D01*
Y299439D01*
D02*
G37*
G36*
X260368Y296000D02*
X257928D01*
Y293561D01*
X258574Y293734D01*
X259251Y294125D01*
X259804Y294677D01*
X260195Y295354D01*
X260368Y296000D01*
D02*
G37*
G36*
X244500D02*
X242061D01*
X242234Y295354D01*
X242625Y294677D01*
X243177Y294125D01*
X243854Y293734D01*
X244500Y293561D01*
Y296000D01*
D02*
G37*
%LPD*%
G54D11*
X211500Y200000D02*
X218453Y193047D01*
X228500D01*
X138393Y211107D02*
X138500Y211000D01*
X132322Y211107D02*
X138393D01*
X132160Y211269D02*
X132322Y211107D01*
X118393D02*
X118500Y211000D01*
X112197Y211107D02*
X118393D01*
X112035Y211269D02*
X112197Y211107D01*
X228500Y193047D02*
X228655Y192892D01*
X232199D01*
X236122Y188969D01*
Y185650D02*
Y188969D01*
Y185650D02*
X236500Y185272D01*
X228500Y198953D02*
X238453D01*
X241528Y202028D01*
X241500Y206728D02*
X241528Y206700D01*
Y202028D02*
Y206700D01*
X241500Y206728D02*
Y214819D01*
X220926Y235393D02*
Y241101D01*
Y235393D02*
X241047Y215272D01*
X273933Y371445D02*
X273941Y371453D01*
X264440Y371445D02*
X273933D01*
X254067D02*
X264440D01*
X254059Y371453D02*
X254067Y371445D01*
X254059Y356386D02*
Y365547D01*
X273941Y357370D02*
Y365547D01*
G54D19*
X234606Y314082D02*
X238689Y310000D01*
X281500D02*
X300000Y328500D01*
X238689Y310000D02*
X281500D01*
X236047Y315474D02*
X239879Y311642D01*
X300000Y328500D02*
X317000D01*
X280733Y311642D02*
X307287Y338196D01*
X239879Y311642D02*
X280733D01*
X205122Y318500D02*
X216843D01*
X201795Y321827D02*
X205122Y318500D01*
X216843D02*
X219385Y321042D01*
X239000Y339000D02*
X242192Y335808D01*
X166500Y351122D02*
Y355000D01*
Y351122D02*
X166882Y350740D01*
X167325Y343200D02*
X167575Y342950D01*
Y337350D02*
Y342950D01*
X167100Y343200D02*
X167325D01*
X158500Y344047D02*
X159347Y343200D01*
X167100D01*
X243500Y327509D02*
Y329000D01*
X244589Y330089D02*
X246390D01*
X243500Y329000D02*
X244589Y330089D01*
X246500Y206728D02*
Y220500D01*
X220000Y303000D02*
Y310472D01*
X256095Y323500D02*
X260094Y319500D01*
X206376Y343702D02*
X207643D01*
X205578Y344500D02*
X206376Y343702D01*
X248477Y328002D02*
X248526D01*
X246390Y330089D02*
X248477Y328002D01*
X243500Y327509D02*
X245742Y325267D01*
Y325218D02*
Y325267D01*
X239000Y326500D02*
Y332500D01*
X238087Y325587D02*
X239000Y326500D01*
X248526Y328002D02*
X253028Y323500D01*
X195500Y321827D02*
X195795D01*
X196673Y322705D01*
X198673Y325000D02*
X206000D01*
X196673Y322705D02*
Y323000D01*
X198673Y325000D01*
X134925Y242425D02*
X140500Y248000D01*
X199000D01*
X261171Y256000D02*
X268000D01*
X261116Y255945D02*
X261171Y256000D01*
X134925Y239020D02*
Y242425D01*
X152215Y211251D02*
X152521Y210945D01*
X158440D01*
X140425Y239020D02*
X140435Y239010D01*
X145990D02*
X146000Y239000D01*
X140435Y239010D02*
X145990D01*
X192771Y210945D02*
X198440D01*
X192465Y211251D02*
X192771Y210945D01*
X307287Y338196D02*
X319052D01*
X317000Y328500D02*
X321061Y332561D01*
X247176Y321000D02*
X248500D01*
X244350Y323826D02*
X247176Y321000D01*
X248500D02*
X252000Y317500D01*
X239000Y339000D02*
Y343392D01*
X241566Y345958D01*
X220000Y310472D02*
X225002Y315474D01*
X209317Y339500D02*
X211158Y337658D01*
X201500Y339500D02*
X209317D01*
X190661Y328161D02*
X195339D01*
X190500Y328000D02*
X190661Y328161D01*
X195339D02*
X195500Y328323D01*
X213631Y333500D02*
X215953Y335822D01*
X117500Y331500D02*
X121000D01*
X125500Y333500D02*
X213631D01*
X208976Y331500D02*
X211082Y329394D01*
X112000Y337000D02*
X117500Y331500D01*
X112000Y347000D02*
X125500Y333500D01*
X121000Y331500D02*
X208976Y331500D01*
X260000Y325500D02*
Y330500D01*
X242958Y322434D02*
X247800Y317592D01*
Y316200D02*
Y317592D01*
Y316200D02*
X248000Y316000D01*
X247134Y326610D02*
X252983Y320761D01*
X254739D01*
X255000Y320500D01*
X253028Y323500D02*
X256095D01*
X244000Y314500D02*
Y314869D01*
X243653Y315216D02*
X244000Y314869D01*
X243653Y315216D02*
Y318906D01*
X241566Y320993D02*
X243653Y318906D01*
X241566Y320993D02*
Y321042D01*
X238087Y321786D02*
Y325587D01*
X238782Y318258D02*
Y318258D01*
X236000Y321040D02*
Y329000D01*
Y321040D02*
X238782Y318258D01*
X233000Y321256D02*
Y326000D01*
X220739Y335739D02*
X221000Y336000D01*
X220739Y331608D02*
Y335739D01*
X221767Y328000D02*
X223739Y329972D01*
X218089Y328000D02*
X221767D01*
X215307Y325218D02*
X218089Y328000D01*
X216650Y323826D02*
X216699D01*
X218865Y325913D02*
X225413D01*
X227000Y327500D01*
X218470Y325517D02*
X218865Y325913D01*
X218390Y325517D02*
X218470D01*
X216699Y323826D02*
X218390Y325517D01*
X228361Y322729D02*
X229131Y323500D01*
X223905Y322729D02*
X228361D01*
X220826Y319650D02*
X223905Y322729D01*
X229131Y323500D02*
X229500D01*
X218702Y329571D02*
X220739Y331608D01*
X223739Y330739D02*
X224000Y331000D01*
X223739Y329972D02*
Y330739D01*
X216876Y329571D02*
X218702D01*
X217260Y332836D02*
Y333198D01*
X212474Y328002D02*
Y328051D01*
X217260Y332836D01*
X213915Y326610D02*
X216876Y329571D01*
X233000Y321256D02*
X237390Y316866D01*
X238087Y321786D02*
X240174Y319699D01*
X242192Y335808D02*
X244500Y333500D01*
X299500Y367500D02*
Y420000D01*
X278000Y346000D02*
X299500Y367500D01*
X309500Y374500D02*
Y420000D01*
X279000Y344000D02*
X309500Y374500D01*
X319500Y381586D02*
Y420000D01*
X279914Y342000D02*
X319500Y381586D01*
X251528Y342000D02*
X279914D01*
X248526Y338998D02*
X251528Y342000D01*
X248526Y338998D02*
X248526D01*
X250744Y344000D02*
X279000D01*
X249960Y346000D02*
X278000D01*
X299500Y420000D02*
X304500Y425000D01*
X319500Y420000D02*
X324500Y425000D01*
X306500Y343500D02*
X314356D01*
X296500Y333500D02*
X306500Y343500D01*
X319052Y338196D02*
X324356Y343500D01*
X323418Y332561D02*
X324356Y333500D01*
X321061Y332561D02*
X323418D01*
X244500Y333500D02*
X296500D01*
X177500Y409000D02*
X214500Y372000D01*
Y350892D02*
Y372000D01*
X140425Y232524D02*
X143449Y229500D01*
X182090D02*
X192465Y219125D01*
X143449Y229500D02*
X182090D01*
X198500Y318827D02*
X200327Y320654D01*
X198500Y305955D02*
Y318827D01*
X180045Y287500D02*
X198500Y305955D01*
X177500Y409000D02*
Y418000D01*
X172340Y211251D02*
X172646Y210945D01*
X178440D01*
X240174Y319650D02*
Y319699D01*
X260094Y319500D02*
X265000D01*
X215953Y335822D02*
Y338254D01*
X213866Y326610D02*
X213915D01*
X215258Y325218D02*
X215307D01*
X213866Y340341D02*
X215953Y338254D01*
X177500Y418000D02*
X184500Y425000D01*
X189500Y413000D02*
Y420000D01*
X194500Y425000D01*
X189500Y413000D02*
X216500Y386000D01*
X207750Y356906D02*
X211500Y353155D01*
Y351108D02*
Y353155D01*
Y351108D02*
X218042Y344566D01*
X214500Y350892D02*
X219434Y345958D01*
X216500Y351676D02*
X220826Y347350D01*
X216500Y351676D02*
Y386000D01*
X199500Y406500D02*
X218500Y387500D01*
X220487Y353256D02*
Y389013D01*
X222500Y354077D02*
Y392500D01*
Y354077D02*
X225002Y351575D01*
X219500Y395500D02*
Y420000D01*
X209500Y400000D02*
X220487Y389013D01*
X218500Y352460D02*
Y387500D01*
X209500Y400000D02*
Y420000D01*
X219500D02*
X224500Y425000D01*
X219500Y395500D02*
X222500Y392500D01*
X220487Y353256D02*
X223610Y350134D01*
X199500Y406500D02*
Y420000D01*
X204500Y425000D01*
X218500Y352460D02*
X222218Y348742D01*
X209500Y420000D02*
X214500Y425000D01*
X224793Y392293D02*
X229500Y397000D01*
X224793Y354518D02*
Y392293D01*
Y354518D02*
X226394Y352918D01*
X215258Y341782D02*
X216650Y343174D01*
X208825Y348216D02*
Y349925D01*
X207750Y351000D02*
X208825Y349925D01*
Y348216D02*
X215258Y341782D01*
X201500Y351000D02*
X207750D01*
X196500D02*
X201500D01*
X279500Y407000D02*
Y420000D01*
X247500Y354676D02*
Y375000D01*
X279500Y407000D01*
X245500Y376000D02*
X269500Y400000D01*
X245500Y355460D02*
Y376000D01*
X269500Y400000D02*
Y420000D01*
X249500Y386000D02*
Y420000D01*
X241500Y378000D02*
X249500Y386000D01*
X241500Y357028D02*
Y378000D01*
X259500Y393000D02*
Y420000D01*
X243500Y377000D02*
X259500Y393000D01*
X243500Y356244D02*
Y377000D01*
X225002Y351526D02*
Y351575D01*
X229500Y420000D02*
X234500Y425000D01*
X229500Y397000D02*
Y420000D01*
X254059Y356386D02*
X255929Y354516D01*
X272071Y355500D02*
X273941Y357370D01*
X266214Y355500D02*
X272071D01*
X260203Y349488D02*
X266214Y355500D01*
X250664Y349488D02*
X260203D01*
X244350Y343174D02*
X250664Y349488D01*
X252689Y351276D02*
X255929Y354516D01*
X242958Y344566D02*
X249668Y351276D01*
X252689D01*
X245742Y341782D02*
X249960Y346000D01*
X247134Y340390D02*
X250744Y344000D01*
X240174Y347350D02*
X247500Y354676D01*
X238782Y348742D02*
X245500Y355460D01*
X237390Y350134D02*
X243500Y356244D01*
X235998Y351526D02*
X241500Y357028D01*
X239500Y357811D02*
Y420000D01*
X234606Y352918D02*
X239500Y357811D01*
Y420000D02*
X244500Y425000D01*
X249500Y420000D02*
X254500Y425000D01*
X259500Y420000D02*
X264500Y425000D01*
X269500Y420000D02*
X274500Y425000D01*
X279500Y420000D02*
X284500Y425000D01*
X309500Y420000D02*
X314500Y425000D01*
X235998Y315474D02*
X236047D01*
X118500Y239094D02*
Y250500D01*
X139000Y262500D02*
X152000D01*
X118500Y250500D02*
X135500Y267500D01*
X124000Y247500D02*
X139000Y262500D01*
X135500Y267500D02*
X152000D01*
X124000Y239094D02*
Y247500D01*
X123925Y239020D02*
X124000Y239094D01*
X118425Y239020D02*
X118500Y239094D01*
X130598Y231350D02*
X143217Y218731D01*
X152215D01*
X129425Y232524D02*
X129720D01*
X130598Y231646D01*
Y231350D02*
Y231646D01*
X141477Y226267D02*
X165198D01*
X172340Y219125D01*
X134925Y232524D02*
X135221D01*
X141477Y226267D01*
X172340Y218731D02*
Y219125D01*
X192465Y218731D02*
Y219125D01*
X211082Y329394D02*
X211082D01*
X206000Y325000D02*
X210653Y320347D01*
X152000Y306547D02*
Y311500D01*
X151953Y306500D02*
X152000Y306547D01*
X178047Y264000D02*
X183500D01*
X178000Y264047D02*
X178047Y264000D01*
X140500Y306500D02*
X146047D01*
X172500Y270000D02*
X177953D01*
X178000Y269953D01*
Y277177D01*
X224793Y312482D02*
X226394Y314082D01*
X224793Y304113D02*
X225905Y303000D01*
X224793Y304113D02*
Y312482D01*
X225905Y303000D02*
X226284Y302621D01*
Y300216D02*
X228500Y298000D01*
X226284Y300216D02*
Y302621D01*
X192500Y282500D02*
X199677D01*
Y277500D02*
Y282500D01*
Y287500D01*
Y292500D01*
X106500D02*
X114722D01*
Y297500D01*
Y287500D02*
Y292500D01*
X178000Y277177D02*
X178323Y277500D01*
X106500Y262500D02*
X114722D01*
X151953Y297547D02*
Y306500D01*
Y297547D02*
X152000Y297500D01*
X200327Y320654D02*
Y320949D01*
X201205Y321827D02*
X201500D01*
X200327Y320949D02*
X201205Y321827D01*
X195500Y307955D02*
Y321827D01*
X180045Y292500D02*
X195500Y307955D01*
Y328323D02*
X201500D01*
X202406Y344500D02*
X205578D01*
X201500Y345406D02*
X202406Y344500D01*
X207643Y343702D02*
X210655Y340689D01*
X210734D02*
X212425Y338998D01*
X210655Y340689D02*
X210734D01*
X212425Y338998D02*
X212474D01*
X253811Y325500D02*
X260000D01*
X249918Y329394D02*
X253811Y325500D01*
X168000Y282500D02*
X178323D01*
X152000Y277500D02*
X163000D01*
X168000Y282500D01*
X152000Y287500D02*
X178323D01*
X152000Y292500D02*
X178323D01*
Y287500D02*
X180045D01*
X215906Y320347D02*
X217993Y322434D01*
X210653Y320347D02*
X215906D01*
X201500Y321827D02*
X201795D01*
X217993Y322434D02*
X218042D01*
X178323Y292500D02*
X180045D01*
X219385Y321042D02*
X219434D01*
G54D21*
X176900Y350800D02*
D03*
Y343200D02*
D03*
X167100D02*
D03*
G54D22*
Y350000D02*
D03*
G54D23*
X268858Y284500D02*
D03*
X276142D02*
D03*
X229811Y282500D02*
D03*
X237094D02*
D03*
X288358Y226000D02*
D03*
X295642D02*
D03*
G54D24*
X288500Y257358D02*
D03*
Y264642D02*
D03*
G54D25*
X272071Y355500D02*
D03*
X255929D02*
D03*
G54D26*
X114722Y297500D02*
D03*
Y292500D02*
D03*
Y287500D02*
D03*
Y282500D02*
D03*
Y277500D02*
D03*
Y272500D02*
D03*
Y267500D02*
D03*
Y262500D02*
D03*
X152000D02*
D03*
Y267500D02*
D03*
Y272500D02*
D03*
Y277500D02*
D03*
Y282500D02*
D03*
Y287500D02*
D03*
Y297500D02*
D03*
Y292500D02*
D03*
G54D27*
X178323Y277500D02*
D03*
Y282500D02*
D03*
Y287500D02*
D03*
Y292500D02*
D03*
X199677D02*
D03*
Y287500D02*
D03*
Y282500D02*
D03*
Y277500D02*
D03*
G54D28*
X251500Y206728D02*
D03*
X246500D02*
D03*
X241500D02*
D03*
X236500D02*
D03*
Y185272D02*
D03*
X241500D02*
D03*
X246500D02*
D03*
X251500D02*
D03*
G54D29*
X236313Y265000D02*
D03*
G54D30*
X261116Y274055D02*
D03*
Y265000D02*
D03*
Y255945D02*
D03*
G54D31*
X249918Y329394D02*
D03*
X248526Y328002D02*
D03*
X247134Y326610D02*
D03*
X245742Y325218D02*
D03*
X244350Y323826D02*
D03*
X242958Y322434D02*
D03*
X241566Y321042D02*
D03*
X240174Y319650D02*
D03*
X238782Y318258D02*
D03*
X237390Y316866D02*
D03*
X235998Y315474D02*
D03*
X234606Y314082D02*
D03*
X211082Y337606D02*
D03*
X212474Y338998D02*
D03*
X213866Y340390D02*
D03*
X215258Y341782D02*
D03*
X216650Y343174D02*
D03*
X218042Y344566D02*
D03*
X219434Y345958D02*
D03*
X220826Y347350D02*
D03*
X222218Y348742D02*
D03*
X223610Y350134D02*
D03*
X225002Y351526D02*
D03*
X226394Y352918D02*
D03*
G54D32*
Y314082D02*
D03*
X225002Y315474D02*
D03*
X223610Y316866D02*
D03*
X222218Y318258D02*
D03*
X220826Y319650D02*
D03*
X219434Y321042D02*
D03*
X218042Y322434D02*
D03*
X216650Y323826D02*
D03*
X215258Y325218D02*
D03*
X213866Y326610D02*
D03*
X212474Y328002D02*
D03*
X211082Y329394D02*
D03*
X234606Y352918D02*
D03*
X235998Y351526D02*
D03*
X237390Y350134D02*
D03*
X238782Y348742D02*
D03*
X240174Y347350D02*
D03*
X241566Y345958D02*
D03*
X242958Y344566D02*
D03*
X244350Y343174D02*
D03*
X245742Y341782D02*
D03*
X247134Y340390D02*
D03*
X248526Y338998D02*
D03*
X249918Y337606D02*
D03*
G54D33*
X174413Y383858D02*
D03*
X138587D02*
D03*
X174413Y366142D02*
D03*
X138587D02*
D03*
G54D34*
X140425Y232524D02*
D03*
Y239020D02*
D03*
X134925Y232524D02*
D03*
Y239020D02*
D03*
X129425Y232524D02*
D03*
Y239020D02*
D03*
X201500Y321827D02*
D03*
Y328323D02*
D03*
X195500Y321827D02*
D03*
Y328323D02*
D03*
X123925Y232524D02*
D03*
Y239020D02*
D03*
X118425Y232524D02*
D03*
Y239020D02*
D03*
G54D35*
X192465Y211251D02*
D03*
Y218731D02*
D03*
X172340Y211251D02*
D03*
Y218731D02*
D03*
X152215Y211251D02*
D03*
Y218731D02*
D03*
X132160Y218749D02*
D03*
Y211269D02*
D03*
X112035Y218749D02*
D03*
Y211269D02*
D03*
G54D36*
X151953Y306500D02*
D03*
X146047D02*
D03*
X241047Y215272D02*
D03*
X246953D02*
D03*
X225905Y303000D02*
D03*
X220000D02*
D03*
G54D37*
X178000Y264047D02*
D03*
Y269953D02*
D03*
X228500Y193047D02*
D03*
Y198953D02*
D03*
X254059Y365547D02*
D03*
Y371453D02*
D03*
X273941Y365547D02*
D03*
Y371453D02*
D03*
X201500Y339500D02*
D03*
Y345406D02*
D03*
X260000Y325500D02*
D03*
Y319595D02*
D03*
X201500Y351000D02*
D03*
Y356906D02*
D03*
X207750Y351000D02*
D03*
Y356906D02*
D03*
X158500Y344047D02*
D03*
Y349953D02*
D03*
X184500Y351547D02*
D03*
Y357453D02*
D03*
G54D66*
X299763Y140507D02*
X299499Y139468D01*
X299519Y138395D01*
X299823Y137367D01*
X300389Y136455D01*
X301176Y135726D01*
X299763Y140603D02*
Y140603D01*
X301184Y135721D02*
X301995Y135267D01*
X302890Y135016D01*
X303819Y134983D01*
X303819Y134983D02*
X304499Y135001D01*
X307500Y132000D02*
Y136302D01*
X309198Y138000D01*
X299763Y140603D02*
Y140815D01*
X299186Y141392D02*
X299763Y140815D01*
Y140507D02*
Y140603D01*
X295078Y145500D02*
X299186Y141392D01*
X304977Y134523D02*
X307500Y132000D01*
X301176Y135726D02*
X301184Y135721D01*
X304499Y135001D02*
X304977Y134523D01*
X231437Y145500D02*
X295078D01*
X222191Y136254D02*
X231437Y145500D01*
X222191Y132191D02*
Y136254D01*
X222000Y132000D02*
X222191Y132191D01*
X276500Y179000D02*
X309198Y146302D01*
X276084Y177996D02*
X308194Y145886D01*
Y138416D02*
Y145886D01*
X246841Y177996D02*
X276084D01*
X247257Y179000D02*
X276500D01*
X309198Y138000D02*
Y146302D01*
X303484Y139008D02*
X305923Y136569D01*
X306347D01*
X308194Y138416D01*
X231021Y146504D02*
X295494D01*
X302990Y139008D01*
X303484D01*
X219208D02*
X221088Y137128D01*
X217984Y139008D02*
X219208D01*
X221645Y137128D02*
X231021Y146504D01*
X221088Y137128D02*
X221645D01*
X243498Y181339D02*
X246841Y177996D01*
X242622Y182629D02*
X243198D01*
X241500Y183751D02*
X242622Y182629D01*
X241500Y183751D02*
Y185272D01*
X244502Y181755D02*
X247257Y179000D01*
X244502Y181755D02*
Y182329D01*
X244802Y182629D01*
X243198D02*
X243498Y182329D01*
Y181339D02*
Y182329D01*
X245378Y182629D02*
X246500Y183751D01*
X244802Y182629D02*
X245378D01*
X246500Y183751D02*
Y185272D01*
G54D67*
X180000Y383500D02*
X182000Y381500D01*
X174772Y383500D02*
X180000D01*
X174413Y383858D02*
X174772Y383500D01*
X138587Y383858D02*
X174413D01*
X138587Y366142D02*
X174413D01*
X276142Y283811D02*
X277972Y281980D01*
Y274028D02*
Y281980D01*
X276142Y283811D02*
Y284500D01*
X261144Y274028D02*
X277972D01*
X278000Y274000D01*
X263016Y284500D02*
X263060Y284456D01*
X269504D01*
X263000Y284500D02*
X263016D01*
X229511Y282800D02*
X229811Y282500D01*
X229511Y282800D02*
Y288489D01*
X229500Y288500D02*
X229511Y288489D01*
X283150Y228425D02*
X285650Y225925D01*
X288972D01*
X289047Y226000D01*
X261116Y274055D02*
X261144Y274028D01*
G54D68*
X176750Y343350D02*
X176900Y343200D01*
X175550Y343350D02*
X176750D01*
X172000Y346900D02*
Y358000D01*
Y346900D02*
X175550Y343350D01*
X174413Y360413D02*
Y366142D01*
X172000Y358000D02*
X174413Y360413D01*
X179000Y357500D02*
X184453D01*
X184500Y357453D01*
Y346500D02*
Y351547D01*
X176900Y350800D02*
X183753D01*
X184500Y351547D01*
X158453Y350000D02*
X158500Y349953D01*
X153000Y350000D02*
X158453D01*
X212000Y308027D02*
X213103Y309130D01*
X212000Y236500D02*
Y308027D01*
Y236500D02*
X236500Y212000D01*
X269937Y163500D02*
X275453Y157984D01*
X195468Y163500D02*
X269937D01*
X189953Y157984D02*
X195468Y163500D01*
X132160Y218749D02*
Y219143D01*
X130496Y220806D02*
X132160Y219143D01*
X123951Y226958D02*
X130103Y220806D01*
X123951Y226958D02*
Y232497D01*
X130103Y220806D02*
X130496D01*
X112035Y219143D02*
X113699Y220806D01*
X114093D02*
X118425Y225139D01*
Y232524D01*
X112035Y218749D02*
Y219143D01*
X113699Y220806D02*
X114093D01*
X123925Y232524D02*
X123951Y232497D01*
X197830Y339500D02*
X201500D01*
X196050Y341280D02*
X197830Y339500D01*
X196000Y341280D02*
X196050D01*
X251200Y185572D02*
Y191685D01*
X250940Y191945D02*
X251200Y191685D01*
Y185572D02*
X251500Y185272D01*
X241047Y215272D02*
X241500Y214819D01*
X236500Y206728D02*
Y212000D01*
X214000Y259500D02*
X251500Y222000D01*
Y206728D02*
Y222000D01*
X196500Y357000D02*
X201406D01*
X201500Y356906D01*
X207750D01*
X114722Y267500D02*
X122000D01*
X114722Y272500D02*
X122000D01*
X114722Y277500D02*
X122000D01*
X140495Y254500D02*
X161000D01*
X129432Y243438D02*
X140495Y254500D01*
X129432Y239027D02*
Y243438D01*
X129425Y239020D02*
X129432Y239027D01*
X214000Y307256D02*
X221423Y314680D01*
X214000Y259500D02*
Y307256D01*
X213103Y309130D02*
X213103D01*
X220236Y316264D01*
G54D69*
X295642Y226000D02*
Y226626D01*
X312964Y243948D01*
X295260Y224992D02*
X295642Y225374D01*
Y226000D01*
X295260Y206500D02*
Y224992D01*
X312964Y243948D02*
X321233D01*
X321285Y244000D01*
X245000Y296500D02*
X251214D01*
X257429D01*
X236359Y282454D02*
X247454D01*
X251214Y286214D02*
Y296500D01*
X247454Y282454D02*
X251214Y286214D01*
X236313Y265000D02*
X236359Y265046D01*
Y282454D01*
X236313Y265000D02*
X261116D01*
X311285Y274000D02*
X321285Y264000D01*
X288000Y274000D02*
X311285D01*
X288500Y264500D02*
Y273500D01*
X288000Y274000D02*
X288500Y273500D01*
G54D70*
Y251953D02*
Y257827D01*
G54D71*
X268445Y122000D02*
D03*
X318445D02*
D03*
X232945D02*
D03*
X182945D02*
D03*
G54D72*
X261457Y135504D02*
D03*
X325433D02*
D03*
X239933D02*
D03*
X175957D02*
D03*
G54D73*
X266437Y157984D02*
D03*
X275453D02*
D03*
X311437D02*
D03*
X320453D02*
D03*
X279390Y139008D02*
D03*
X283405Y132000D02*
D03*
X287421Y139008D02*
D03*
X291437Y132000D02*
D03*
X295453Y139008D02*
D03*
X299468Y132000D02*
D03*
X303484Y139008D02*
D03*
X307500Y132000D02*
D03*
X222000D02*
D03*
X217984Y139008D02*
D03*
X213968Y132000D02*
D03*
X209953Y139008D02*
D03*
X205937Y132000D02*
D03*
X201921Y139008D02*
D03*
X197906Y132000D02*
D03*
X193890Y139008D02*
D03*
X234953Y157984D02*
D03*
X225937D02*
D03*
X189953D02*
D03*
X180937D02*
D03*
G54D74*
X295260Y206500D02*
D03*
X273606D02*
D03*
X324000D02*
D03*
G54D75*
X321285Y264000D02*
D03*
Y254000D02*
D03*
Y244000D02*
D03*
X288000Y274000D02*
D03*
X314356Y303500D02*
D03*
X324356D02*
D03*
X314356Y313500D02*
D03*
X324356D02*
D03*
Y323500D02*
D03*
X314356Y333500D02*
D03*
X324356D02*
D03*
X314356Y323500D02*
D03*
X112000Y347000D02*
D03*
Y337000D02*
D03*
G54D76*
X278000Y274000D02*
D03*
G54D77*
X314356Y343500D02*
D03*
X324356D02*
D03*
X112000Y357000D02*
D03*
G54D78*
X109500Y425000D02*
D03*
X119500D02*
D03*
X129500D02*
D03*
X139500D02*
D03*
X149500D02*
D03*
X159500D02*
D03*
Y415000D02*
D03*
X149500D02*
D03*
X109500D02*
D03*
X119500D02*
D03*
X129500D02*
D03*
X139500D02*
D03*
X234500Y425000D02*
D03*
X244500D02*
D03*
X254500D02*
D03*
X264500D02*
D03*
X274500D02*
D03*
X284500D02*
D03*
X294500D02*
D03*
X304500D02*
D03*
X314500D02*
D03*
X324500D02*
D03*
Y415000D02*
D03*
X314500D02*
D03*
X304500D02*
D03*
X294500D02*
D03*
X284500D02*
D03*
X274500D02*
D03*
X264500D02*
D03*
X254500D02*
D03*
X244500D02*
D03*
X234500D02*
D03*
X224500Y425000D02*
D03*
X214500D02*
D03*
X204500D02*
D03*
X194500D02*
D03*
X184500D02*
D03*
X224500Y415000D02*
D03*
X214500D02*
D03*
X204500D02*
D03*
X194500D02*
D03*
X184500D02*
D03*
X115500Y115417D02*
D03*
G54D79*
X167575Y337350D02*
D03*
X242192Y335808D02*
D03*
G54D80*
X166500Y355000D02*
D03*
X182000Y381500D02*
D03*
X179000Y357500D02*
D03*
X263000Y284500D02*
D03*
X229500Y288500D02*
D03*
X288500Y251953D02*
D03*
X199000Y248000D02*
D03*
X268000Y256000D02*
D03*
X138500Y211000D02*
D03*
X118500D02*
D03*
X158440Y210945D02*
D03*
X178500Y111500D02*
D03*
X146000Y239000D02*
D03*
X198440Y210945D02*
D03*
X283150Y228425D02*
D03*
X184500Y346500D02*
D03*
X220000Y308000D02*
D03*
X196000Y341280D02*
D03*
X190500Y328000D02*
D03*
X260000Y330500D02*
D03*
X246500Y220500D02*
D03*
X250940Y191945D02*
D03*
X178440Y210945D02*
D03*
X264440Y371445D02*
D03*
X196500Y357000D02*
D03*
X265000Y319500D02*
D03*
X122000Y277500D02*
D03*
Y272500D02*
D03*
Y267500D02*
D03*
X161000Y254500D02*
D03*
X153000Y350000D02*
D03*
X152000Y311500D02*
D03*
X183500Y264000D02*
D03*
X140500Y306500D02*
D03*
X172500Y270000D02*
D03*
X228500Y298000D02*
D03*
X192500Y282500D02*
D03*
X106500Y262500D02*
D03*
Y292500D02*
D03*
X206500Y344000D02*
D03*
X196500Y351000D02*
D03*
G54D81*
X211500Y200000D02*
D03*
X257429Y296500D02*
D03*
X245000Y304500D02*
D03*
X245000Y296500D02*
D03*
X251214D02*
D03*
X220926Y241101D02*
D03*
X257429Y304500D02*
D03*
X251214D02*
D03*
G54D82*
X255000Y320500D02*
D03*
X248000Y316000D02*
D03*
X252000Y317500D02*
D03*
X244000Y314500D02*
D03*
X236000Y329000D02*
D03*
X239000Y332500D02*
D03*
X233000Y326000D02*
D03*
X221000Y336000D02*
D03*
X229500Y323500D02*
D03*
X227000Y327500D02*
D03*
X224000Y331000D02*
D03*
X217260Y333198D02*
D03*
M02*
