G04*
G04 #@! TF.GenerationSoftware,Altium Limited,Altium Designer,22.4.2 (48)*
G04*
G04 Layer_Physical_Order=3*
G04 Layer_Color=16440176*
%FSLAX25Y25*%
%MOIN*%
G70*
G04*
G04 #@! TF.SameCoordinates,FE8C8ECF-970F-4C2D-9C15-E43E087C2527*
G04*
G04*
G04 #@! TF.FilePolarity,Positive*
G04*
G01*
G75*
%ADD73C,0.06000*%
%ADD77C,0.02559*%
%ADD78C,0.03937*%
G36*
X332461Y292500D02*
X217000D01*
Y195000D01*
X101529D01*
Y434971D01*
X332461D01*
Y292500D01*
D02*
G37*
%LPC*%
G36*
X325027Y429000D02*
X323973D01*
X322956Y428727D01*
X322044Y428201D01*
X321299Y427456D01*
X320773Y426544D01*
X320500Y425527D01*
Y424473D01*
X320773Y423456D01*
X321299Y422544D01*
X322044Y421799D01*
X322956Y421273D01*
X323973Y421000D01*
X325027D01*
X326044Y421273D01*
X326956Y421799D01*
X327701Y422544D01*
X328227Y423456D01*
X328500Y424473D01*
Y425527D01*
X328227Y426544D01*
X327701Y427456D01*
X326956Y428201D01*
X326044Y428727D01*
X325027Y429000D01*
D02*
G37*
G36*
X315027D02*
X313973D01*
X312956Y428727D01*
X312044Y428201D01*
X311299Y427456D01*
X310773Y426544D01*
X310500Y425527D01*
Y424473D01*
X310773Y423456D01*
X311299Y422544D01*
X312044Y421799D01*
X312956Y421273D01*
X313973Y421000D01*
X315027D01*
X316044Y421273D01*
X316956Y421799D01*
X317701Y422544D01*
X318227Y423456D01*
X318500Y424473D01*
Y425527D01*
X318227Y426544D01*
X317701Y427456D01*
X316956Y428201D01*
X316044Y428727D01*
X315027Y429000D01*
D02*
G37*
G36*
X305027D02*
X303973D01*
X302956Y428727D01*
X302044Y428201D01*
X301299Y427456D01*
X300773Y426544D01*
X300500Y425527D01*
Y424473D01*
X300773Y423456D01*
X301299Y422544D01*
X302044Y421799D01*
X302956Y421273D01*
X303973Y421000D01*
X305027D01*
X306044Y421273D01*
X306956Y421799D01*
X307701Y422544D01*
X308227Y423456D01*
X308500Y424473D01*
Y425527D01*
X308227Y426544D01*
X307701Y427456D01*
X306956Y428201D01*
X306044Y428727D01*
X305027Y429000D01*
D02*
G37*
G36*
X295027D02*
X293973D01*
X292956Y428727D01*
X292044Y428201D01*
X291299Y427456D01*
X290773Y426544D01*
X290500Y425527D01*
Y424473D01*
X290773Y423456D01*
X291299Y422544D01*
X292044Y421799D01*
X292956Y421273D01*
X293973Y421000D01*
X295027D01*
X296044Y421273D01*
X296956Y421799D01*
X297701Y422544D01*
X298227Y423456D01*
X298500Y424473D01*
Y425527D01*
X298227Y426544D01*
X297701Y427456D01*
X296956Y428201D01*
X296044Y428727D01*
X295027Y429000D01*
D02*
G37*
G36*
X285027D02*
X283973D01*
X282956Y428727D01*
X282044Y428201D01*
X281299Y427456D01*
X280773Y426544D01*
X280500Y425527D01*
Y424473D01*
X280773Y423456D01*
X281299Y422544D01*
X282044Y421799D01*
X282956Y421273D01*
X283973Y421000D01*
X285027D01*
X286044Y421273D01*
X286956Y421799D01*
X287701Y422544D01*
X288227Y423456D01*
X288500Y424473D01*
Y425527D01*
X288227Y426544D01*
X287701Y427456D01*
X286956Y428201D01*
X286044Y428727D01*
X285027Y429000D01*
D02*
G37*
G36*
X275027D02*
X273973D01*
X272956Y428727D01*
X272044Y428201D01*
X271299Y427456D01*
X270773Y426544D01*
X270500Y425527D01*
Y424473D01*
X270773Y423456D01*
X271299Y422544D01*
X272044Y421799D01*
X272956Y421273D01*
X273973Y421000D01*
X275027D01*
X276044Y421273D01*
X276956Y421799D01*
X277701Y422544D01*
X278227Y423456D01*
X278500Y424473D01*
Y425527D01*
X278227Y426544D01*
X277701Y427456D01*
X276956Y428201D01*
X276044Y428727D01*
X275027Y429000D01*
D02*
G37*
G36*
X265027D02*
X263973D01*
X262956Y428727D01*
X262044Y428201D01*
X261299Y427456D01*
X260773Y426544D01*
X260500Y425527D01*
Y424473D01*
X260773Y423456D01*
X261299Y422544D01*
X262044Y421799D01*
X262956Y421273D01*
X263973Y421000D01*
X265027D01*
X266044Y421273D01*
X266956Y421799D01*
X267701Y422544D01*
X268227Y423456D01*
X268500Y424473D01*
Y425527D01*
X268227Y426544D01*
X267701Y427456D01*
X266956Y428201D01*
X266044Y428727D01*
X265027Y429000D01*
D02*
G37*
G36*
X255027D02*
X253973D01*
X252956Y428727D01*
X252044Y428201D01*
X251299Y427456D01*
X250773Y426544D01*
X250500Y425527D01*
Y424473D01*
X250773Y423456D01*
X251299Y422544D01*
X252044Y421799D01*
X252956Y421273D01*
X253973Y421000D01*
X255027D01*
X256044Y421273D01*
X256956Y421799D01*
X257701Y422544D01*
X258227Y423456D01*
X258500Y424473D01*
Y425527D01*
X258227Y426544D01*
X257701Y427456D01*
X256956Y428201D01*
X256044Y428727D01*
X255027Y429000D01*
D02*
G37*
G36*
X245027D02*
X243973D01*
X242956Y428727D01*
X242044Y428201D01*
X241299Y427456D01*
X240773Y426544D01*
X240500Y425527D01*
Y424473D01*
X240773Y423456D01*
X241299Y422544D01*
X242044Y421799D01*
X242956Y421273D01*
X243973Y421000D01*
X245027D01*
X246044Y421273D01*
X246956Y421799D01*
X247701Y422544D01*
X248227Y423456D01*
X248500Y424473D01*
Y425527D01*
X248227Y426544D01*
X247701Y427456D01*
X246956Y428201D01*
X246044Y428727D01*
X245027Y429000D01*
D02*
G37*
G36*
X235027D02*
X233973D01*
X232956Y428727D01*
X232044Y428201D01*
X231299Y427456D01*
X230773Y426544D01*
X230500Y425527D01*
Y424473D01*
X230773Y423456D01*
X231299Y422544D01*
X232044Y421799D01*
X232956Y421273D01*
X233973Y421000D01*
X235027D01*
X236044Y421273D01*
X236956Y421799D01*
X237701Y422544D01*
X238227Y423456D01*
X238500Y424473D01*
Y425527D01*
X238227Y426544D01*
X237701Y427456D01*
X236956Y428201D01*
X236044Y428727D01*
X235027Y429000D01*
D02*
G37*
G36*
X225027D02*
X223973D01*
X222956Y428727D01*
X222044Y428201D01*
X221299Y427456D01*
X220773Y426544D01*
X220500Y425527D01*
Y424473D01*
X220773Y423456D01*
X221299Y422544D01*
X222044Y421799D01*
X222956Y421273D01*
X223973Y421000D01*
X225027D01*
X226044Y421273D01*
X226956Y421799D01*
X227701Y422544D01*
X228227Y423456D01*
X228500Y424473D01*
Y425527D01*
X228227Y426544D01*
X227701Y427456D01*
X226956Y428201D01*
X226044Y428727D01*
X225027Y429000D01*
D02*
G37*
G36*
X215027D02*
X213973D01*
X212956Y428727D01*
X212044Y428201D01*
X211299Y427456D01*
X210773Y426544D01*
X210500Y425527D01*
Y424473D01*
X210773Y423456D01*
X211299Y422544D01*
X212044Y421799D01*
X212956Y421273D01*
X213973Y421000D01*
X215027D01*
X216044Y421273D01*
X216956Y421799D01*
X217701Y422544D01*
X218227Y423456D01*
X218500Y424473D01*
Y425527D01*
X218227Y426544D01*
X217701Y427456D01*
X216956Y428201D01*
X216044Y428727D01*
X215027Y429000D01*
D02*
G37*
G36*
X205027D02*
X203973D01*
X202956Y428727D01*
X202044Y428201D01*
X201299Y427456D01*
X200773Y426544D01*
X200500Y425527D01*
Y424473D01*
X200773Y423456D01*
X201299Y422544D01*
X202044Y421799D01*
X202956Y421273D01*
X203973Y421000D01*
X205027D01*
X206044Y421273D01*
X206956Y421799D01*
X207701Y422544D01*
X208227Y423456D01*
X208500Y424473D01*
Y425527D01*
X208227Y426544D01*
X207701Y427456D01*
X206956Y428201D01*
X206044Y428727D01*
X205027Y429000D01*
D02*
G37*
G36*
X195027D02*
X193973D01*
X192956Y428727D01*
X192044Y428201D01*
X191299Y427456D01*
X190773Y426544D01*
X190500Y425527D01*
Y424473D01*
X190773Y423456D01*
X191299Y422544D01*
X192044Y421799D01*
X192956Y421273D01*
X193973Y421000D01*
X195027D01*
X196044Y421273D01*
X196956Y421799D01*
X197701Y422544D01*
X198227Y423456D01*
X198500Y424473D01*
Y425527D01*
X198227Y426544D01*
X197701Y427456D01*
X196956Y428201D01*
X196044Y428727D01*
X195027Y429000D01*
D02*
G37*
G36*
X185027D02*
X183973D01*
X182956Y428727D01*
X182044Y428201D01*
X181299Y427456D01*
X180773Y426544D01*
X180500Y425527D01*
Y424473D01*
X180773Y423456D01*
X181299Y422544D01*
X182044Y421799D01*
X182956Y421273D01*
X183973Y421000D01*
X185027D01*
X186044Y421273D01*
X186956Y421799D01*
X187701Y422544D01*
X188227Y423456D01*
X188500Y424473D01*
Y425527D01*
X188227Y426544D01*
X187701Y427456D01*
X186956Y428201D01*
X186044Y428727D01*
X185027Y429000D01*
D02*
G37*
G36*
X160027D02*
X158973D01*
X157956Y428727D01*
X157044Y428201D01*
X156299Y427456D01*
X155773Y426544D01*
X155500Y425527D01*
Y424473D01*
X155773Y423456D01*
X156299Y422544D01*
X157044Y421799D01*
X157956Y421273D01*
X158973Y421000D01*
X160027D01*
X161044Y421273D01*
X161956Y421799D01*
X162701Y422544D01*
X163227Y423456D01*
X163500Y424473D01*
Y425527D01*
X163227Y426544D01*
X162701Y427456D01*
X161956Y428201D01*
X161044Y428727D01*
X160027Y429000D01*
D02*
G37*
G36*
X150027D02*
X148973D01*
X147956Y428727D01*
X147044Y428201D01*
X146299Y427456D01*
X145773Y426544D01*
X145500Y425527D01*
Y424473D01*
X145773Y423456D01*
X146299Y422544D01*
X147044Y421799D01*
X147956Y421273D01*
X148973Y421000D01*
X150027D01*
X151044Y421273D01*
X151956Y421799D01*
X152701Y422544D01*
X153227Y423456D01*
X153500Y424473D01*
Y425527D01*
X153227Y426544D01*
X152701Y427456D01*
X151956Y428201D01*
X151044Y428727D01*
X150027Y429000D01*
D02*
G37*
G36*
X140027D02*
X138973D01*
X137956Y428727D01*
X137044Y428201D01*
X136299Y427456D01*
X135773Y426544D01*
X135500Y425527D01*
Y424473D01*
X135773Y423456D01*
X136299Y422544D01*
X137044Y421799D01*
X137956Y421273D01*
X138973Y421000D01*
X140027D01*
X141044Y421273D01*
X141956Y421799D01*
X142701Y422544D01*
X143227Y423456D01*
X143500Y424473D01*
Y425527D01*
X143227Y426544D01*
X142701Y427456D01*
X141956Y428201D01*
X141044Y428727D01*
X140027Y429000D01*
D02*
G37*
G36*
X130027D02*
X128973D01*
X127956Y428727D01*
X127044Y428201D01*
X126299Y427456D01*
X125773Y426544D01*
X125500Y425527D01*
Y424473D01*
X125773Y423456D01*
X126299Y422544D01*
X127044Y421799D01*
X127956Y421273D01*
X128973Y421000D01*
X130027D01*
X131044Y421273D01*
X131956Y421799D01*
X132701Y422544D01*
X133227Y423456D01*
X133500Y424473D01*
Y425527D01*
X133227Y426544D01*
X132701Y427456D01*
X131956Y428201D01*
X131044Y428727D01*
X130027Y429000D01*
D02*
G37*
G36*
X120027D02*
X118973D01*
X117956Y428727D01*
X117044Y428201D01*
X116299Y427456D01*
X115773Y426544D01*
X115500Y425527D01*
Y424473D01*
X115773Y423456D01*
X116299Y422544D01*
X117044Y421799D01*
X117956Y421273D01*
X118973Y421000D01*
X120027D01*
X121044Y421273D01*
X121956Y421799D01*
X122701Y422544D01*
X123227Y423456D01*
X123500Y424473D01*
Y425527D01*
X123227Y426544D01*
X122701Y427456D01*
X121956Y428201D01*
X121044Y428727D01*
X120027Y429000D01*
D02*
G37*
G36*
X110027D02*
X108973D01*
X107956Y428727D01*
X107044Y428201D01*
X106299Y427456D01*
X105773Y426544D01*
X105500Y425527D01*
Y424473D01*
X105773Y423456D01*
X106299Y422544D01*
X107044Y421799D01*
X107956Y421273D01*
X108973Y421000D01*
X110027D01*
X111044Y421273D01*
X111956Y421799D01*
X112701Y422544D01*
X113227Y423456D01*
X113500Y424473D01*
Y425527D01*
X113227Y426544D01*
X112701Y427456D01*
X111956Y428201D01*
X111044Y428727D01*
X110027Y429000D01*
D02*
G37*
G36*
X160027Y419000D02*
X160000D01*
Y415500D01*
X163500D01*
Y415527D01*
X163227Y416544D01*
X162701Y417456D01*
X161956Y418201D01*
X161044Y418727D01*
X160027Y419000D01*
D02*
G37*
G36*
X159000D02*
X158973D01*
X157956Y418727D01*
X157044Y418201D01*
X156299Y417456D01*
X155773Y416544D01*
X155500Y415527D01*
Y415500D01*
X159000D01*
Y419000D01*
D02*
G37*
G36*
X150027D02*
X150000D01*
Y415500D01*
X153500D01*
Y415527D01*
X153227Y416544D01*
X152701Y417456D01*
X151956Y418201D01*
X151044Y418727D01*
X150027Y419000D01*
D02*
G37*
G36*
X149000D02*
X148973D01*
X147956Y418727D01*
X147044Y418201D01*
X146299Y417456D01*
X145773Y416544D01*
X145500Y415527D01*
Y415500D01*
X149000D01*
Y419000D01*
D02*
G37*
G36*
X325027D02*
X323973D01*
X322956Y418727D01*
X322044Y418201D01*
X321299Y417456D01*
X320773Y416544D01*
X320500Y415527D01*
Y414473D01*
X320773Y413456D01*
X321299Y412544D01*
X322044Y411799D01*
X322956Y411273D01*
X323973Y411000D01*
X325027D01*
X326044Y411273D01*
X326956Y411799D01*
X327701Y412544D01*
X328227Y413456D01*
X328500Y414473D01*
Y415527D01*
X328227Y416544D01*
X327701Y417456D01*
X326956Y418201D01*
X326044Y418727D01*
X325027Y419000D01*
D02*
G37*
G36*
X315027D02*
X313973D01*
X312956Y418727D01*
X312044Y418201D01*
X311299Y417456D01*
X310773Y416544D01*
X310500Y415527D01*
Y414473D01*
X310773Y413456D01*
X311299Y412544D01*
X312044Y411799D01*
X312956Y411273D01*
X313973Y411000D01*
X315027D01*
X316044Y411273D01*
X316956Y411799D01*
X317701Y412544D01*
X318227Y413456D01*
X318500Y414473D01*
Y415527D01*
X318227Y416544D01*
X317701Y417456D01*
X316956Y418201D01*
X316044Y418727D01*
X315027Y419000D01*
D02*
G37*
G36*
X305027D02*
X303973D01*
X302956Y418727D01*
X302044Y418201D01*
X301299Y417456D01*
X300773Y416544D01*
X300500Y415527D01*
Y414473D01*
X300773Y413456D01*
X301299Y412544D01*
X302044Y411799D01*
X302956Y411273D01*
X303973Y411000D01*
X305027D01*
X306044Y411273D01*
X306956Y411799D01*
X307701Y412544D01*
X308227Y413456D01*
X308500Y414473D01*
Y415527D01*
X308227Y416544D01*
X307701Y417456D01*
X306956Y418201D01*
X306044Y418727D01*
X305027Y419000D01*
D02*
G37*
G36*
X295027D02*
X293973D01*
X292956Y418727D01*
X292044Y418201D01*
X291299Y417456D01*
X290773Y416544D01*
X290500Y415527D01*
Y414473D01*
X290773Y413456D01*
X291299Y412544D01*
X292044Y411799D01*
X292956Y411273D01*
X293973Y411000D01*
X295027D01*
X296044Y411273D01*
X296956Y411799D01*
X297701Y412544D01*
X298227Y413456D01*
X298500Y414473D01*
Y415527D01*
X298227Y416544D01*
X297701Y417456D01*
X296956Y418201D01*
X296044Y418727D01*
X295027Y419000D01*
D02*
G37*
G36*
X285027D02*
X283973D01*
X282956Y418727D01*
X282044Y418201D01*
X281299Y417456D01*
X280773Y416544D01*
X280500Y415527D01*
Y414473D01*
X280773Y413456D01*
X281299Y412544D01*
X282044Y411799D01*
X282956Y411273D01*
X283973Y411000D01*
X285027D01*
X286044Y411273D01*
X286956Y411799D01*
X287701Y412544D01*
X288227Y413456D01*
X288500Y414473D01*
Y415527D01*
X288227Y416544D01*
X287701Y417456D01*
X286956Y418201D01*
X286044Y418727D01*
X285027Y419000D01*
D02*
G37*
G36*
X275027D02*
X273973D01*
X272956Y418727D01*
X272044Y418201D01*
X271299Y417456D01*
X270773Y416544D01*
X270500Y415527D01*
Y414473D01*
X270773Y413456D01*
X271299Y412544D01*
X272044Y411799D01*
X272956Y411273D01*
X273973Y411000D01*
X275027D01*
X276044Y411273D01*
X276956Y411799D01*
X277701Y412544D01*
X278227Y413456D01*
X278500Y414473D01*
Y415527D01*
X278227Y416544D01*
X277701Y417456D01*
X276956Y418201D01*
X276044Y418727D01*
X275027Y419000D01*
D02*
G37*
G36*
X265027D02*
X263973D01*
X262956Y418727D01*
X262044Y418201D01*
X261299Y417456D01*
X260773Y416544D01*
X260500Y415527D01*
Y414473D01*
X260773Y413456D01*
X261299Y412544D01*
X262044Y411799D01*
X262956Y411273D01*
X263973Y411000D01*
X265027D01*
X266044Y411273D01*
X266956Y411799D01*
X267701Y412544D01*
X268227Y413456D01*
X268500Y414473D01*
Y415527D01*
X268227Y416544D01*
X267701Y417456D01*
X266956Y418201D01*
X266044Y418727D01*
X265027Y419000D01*
D02*
G37*
G36*
X255027D02*
X253973D01*
X252956Y418727D01*
X252044Y418201D01*
X251299Y417456D01*
X250773Y416544D01*
X250500Y415527D01*
Y414473D01*
X250773Y413456D01*
X251299Y412544D01*
X252044Y411799D01*
X252956Y411273D01*
X253973Y411000D01*
X255027D01*
X256044Y411273D01*
X256956Y411799D01*
X257701Y412544D01*
X258227Y413456D01*
X258500Y414473D01*
Y415527D01*
X258227Y416544D01*
X257701Y417456D01*
X256956Y418201D01*
X256044Y418727D01*
X255027Y419000D01*
D02*
G37*
G36*
X245027D02*
X243973D01*
X242956Y418727D01*
X242044Y418201D01*
X241299Y417456D01*
X240773Y416544D01*
X240500Y415527D01*
Y414473D01*
X240773Y413456D01*
X241299Y412544D01*
X242044Y411799D01*
X242956Y411273D01*
X243973Y411000D01*
X245027D01*
X246044Y411273D01*
X246956Y411799D01*
X247701Y412544D01*
X248227Y413456D01*
X248500Y414473D01*
Y415527D01*
X248227Y416544D01*
X247701Y417456D01*
X246956Y418201D01*
X246044Y418727D01*
X245027Y419000D01*
D02*
G37*
G36*
X235027D02*
X233973D01*
X232956Y418727D01*
X232044Y418201D01*
X231299Y417456D01*
X230773Y416544D01*
X230500Y415527D01*
Y414473D01*
X230773Y413456D01*
X231299Y412544D01*
X232044Y411799D01*
X232956Y411273D01*
X233973Y411000D01*
X235027D01*
X236044Y411273D01*
X236956Y411799D01*
X237701Y412544D01*
X238227Y413456D01*
X238500Y414473D01*
Y415527D01*
X238227Y416544D01*
X237701Y417456D01*
X236956Y418201D01*
X236044Y418727D01*
X235027Y419000D01*
D02*
G37*
G36*
X225027D02*
X223973D01*
X222956Y418727D01*
X222044Y418201D01*
X221299Y417456D01*
X220773Y416544D01*
X220500Y415527D01*
Y414473D01*
X220773Y413456D01*
X221299Y412544D01*
X222044Y411799D01*
X222956Y411273D01*
X223973Y411000D01*
X225027D01*
X226044Y411273D01*
X226956Y411799D01*
X227701Y412544D01*
X228227Y413456D01*
X228500Y414473D01*
Y415527D01*
X228227Y416544D01*
X227701Y417456D01*
X226956Y418201D01*
X226044Y418727D01*
X225027Y419000D01*
D02*
G37*
G36*
X215027D02*
X213973D01*
X212956Y418727D01*
X212044Y418201D01*
X211299Y417456D01*
X210773Y416544D01*
X210500Y415527D01*
Y414473D01*
X210773Y413456D01*
X211299Y412544D01*
X212044Y411799D01*
X212956Y411273D01*
X213973Y411000D01*
X215027D01*
X216044Y411273D01*
X216956Y411799D01*
X217701Y412544D01*
X218227Y413456D01*
X218500Y414473D01*
Y415527D01*
X218227Y416544D01*
X217701Y417456D01*
X216956Y418201D01*
X216044Y418727D01*
X215027Y419000D01*
D02*
G37*
G36*
X205027D02*
X203973D01*
X202956Y418727D01*
X202044Y418201D01*
X201299Y417456D01*
X200773Y416544D01*
X200500Y415527D01*
Y414473D01*
X200773Y413456D01*
X201299Y412544D01*
X202044Y411799D01*
X202956Y411273D01*
X203973Y411000D01*
X205027D01*
X206044Y411273D01*
X206956Y411799D01*
X207701Y412544D01*
X208227Y413456D01*
X208500Y414473D01*
Y415527D01*
X208227Y416544D01*
X207701Y417456D01*
X206956Y418201D01*
X206044Y418727D01*
X205027Y419000D01*
D02*
G37*
G36*
X195027D02*
X193973D01*
X192956Y418727D01*
X192044Y418201D01*
X191299Y417456D01*
X190773Y416544D01*
X190500Y415527D01*
Y414473D01*
X190773Y413456D01*
X191299Y412544D01*
X192044Y411799D01*
X192956Y411273D01*
X193973Y411000D01*
X195027D01*
X196044Y411273D01*
X196956Y411799D01*
X197701Y412544D01*
X198227Y413456D01*
X198500Y414473D01*
Y415527D01*
X198227Y416544D01*
X197701Y417456D01*
X196956Y418201D01*
X196044Y418727D01*
X195027Y419000D01*
D02*
G37*
G36*
X185027D02*
X183973D01*
X182956Y418727D01*
X182044Y418201D01*
X181299Y417456D01*
X180773Y416544D01*
X180500Y415527D01*
Y414473D01*
X180773Y413456D01*
X181299Y412544D01*
X182044Y411799D01*
X182956Y411273D01*
X183973Y411000D01*
X185027D01*
X186044Y411273D01*
X186956Y411799D01*
X187701Y412544D01*
X188227Y413456D01*
X188500Y414473D01*
Y415527D01*
X188227Y416544D01*
X187701Y417456D01*
X186956Y418201D01*
X186044Y418727D01*
X185027Y419000D01*
D02*
G37*
G36*
X163500Y414500D02*
X160000D01*
Y411000D01*
X160027D01*
X161044Y411273D01*
X161956Y411799D01*
X162701Y412544D01*
X163227Y413456D01*
X163500Y414473D01*
Y414500D01*
D02*
G37*
G36*
X159000D02*
X155500D01*
Y414473D01*
X155773Y413456D01*
X156299Y412544D01*
X157044Y411799D01*
X157956Y411273D01*
X158973Y411000D01*
X159000D01*
Y414500D01*
D02*
G37*
G36*
X153500D02*
X150000D01*
Y411000D01*
X150027D01*
X151044Y411273D01*
X151956Y411799D01*
X152701Y412544D01*
X153227Y413456D01*
X153500Y414473D01*
Y414500D01*
D02*
G37*
G36*
X149000D02*
X145500D01*
Y414473D01*
X145773Y413456D01*
X146299Y412544D01*
X147044Y411799D01*
X147956Y411273D01*
X148973Y411000D01*
X149000D01*
Y414500D01*
D02*
G37*
G36*
X140027Y419000D02*
X138973D01*
X137956Y418727D01*
X137044Y418201D01*
X136299Y417456D01*
X135773Y416544D01*
X135500Y415527D01*
Y414473D01*
X135773Y413456D01*
X136299Y412544D01*
X137044Y411799D01*
X137956Y411273D01*
X138973Y411000D01*
X140027D01*
X141044Y411273D01*
X141956Y411799D01*
X142701Y412544D01*
X143227Y413456D01*
X143500Y414473D01*
Y415527D01*
X143227Y416544D01*
X142701Y417456D01*
X141956Y418201D01*
X141044Y418727D01*
X140027Y419000D01*
D02*
G37*
G36*
X130027D02*
X128973D01*
X127956Y418727D01*
X127044Y418201D01*
X126299Y417456D01*
X125773Y416544D01*
X125500Y415527D01*
Y414473D01*
X125773Y413456D01*
X126299Y412544D01*
X127044Y411799D01*
X127956Y411273D01*
X128973Y411000D01*
X130027D01*
X131044Y411273D01*
X131956Y411799D01*
X132701Y412544D01*
X133227Y413456D01*
X133500Y414473D01*
Y415527D01*
X133227Y416544D01*
X132701Y417456D01*
X131956Y418201D01*
X131044Y418727D01*
X130027Y419000D01*
D02*
G37*
G36*
X120027D02*
X118973D01*
X117956Y418727D01*
X117044Y418201D01*
X116299Y417456D01*
X115773Y416544D01*
X115500Y415527D01*
Y414473D01*
X115773Y413456D01*
X116299Y412544D01*
X117044Y411799D01*
X117956Y411273D01*
X118973Y411000D01*
X120027D01*
X121044Y411273D01*
X121956Y411799D01*
X122701Y412544D01*
X123227Y413456D01*
X123500Y414473D01*
Y415527D01*
X123227Y416544D01*
X122701Y417456D01*
X121956Y418201D01*
X121044Y418727D01*
X120027Y419000D01*
D02*
G37*
G36*
X110027D02*
X108973D01*
X107956Y418727D01*
X107044Y418201D01*
X106299Y417456D01*
X105773Y416544D01*
X105500Y415527D01*
Y414473D01*
X105773Y413456D01*
X106299Y412544D01*
X107044Y411799D01*
X107956Y411273D01*
X108973Y411000D01*
X110027D01*
X111044Y411273D01*
X111956Y411799D01*
X112701Y412544D01*
X113227Y413456D01*
X113500Y414473D01*
Y415527D01*
X113227Y416544D01*
X112701Y417456D01*
X111956Y418201D01*
X111044Y418727D01*
X110027Y419000D01*
D02*
G37*
G36*
X145393Y392225D02*
X144486D01*
X143648Y391878D01*
X143007Y391236D01*
X142660Y390399D01*
Y389492D01*
X143007Y388654D01*
X143648Y388013D01*
X144486Y387666D01*
X145393D01*
X146231Y388013D01*
X146872Y388654D01*
X147219Y389492D01*
Y390399D01*
X146872Y391236D01*
X146231Y391878D01*
X145393Y392225D01*
D02*
G37*
G36*
X264893Y373725D02*
X263986D01*
X263148Y373378D01*
X262507Y372736D01*
X262160Y371899D01*
Y370992D01*
X262507Y370154D01*
X263148Y369513D01*
X263986Y369165D01*
X264893D01*
X265731Y369513D01*
X266372Y370154D01*
X266719Y370992D01*
Y371899D01*
X266372Y372736D01*
X265731Y373378D01*
X264893Y373725D01*
D02*
G37*
G36*
X151893Y361177D02*
X150986D01*
X150148Y360830D01*
X149507Y360189D01*
X149160Y359351D01*
Y358444D01*
X149507Y357607D01*
X150148Y356965D01*
X150986Y356618D01*
X151893D01*
X152731Y356965D01*
X153372Y357607D01*
X153719Y358444D01*
Y359351D01*
X153372Y360189D01*
X152731Y360830D01*
X151893Y361177D01*
D02*
G37*
G36*
X196953Y359279D02*
X196047D01*
X195209Y358932D01*
X194568Y358291D01*
X194220Y357453D01*
Y356547D01*
X194568Y355709D01*
X195209Y355067D01*
X196047Y354720D01*
X196953D01*
X197791Y355067D01*
X198433Y355709D01*
X198779Y356547D01*
Y357453D01*
X198433Y358291D01*
X197791Y358932D01*
X196953Y359279D01*
D02*
G37*
G36*
X166953Y358279D02*
X166047D01*
X165209Y357932D01*
X164567Y357291D01*
X164220Y356453D01*
Y355547D01*
X164567Y354709D01*
X165209Y354067D01*
X166047Y353720D01*
X166953D01*
X167791Y354067D01*
X168432Y354709D01*
X168780Y355547D01*
Y356453D01*
X168432Y357291D01*
X167791Y357932D01*
X166953Y358279D01*
D02*
G37*
G36*
X115953Y360953D02*
X108047D01*
Y353047D01*
X115953D01*
Y360953D01*
D02*
G37*
G36*
X197000Y353260D02*
Y351500D01*
X198760D01*
X198433Y352291D01*
X197791Y352933D01*
X197000Y353260D01*
D02*
G37*
G36*
X196000D02*
X195209Y352933D01*
X194568Y352291D01*
X194240Y351500D01*
X196000D01*
Y353260D01*
D02*
G37*
G36*
X189953Y355279D02*
X189047D01*
X188209Y354932D01*
X187567Y354291D01*
X187221Y353453D01*
Y352547D01*
X187567Y351709D01*
X188209Y351067D01*
X189047Y350721D01*
X189953D01*
X190791Y351067D01*
X191432Y351709D01*
X191779Y352547D01*
Y353453D01*
X191432Y354291D01*
X190791Y354932D01*
X189953Y355279D01*
D02*
G37*
G36*
X198760Y350500D02*
X197000D01*
Y348740D01*
X197791Y349067D01*
X198433Y349709D01*
X198760Y350500D01*
D02*
G37*
G36*
X196000D02*
X194240D01*
X194568Y349709D01*
X195209Y349067D01*
X196000Y348740D01*
Y350500D01*
D02*
G37*
G36*
X112520Y350953D02*
X111480D01*
X110474Y350683D01*
X109573Y350163D01*
X108837Y349427D01*
X108317Y348526D01*
X108047Y347520D01*
Y346480D01*
X108317Y345474D01*
X108837Y344573D01*
X109573Y343837D01*
X110474Y343317D01*
X111480Y343047D01*
X112520D01*
X113526Y343317D01*
X114427Y343837D01*
X115163Y344573D01*
X115683Y345474D01*
X115953Y346480D01*
Y347520D01*
X115683Y348526D01*
X115163Y349427D01*
X114427Y350163D01*
X113526Y350683D01*
X112520Y350953D01*
D02*
G37*
G36*
X185000Y344760D02*
Y343000D01*
X186760D01*
X186433Y343791D01*
X185791Y344432D01*
X185000Y344760D01*
D02*
G37*
G36*
X184000D02*
X183209Y344432D01*
X182568Y343791D01*
X182240Y343000D01*
X184000D01*
Y344760D01*
D02*
G37*
G36*
X178000D02*
Y343000D01*
X179760D01*
X179432Y343791D01*
X178791Y344432D01*
X178000Y344760D01*
D02*
G37*
G36*
X177000D02*
X176209Y344432D01*
X175567Y343791D01*
X175240Y343000D01*
X177000D01*
Y344760D01*
D02*
G37*
G36*
X196500Y343540D02*
Y341779D01*
X198260D01*
X197933Y342571D01*
X197291Y343212D01*
X196500Y343540D01*
D02*
G37*
G36*
X195500D02*
X194709Y343212D01*
X194068Y342571D01*
X193740Y341779D01*
X195500D01*
Y343540D01*
D02*
G37*
G36*
X206953Y346280D02*
X206047D01*
X205209Y345933D01*
X204568Y345291D01*
X204221Y344453D01*
Y343547D01*
X204568Y342709D01*
X205209Y342068D01*
X206047Y341721D01*
X206953D01*
X207791Y342068D01*
X208433Y342709D01*
X208780Y343547D01*
Y344453D01*
X208433Y345291D01*
X207791Y345933D01*
X206953Y346280D01*
D02*
G37*
G36*
X186760Y342000D02*
X185000D01*
Y340240D01*
X185791Y340567D01*
X186433Y341209D01*
X186760Y342000D01*
D02*
G37*
G36*
X184000D02*
X182240D01*
X182568Y341209D01*
X183209Y340567D01*
X184000Y340240D01*
Y342000D01*
D02*
G37*
G36*
X179760D02*
X178000D01*
Y340240D01*
X178791Y340567D01*
X179432Y341209D01*
X179760Y342000D01*
D02*
G37*
G36*
X177000D02*
X175240D01*
X175567Y341209D01*
X176209Y340567D01*
X177000Y340240D01*
Y342000D01*
D02*
G37*
G36*
X328309Y347453D02*
X320404D01*
Y339547D01*
X328309D01*
Y347453D01*
D02*
G37*
G36*
X318309D02*
X310403D01*
Y339547D01*
X318309D01*
Y347453D01*
D02*
G37*
G36*
X198260Y340779D02*
X196500D01*
Y339019D01*
X197291Y339347D01*
X197933Y339988D01*
X198260Y340779D01*
D02*
G37*
G36*
X195500D02*
X193740D01*
X194068Y339988D01*
X194709Y339347D01*
X195500Y339019D01*
Y340779D01*
D02*
G37*
G36*
X167453D02*
X166547D01*
X165709Y340433D01*
X165068Y339791D01*
X164720Y338953D01*
Y338047D01*
X165068Y337209D01*
X165709Y336567D01*
X166547Y336221D01*
X167453D01*
X168291Y336567D01*
X168932Y337209D01*
X169280Y338047D01*
Y338953D01*
X168932Y339791D01*
X168291Y340433D01*
X167453Y340779D01*
D02*
G37*
G36*
X221434Y338181D02*
X220566D01*
X219764Y337849D01*
X219151Y337235D01*
X218819Y336434D01*
Y335566D01*
X218915Y335334D01*
X218503Y335052D01*
X218492Y335048D01*
X217693Y335379D01*
X216826D01*
X216024Y335047D01*
X215410Y334433D01*
X215078Y333631D01*
Y332764D01*
X215410Y331962D01*
X216024Y331349D01*
X216826Y331016D01*
X217693D01*
X218495Y331349D01*
X219109Y331962D01*
X219441Y332764D01*
Y333631D01*
X219344Y333864D01*
X219756Y334145D01*
X219767Y334150D01*
X220566Y333819D01*
X221434D01*
X222235Y334151D01*
X222849Y334765D01*
X223181Y335566D01*
Y336434D01*
X222849Y337235D01*
X222235Y337849D01*
X221434Y338181D01*
D02*
G37*
G36*
X242646Y338087D02*
X241739D01*
X240901Y337740D01*
X240260Y337099D01*
X239913Y336261D01*
Y335354D01*
X240078Y334956D01*
X239695Y334573D01*
X239434Y334681D01*
X238566D01*
X237765Y334349D01*
X237151Y333735D01*
X236819Y332934D01*
Y332066D01*
X237071Y331459D01*
X236688Y331076D01*
X236434Y331181D01*
X235566D01*
X234765Y330849D01*
X234151Y330236D01*
X233819Y329434D01*
Y328566D01*
X233841Y328512D01*
X233488Y328159D01*
X233434Y328181D01*
X232566D01*
X231765Y327849D01*
X231151Y327236D01*
X230819Y326434D01*
Y325856D01*
X230341Y325512D01*
X229934Y325681D01*
X229066D01*
X228907Y325615D01*
X228624Y326039D01*
X228849Y326265D01*
X229181Y327066D01*
Y327934D01*
X228849Y328735D01*
X228236Y329349D01*
X227434Y329681D01*
X226566D01*
X226312Y329576D01*
X225929Y329959D01*
X226181Y330566D01*
Y331434D01*
X225849Y332236D01*
X225236Y332849D01*
X224434Y333181D01*
X223566D01*
X222764Y332849D01*
X222151Y332236D01*
X221819Y331434D01*
Y330566D01*
X222151Y329765D01*
X222764Y329151D01*
X223566Y328819D01*
X224434D01*
X224688Y328924D01*
X225071Y328541D01*
X224819Y327934D01*
Y327066D01*
X225151Y326265D01*
X225764Y325651D01*
X226566Y325319D01*
X227434D01*
X227593Y325385D01*
X227876Y324961D01*
X227651Y324735D01*
X227319Y323934D01*
Y323066D01*
X227651Y322265D01*
X228264Y321651D01*
X229066Y321319D01*
X229934D01*
X230735Y321651D01*
X231349Y322265D01*
X231681Y323066D01*
Y323644D01*
X232159Y323988D01*
X232566Y323819D01*
X233434D01*
X234236Y324151D01*
X234849Y324764D01*
X235181Y325566D01*
Y326434D01*
X235159Y326488D01*
X235512Y326841D01*
X235566Y326819D01*
X236434D01*
X237235Y327151D01*
X237849Y327765D01*
X238181Y328566D01*
Y329434D01*
X237929Y330041D01*
X238312Y330424D01*
X238566Y330319D01*
X239434D01*
X240235Y330651D01*
X240849Y331264D01*
X241181Y332066D01*
Y332934D01*
X241039Y333277D01*
X241422Y333660D01*
X241739Y333528D01*
X242646D01*
X243484Y333875D01*
X244125Y334516D01*
X244472Y335354D01*
Y336261D01*
X244125Y337099D01*
X243484Y337740D01*
X242646Y338087D01*
D02*
G37*
G36*
X112520Y340953D02*
X111480D01*
X110474Y340683D01*
X109573Y340163D01*
X108837Y339427D01*
X108317Y338526D01*
X108047Y337520D01*
Y336480D01*
X108317Y335474D01*
X108837Y334573D01*
X109573Y333837D01*
X110474Y333317D01*
X111480Y333047D01*
X112520D01*
X113526Y333317D01*
X114427Y333837D01*
X115163Y334573D01*
X115683Y335474D01*
X115953Y336480D01*
Y337520D01*
X115683Y338526D01*
X115163Y339427D01*
X114427Y340163D01*
X113526Y340683D01*
X112520Y340953D01*
D02*
G37*
G36*
X260500Y332760D02*
Y331000D01*
X262260D01*
X261932Y331791D01*
X261291Y332433D01*
X260500Y332760D01*
D02*
G37*
G36*
X259500D02*
X258709Y332433D01*
X258067Y331791D01*
X257740Y331000D01*
X259500D01*
Y332760D01*
D02*
G37*
G36*
X324877Y337453D02*
X323836D01*
X322831Y337183D01*
X321929Y336663D01*
X321193Y335927D01*
X320673Y335026D01*
X320404Y334020D01*
Y332980D01*
X320673Y331974D01*
X321193Y331073D01*
X321929Y330337D01*
X322831Y329817D01*
X323836Y329547D01*
X324877D01*
X325882Y329817D01*
X326783Y330337D01*
X327519Y331073D01*
X328040Y331974D01*
X328309Y332980D01*
Y334020D01*
X328040Y335026D01*
X327519Y335927D01*
X326783Y336663D01*
X325882Y337183D01*
X324877Y337453D01*
D02*
G37*
G36*
X314877D02*
X313836D01*
X312831Y337183D01*
X311929Y336663D01*
X311193Y335927D01*
X310673Y335026D01*
X310403Y334020D01*
Y332980D01*
X310673Y331974D01*
X311193Y331073D01*
X311929Y330337D01*
X312831Y329817D01*
X313836Y329547D01*
X314877D01*
X315882Y329817D01*
X316783Y330337D01*
X317519Y331073D01*
X318040Y331974D01*
X318309Y332980D01*
Y334020D01*
X318040Y335026D01*
X317519Y335927D01*
X316783Y336663D01*
X315882Y337183D01*
X314877Y337453D01*
D02*
G37*
G36*
X191000Y330260D02*
Y328500D01*
X192760D01*
X192432Y329291D01*
X191791Y329932D01*
X191000Y330260D01*
D02*
G37*
G36*
X190000D02*
X189209Y329932D01*
X188567Y329291D01*
X188240Y328500D01*
X190000D01*
Y330260D01*
D02*
G37*
G36*
X262260Y330000D02*
X260500D01*
Y328240D01*
X261291Y328568D01*
X261932Y329209D01*
X262260Y330000D01*
D02*
G37*
G36*
X259500D02*
X257740D01*
X258067Y329209D01*
X258709Y328568D01*
X259500Y328240D01*
Y330000D01*
D02*
G37*
G36*
X192760Y327500D02*
X191000D01*
Y325740D01*
X191791Y326067D01*
X192432Y326709D01*
X192760Y327500D01*
D02*
G37*
G36*
X190000D02*
X188240D01*
X188567Y326709D01*
X189209Y326067D01*
X190000Y325740D01*
Y327500D01*
D02*
G37*
G36*
X255434Y322681D02*
X254566D01*
X253765Y322349D01*
X253151Y321736D01*
X252819Y320934D01*
Y320066D01*
X252841Y320012D01*
X252488Y319659D01*
X252434Y319681D01*
X251566D01*
X250764Y319349D01*
X250151Y318736D01*
X249819Y317934D01*
Y317919D01*
X249357Y317728D01*
X249236Y317849D01*
X248434Y318181D01*
X247566D01*
X246764Y317849D01*
X246151Y317235D01*
X245819Y316434D01*
Y316419D01*
X245357Y316228D01*
X245235Y316349D01*
X244434Y316681D01*
X243566D01*
X242764Y316349D01*
X242151Y315736D01*
X241819Y314934D01*
Y314066D01*
X242151Y313264D01*
X242764Y312651D01*
X243566Y312319D01*
X244434D01*
X245235Y312651D01*
X245849Y313264D01*
X246181Y314066D01*
Y314081D01*
X246643Y314272D01*
X246764Y314151D01*
X247566Y313819D01*
X248434D01*
X249236Y314151D01*
X249849Y314764D01*
X250181Y315566D01*
Y315581D01*
X250643Y315772D01*
X250764Y315651D01*
X251566Y315319D01*
X252434D01*
X253236Y315651D01*
X253849Y316265D01*
X254181Y317066D01*
Y317934D01*
X254159Y317988D01*
X254512Y318341D01*
X254566Y318319D01*
X255434D01*
X256236Y318651D01*
X256849Y319265D01*
X257181Y320066D01*
Y320934D01*
X256849Y321736D01*
X256236Y322349D01*
X255434Y322681D01*
D02*
G37*
G36*
X324877Y327453D02*
X323836D01*
X322831Y327183D01*
X321929Y326663D01*
X321193Y325927D01*
X320673Y325026D01*
X320404Y324020D01*
Y322980D01*
X320673Y321974D01*
X321193Y321073D01*
X321929Y320337D01*
X322831Y319817D01*
X323836Y319547D01*
X324877D01*
X325882Y319817D01*
X326783Y320337D01*
X327519Y321073D01*
X328040Y321974D01*
X328309Y322980D01*
Y324020D01*
X328040Y325026D01*
X327519Y325927D01*
X326783Y326663D01*
X325882Y327183D01*
X324877Y327453D01*
D02*
G37*
G36*
X314877D02*
X313836D01*
X312831Y327183D01*
X311929Y326663D01*
X311193Y325927D01*
X310673Y325026D01*
X310403Y324020D01*
Y322980D01*
X310673Y321974D01*
X311193Y321073D01*
X311929Y320337D01*
X312831Y319817D01*
X313836Y319547D01*
X314877D01*
X315882Y319817D01*
X316783Y320337D01*
X317519Y321073D01*
X318040Y321974D01*
X318309Y322980D01*
Y324020D01*
X318040Y325026D01*
X317519Y325927D01*
X316783Y326663D01*
X315882Y327183D01*
X314877Y327453D01*
D02*
G37*
G36*
X265453Y321779D02*
X264547D01*
X263709Y321432D01*
X263068Y320791D01*
X262720Y319953D01*
Y319047D01*
X263068Y318209D01*
X263709Y317567D01*
X264547Y317220D01*
X265453D01*
X266291Y317567D01*
X266933Y318209D01*
X267280Y319047D01*
Y319953D01*
X266933Y320791D01*
X266291Y321432D01*
X265453Y321779D01*
D02*
G37*
G36*
X152500Y313760D02*
Y312000D01*
X154260D01*
X153932Y312791D01*
X153291Y313433D01*
X152500Y313760D01*
D02*
G37*
G36*
X151500D02*
X150709Y313433D01*
X150067Y312791D01*
X149740Y312000D01*
X151500D01*
Y313760D01*
D02*
G37*
G36*
X324877Y317453D02*
X323836D01*
X322831Y317183D01*
X321929Y316663D01*
X321193Y315927D01*
X320673Y315026D01*
X320404Y314020D01*
Y312980D01*
X320673Y311974D01*
X321193Y311073D01*
X321929Y310337D01*
X322831Y309817D01*
X323836Y309547D01*
X324877D01*
X325882Y309817D01*
X326783Y310337D01*
X327519Y311073D01*
X328040Y311974D01*
X328309Y312980D01*
Y314020D01*
X328040Y315026D01*
X327519Y315927D01*
X326783Y316663D01*
X325882Y317183D01*
X324877Y317453D01*
D02*
G37*
G36*
X314877D02*
X313836D01*
X312831Y317183D01*
X311929Y316663D01*
X311193Y315927D01*
X310673Y315026D01*
X310403Y314020D01*
Y312980D01*
X310673Y311974D01*
X311193Y311073D01*
X311929Y310337D01*
X312831Y309817D01*
X313836Y309547D01*
X314877D01*
X315882Y309817D01*
X316783Y310337D01*
X317519Y311073D01*
X318040Y311974D01*
X318309Y312980D01*
Y314020D01*
X318040Y315026D01*
X317519Y315927D01*
X316783Y316663D01*
X315882Y317183D01*
X314877Y317453D01*
D02*
G37*
G36*
X154260Y311000D02*
X152500D01*
Y309240D01*
X153291Y309567D01*
X153932Y310209D01*
X154260Y311000D01*
D02*
G37*
G36*
X151500D02*
X149740D01*
X150067Y310209D01*
X150709Y309567D01*
X151500Y309240D01*
Y311000D01*
D02*
G37*
G36*
X220453Y310279D02*
X219547D01*
X218709Y309932D01*
X218068Y309291D01*
X217721Y308453D01*
Y307547D01*
X218068Y306709D01*
X218709Y306067D01*
X219547Y305720D01*
X220453D01*
X221291Y306067D01*
X221933Y306709D01*
X222280Y307547D01*
Y308453D01*
X221933Y309291D01*
X221291Y309932D01*
X220453Y310279D01*
D02*
G37*
G36*
X256928Y307439D02*
X256283Y307266D01*
X255606Y306875D01*
X255053Y306323D01*
X254662Y305646D01*
X254580Y305339D01*
X254063D01*
X253980Y305646D01*
X253590Y306323D01*
X253037Y306875D01*
X252360Y307266D01*
X251714Y307439D01*
Y304500D01*
Y301561D01*
X252360Y301734D01*
X253037Y302125D01*
X253590Y302677D01*
X253980Y303354D01*
X254063Y303661D01*
X254580D01*
X254662Y303354D01*
X255053Y302677D01*
X255606Y302125D01*
X256283Y301734D01*
X256928Y301561D01*
Y304500D01*
Y307439D01*
D02*
G37*
G36*
X250714D02*
X250068Y307266D01*
X249392Y306875D01*
X248839Y306323D01*
X248448Y305646D01*
X248366Y305339D01*
X247848D01*
X247766Y305646D01*
X247375Y306323D01*
X246823Y306875D01*
X246146Y307266D01*
X245500Y307439D01*
Y304500D01*
Y301561D01*
X246146Y301734D01*
X246823Y302125D01*
X247375Y302677D01*
X247766Y303354D01*
X247848Y303661D01*
X248366D01*
X248448Y303354D01*
X248839Y302677D01*
X249392Y302125D01*
X250068Y301734D01*
X250714Y301561D01*
Y304500D01*
Y307439D01*
D02*
G37*
G36*
X257928D02*
Y305000D01*
X260368D01*
X260195Y305646D01*
X259804Y306323D01*
X259251Y306875D01*
X258574Y307266D01*
X257928Y307439D01*
D02*
G37*
G36*
X244500D02*
X243854Y307266D01*
X243177Y306875D01*
X242625Y306323D01*
X242234Y305646D01*
X242061Y305000D01*
X244500D01*
Y307439D01*
D02*
G37*
G36*
X140953Y308780D02*
X140047D01*
X139209Y308433D01*
X138567Y307791D01*
X138221Y306953D01*
Y306047D01*
X138567Y305209D01*
X139209Y304568D01*
X140047Y304221D01*
X140953D01*
X141791Y304568D01*
X142432Y305209D01*
X142780Y306047D01*
Y306953D01*
X142432Y307791D01*
X141791Y308433D01*
X140953Y308780D01*
D02*
G37*
G36*
X260368Y304000D02*
X257928D01*
Y301561D01*
X258574Y301734D01*
X259251Y302125D01*
X259804Y302677D01*
X260195Y303354D01*
X260368Y304000D01*
D02*
G37*
G36*
X244500D02*
X242061D01*
X242234Y303354D01*
X242625Y302677D01*
X243177Y302125D01*
X243854Y301734D01*
X244500Y301561D01*
Y304000D01*
D02*
G37*
G36*
X324877Y307453D02*
X323836D01*
X322831Y307183D01*
X321929Y306663D01*
X321193Y305927D01*
X320673Y305026D01*
X320404Y304020D01*
Y302980D01*
X320673Y301974D01*
X321193Y301073D01*
X321929Y300337D01*
X322831Y299817D01*
X323836Y299547D01*
X324877D01*
X325882Y299817D01*
X326783Y300337D01*
X327519Y301073D01*
X328040Y301974D01*
X328309Y302980D01*
Y304020D01*
X328040Y305026D01*
X327519Y305927D01*
X326783Y306663D01*
X325882Y307183D01*
X324877Y307453D01*
D02*
G37*
G36*
X314877D02*
X313836D01*
X312831Y307183D01*
X311929Y306663D01*
X311193Y305927D01*
X310673Y305026D01*
X310403Y304020D01*
Y302980D01*
X310673Y301974D01*
X311193Y301073D01*
X311929Y300337D01*
X312831Y299817D01*
X313836Y299547D01*
X314877D01*
X315882Y299817D01*
X316783Y300337D01*
X317519Y301073D01*
X318040Y301974D01*
X318309Y302980D01*
Y304020D01*
X318040Y305026D01*
X317519Y305927D01*
X316783Y306663D01*
X315882Y307183D01*
X314877Y307453D01*
D02*
G37*
G36*
X229000Y300260D02*
Y298500D01*
X230760D01*
X230433Y299291D01*
X229791Y299933D01*
X229000Y300260D01*
D02*
G37*
G36*
X228000D02*
X227209Y299933D01*
X226568Y299291D01*
X226240Y298500D01*
X228000D01*
Y300260D01*
D02*
G37*
G36*
X256928Y299439D02*
X256283Y299266D01*
X255606Y298875D01*
X255053Y298323D01*
X254662Y297646D01*
X254580Y297339D01*
X254063D01*
X253980Y297646D01*
X253590Y298323D01*
X253037Y298875D01*
X252360Y299266D01*
X251714Y299439D01*
Y296500D01*
Y293561D01*
X252360Y293734D01*
X253037Y294125D01*
X253590Y294677D01*
X253980Y295354D01*
X254063Y295661D01*
X254580D01*
X254662Y295354D01*
X255053Y294677D01*
X255606Y294125D01*
X256283Y293734D01*
X256928Y293561D01*
Y296500D01*
Y299439D01*
D02*
G37*
G36*
X250714D02*
X250068Y299266D01*
X249392Y298875D01*
X248839Y298323D01*
X248448Y297646D01*
X248366Y297339D01*
X247848D01*
X247766Y297646D01*
X247375Y298323D01*
X246823Y298875D01*
X246146Y299266D01*
X245500Y299439D01*
Y296500D01*
Y293561D01*
X246146Y293734D01*
X246823Y294125D01*
X247375Y294677D01*
X247766Y295354D01*
X247848Y295661D01*
X248366D01*
X248448Y295354D01*
X248839Y294677D01*
X249392Y294125D01*
X250068Y293734D01*
X250714Y293561D01*
Y296500D01*
Y299439D01*
D02*
G37*
G36*
X257928D02*
Y297000D01*
X260368D01*
X260195Y297646D01*
X259804Y298323D01*
X259251Y298875D01*
X258574Y299266D01*
X257928Y299439D01*
D02*
G37*
G36*
X244500D02*
X243854Y299266D01*
X243177Y298875D01*
X242625Y298323D01*
X242234Y297646D01*
X242061Y297000D01*
X244500D01*
Y299439D01*
D02*
G37*
G36*
X230760Y297500D02*
X229000D01*
Y295740D01*
X229791Y296068D01*
X230433Y296709D01*
X230760Y297500D01*
D02*
G37*
G36*
X228000D02*
X226240D01*
X226568Y296709D01*
X227209Y296068D01*
X228000Y295740D01*
Y297500D01*
D02*
G37*
G36*
X260368Y296000D02*
X257928D01*
Y293561D01*
X258574Y293734D01*
X259251Y294125D01*
X259804Y294677D01*
X260195Y295354D01*
X260368Y296000D01*
D02*
G37*
G36*
X244500D02*
X242061D01*
X242234Y295354D01*
X242625Y294677D01*
X243177Y294125D01*
X243854Y293734D01*
X244500Y293561D01*
Y296000D01*
D02*
G37*
G36*
X106953Y294779D02*
X106047D01*
X105209Y294432D01*
X104568Y293791D01*
X104220Y292953D01*
Y292047D01*
X104568Y291209D01*
X105209Y290567D01*
X106047Y290220D01*
X106953D01*
X107791Y290567D01*
X108432Y291209D01*
X108780Y292047D01*
Y292953D01*
X108432Y293791D01*
X107791Y294432D01*
X106953Y294779D01*
D02*
G37*
G36*
X192953Y284780D02*
X192047D01*
X191209Y284433D01*
X190568Y283791D01*
X190220Y282953D01*
Y282047D01*
X190568Y281209D01*
X191209Y280568D01*
X192047Y280221D01*
X192953D01*
X193791Y280568D01*
X194432Y281209D01*
X194780Y282047D01*
Y282953D01*
X194432Y283791D01*
X193791Y284433D01*
X192953Y284780D01*
D02*
G37*
G36*
X173000Y272260D02*
Y270500D01*
X174760D01*
X174433Y271291D01*
X173791Y271933D01*
X173000Y272260D01*
D02*
G37*
G36*
X172000D02*
X171209Y271933D01*
X170568Y271291D01*
X170240Y270500D01*
X172000D01*
Y272260D01*
D02*
G37*
G36*
X174760Y269500D02*
X173000D01*
Y267740D01*
X173791Y268068D01*
X174433Y268709D01*
X174760Y269500D01*
D02*
G37*
G36*
X172000D02*
X170240D01*
X170568Y268709D01*
X171209Y268068D01*
X172000Y267740D01*
Y269500D01*
D02*
G37*
G36*
X122453Y279780D02*
X121547D01*
X120709Y279433D01*
X120068Y278791D01*
X119720Y277953D01*
Y277047D01*
X120068Y276209D01*
X120709Y275568D01*
X121475Y275250D01*
X121496Y275114D01*
Y274886D01*
X121475Y274750D01*
X120709Y274432D01*
X120068Y273791D01*
X119720Y272953D01*
Y272047D01*
X120068Y271209D01*
X120709Y270567D01*
X121475Y270250D01*
X121496Y270114D01*
Y269886D01*
X121475Y269750D01*
X120709Y269432D01*
X120068Y268791D01*
X119720Y267953D01*
Y267047D01*
X120068Y266209D01*
X120709Y265567D01*
X121547Y265220D01*
X122453D01*
X123291Y265567D01*
X123933Y266209D01*
X124279Y267047D01*
Y267953D01*
X123933Y268791D01*
X123291Y269432D01*
X122525Y269750D01*
X122504Y269886D01*
Y270114D01*
X122525Y270250D01*
X123291Y270567D01*
X123933Y271209D01*
X124279Y272047D01*
Y272953D01*
X123933Y273791D01*
X123291Y274432D01*
X122525Y274750D01*
X122504Y274886D01*
Y275114D01*
X122525Y275250D01*
X123291Y275568D01*
X123933Y276209D01*
X124279Y277047D01*
Y277953D01*
X123933Y278791D01*
X123291Y279433D01*
X122453Y279780D01*
D02*
G37*
G36*
X183953Y266280D02*
X183047D01*
X182209Y265932D01*
X181568Y265291D01*
X181220Y264453D01*
Y263547D01*
X181568Y262709D01*
X182209Y262068D01*
X183047Y261720D01*
X183953D01*
X184791Y262068D01*
X185433Y262709D01*
X185780Y263547D01*
Y264453D01*
X185433Y265291D01*
X184791Y265932D01*
X183953Y266280D01*
D02*
G37*
G36*
X106953Y264779D02*
X106047D01*
X105209Y264433D01*
X104568Y263791D01*
X104220Y262953D01*
Y262047D01*
X104568Y261209D01*
X105209Y260567D01*
X106047Y260221D01*
X106953D01*
X107791Y260567D01*
X108432Y261209D01*
X108780Y262047D01*
Y262953D01*
X108432Y263791D01*
X107791Y264433D01*
X106953Y264779D01*
D02*
G37*
G36*
X161453Y256780D02*
X160547D01*
X159709Y256433D01*
X159067Y255791D01*
X158721Y254953D01*
Y254047D01*
X159067Y253209D01*
X159709Y252568D01*
X160547Y252221D01*
X161453D01*
X162291Y252568D01*
X162933Y253209D01*
X163279Y254047D01*
Y254953D01*
X162933Y255791D01*
X162291Y256433D01*
X161453Y256780D01*
D02*
G37*
G36*
X199453Y250279D02*
X198547D01*
X197709Y249933D01*
X197067Y249291D01*
X196721Y248453D01*
Y247547D01*
X197067Y246709D01*
X197709Y246068D01*
X198547Y245721D01*
X199453D01*
X200291Y246068D01*
X200933Y246709D01*
X201279Y247547D01*
Y248453D01*
X200933Y249291D01*
X200291Y249933D01*
X199453Y250279D01*
D02*
G37*
G36*
X146500Y241260D02*
Y239500D01*
X148260D01*
X147933Y240291D01*
X147291Y240932D01*
X146500Y241260D01*
D02*
G37*
G36*
X145500D02*
X144709Y240932D01*
X144068Y240291D01*
X143740Y239500D01*
X145500D01*
Y241260D01*
D02*
G37*
G36*
X148260Y238500D02*
X146500D01*
Y236740D01*
X147291Y237068D01*
X147933Y237709D01*
X148260Y238500D01*
D02*
G37*
G36*
X145500D02*
X143740D01*
X144068Y237709D01*
X144709Y237068D01*
X145500Y236740D01*
Y238500D01*
D02*
G37*
G36*
X139000Y213260D02*
Y211500D01*
X140760D01*
X140433Y212291D01*
X139791Y212932D01*
X139000Y213260D01*
D02*
G37*
G36*
X138000D02*
X137209Y212932D01*
X136567Y212291D01*
X136240Y211500D01*
X138000D01*
Y213260D01*
D02*
G37*
G36*
X119000D02*
Y211500D01*
X120760D01*
X120432Y212291D01*
X119791Y212932D01*
X119000Y213260D01*
D02*
G37*
G36*
X118000D02*
X117209Y212932D01*
X116568Y212291D01*
X116240Y211500D01*
X118000D01*
Y213260D01*
D02*
G37*
G36*
X140760Y210500D02*
X139000D01*
Y208740D01*
X139791Y209068D01*
X140433Y209709D01*
X140760Y210500D01*
D02*
G37*
G36*
X138000D02*
X136240D01*
X136567Y209709D01*
X137209Y209068D01*
X138000Y208740D01*
Y210500D01*
D02*
G37*
G36*
X120760D02*
X119000D01*
Y208740D01*
X119791Y209068D01*
X120432Y209709D01*
X120760Y210500D01*
D02*
G37*
G36*
X118000D02*
X116240D01*
X116568Y209709D01*
X117209Y209068D01*
X118000Y208740D01*
Y210500D01*
D02*
G37*
G36*
X198893Y213225D02*
X197986D01*
X197148Y212878D01*
X196507Y212236D01*
X196160Y211399D01*
Y210492D01*
X196507Y209654D01*
X197148Y209013D01*
X197986Y208665D01*
X198893D01*
X199731Y209013D01*
X200372Y209654D01*
X200719Y210492D01*
Y211399D01*
X200372Y212236D01*
X199731Y212878D01*
X198893Y213225D01*
D02*
G37*
G36*
X178893D02*
X177986D01*
X177148Y212878D01*
X176507Y212236D01*
X176160Y211399D01*
Y210492D01*
X176507Y209654D01*
X177148Y209013D01*
X177986Y208665D01*
X178893D01*
X179731Y209013D01*
X180372Y209654D01*
X180719Y210492D01*
Y211399D01*
X180372Y212236D01*
X179731Y212878D01*
X178893Y213225D01*
D02*
G37*
G36*
X158893D02*
X157986D01*
X157148Y212878D01*
X156507Y212236D01*
X156160Y211399D01*
Y210492D01*
X156507Y209654D01*
X157148Y209013D01*
X157986Y208665D01*
X158893D01*
X159731Y209013D01*
X160372Y209654D01*
X160719Y210492D01*
Y211399D01*
X160372Y212236D01*
X159731Y212878D01*
X158893Y213225D01*
D02*
G37*
G36*
X212000Y202939D02*
Y200500D01*
X214439D01*
X214266Y201146D01*
X213875Y201823D01*
X213323Y202375D01*
X212646Y202766D01*
X212000Y202939D01*
D02*
G37*
G36*
X211000D02*
X210354Y202766D01*
X209677Y202375D01*
X209125Y201823D01*
X208734Y201146D01*
X208561Y200500D01*
X211000D01*
Y202939D01*
D02*
G37*
G36*
X214439Y199500D02*
X212000D01*
Y197061D01*
X212646Y197234D01*
X213323Y197625D01*
X213875Y198177D01*
X214266Y198854D01*
X214439Y199500D01*
D02*
G37*
G36*
X211000D02*
X208561D01*
X208734Y198854D01*
X209125Y198177D01*
X209677Y197625D01*
X210354Y197234D01*
X211000Y197061D01*
Y199500D01*
D02*
G37*
%LPD*%
D73*
X159500Y415000D02*
D03*
X149500D02*
D03*
D77*
X138500Y211000D02*
D03*
X118500D02*
D03*
X146000Y239000D02*
D03*
X184500Y342500D02*
D03*
X196000Y341280D02*
D03*
X190500Y328000D02*
D03*
X260000Y330500D02*
D03*
X177500Y342500D02*
D03*
X152000Y311500D02*
D03*
X172500Y270000D02*
D03*
X228500Y298000D02*
D03*
X196500Y351000D02*
D03*
D78*
X211500Y200000D02*
D03*
X257429Y296500D02*
D03*
X245000Y304500D02*
D03*
X245000Y296500D02*
D03*
X251214D02*
D03*
X257429Y304500D02*
D03*
X251214D02*
D03*
M02*
